<?xml version="1.0" encoding="utf-8"?>
<!-- Generator: Adobe Illustrator 23.0.1, SVG Export Plug-In . SVG Version: 6.00 Build 0)  -->
<svg version="1.1" id="Vrstva_1" xmlns="http://www.w3.org/2000/svg" xmlns:xlink="http://www.w3.org/1999/xlink" x="0px" y="0px"
	 viewBox="0 0 113.4 113.4" style="enable-background:new 0 0 113.4 113.4;" xml:space="preserve">
<style type="text/css">
	.st0{fill:#DDEBF8;}
	.st1{fill:#94C9ED;}
	.st2{clip-path:url(#SVGID_2_);}
	.st3{fill:#1B75BC;}
	.st4{clip-path:url(#SVGID_6_);}
	.st5{fill:#E86E34;}
	.st6{fill:none;stroke:#FAAB56;stroke-width:2.079;stroke-miterlimit:10;}
	.st7{fill:#EF4136;}
	.st8{fill:#FDBA63;}
</style>
<polyline class="st0" points="113.4,0 0,0 0,113.4 113.4,113.4 "/>
<path class="st1" d="M42.1,46.2c0.1-0.4,0.2-0.9,0-1.3c-0.1-0.3-0.3-0.6-0.5-0.8c-3.5-4-5.5-9.3-5.6-14.6c0-1.8,0.1-3.6,0.2-5.4
	c0-0.5,0-1-0.2-1.5c-0.2-0.5-0.7-0.9-1.2-0.8c-0.4,0-0.8,0.3-1,0.6c-1.2,1.3-1.8,3-1.8,4.7l-0.4-6.7c0-0.3-0.1-0.6-0.3-0.8
	c-0.5-0.5-1-0.2-1.5,0.1c-1.9,1.5-2.3,4.2-2.2,6.7c-0.2-1.5-0.5-3-0.7-4.5c-0.1-0.5-0.2-1.1-0.8-1.3c-0.3-0.1-0.7,0-0.9,0.2
	c-0.5,0.4-0.6,1-0.7,1.5c-0.4,2.1-0.3,4.3,0.2,6.3c0.1,0.2,0.1,0.4,0.2,0.6c-0.1-0.2-0.1-0.4-0.2-0.6c-0.3-1-0.7-2.1-1.6-2.6
	c-0.2-0.1-0.4-0.2-0.6-0.2c-0.3,0.1-0.5,0.3-0.6,0.5c-0.7,1.2-1,2.5-0.9,3.8c0.1,3.1,0.5,6.2,1,9.2c-0.3-0.8-0.6-1.6-1.3-2.1
	c-0.4-0.3-1-0.3-1.5-0.1c-0.5,0.3-0.6,0.8-0.6,1.2c-0.2,3.2,0.6,6.4,2.1,9.1c0.1,0.2,0.2,0.4,0.3,0.6c-0.1-0.2-0.2-0.4-0.3-0.6
	c-0.3-0.4-0.6-0.8-1-1.2c-0.2-0.2-0.5-0.4-0.8-0.3c-0.3,0.2-0.5,0.6-0.4,0.9c0.6,2.5,1.7,4.8,3.2,6.9c0.1,0.1,0.2,0.3,0.3,0.5
	c-0.1-0.1-0.2-0.3-0.3-0.5c-0.4-0.4-0.9-0.7-1.5-0.8c-0.4-0.1-0.9,0.3-0.8,0.7c0.3,2.3,1.2,4.6,2.5,6.6c1.5,2.2,3.3,4,5.3,5.8
	c2.8,2.5,5.7,4.8,8.7,7.1l3.1-3.8C39.6,61.8,40.7,53.9,42.1,46.2 M92.7,47.7c1.5-2.8,2.3-6,2.1-9.1c0-0.5-0.1-1-0.6-1.2
	c-0.5-0.2-1-0.2-1.5,0.1c-0.7,0.5-1,1.3-1.3,2.1c0.5-3.1,0.9-6.1,1-9.2c0-1.3-0.3-2.7-0.9-3.8c-0.1-0.2-0.3-0.5-0.6-0.5
	c-0.2,0-0.4,0-0.6,0.2c-0.9,0.5-1.3,1.6-1.6,2.6c-0.1,0.2-0.1,0.4-0.2,0.6c0.1-0.2,0.1-0.4,0.2-0.6c0.5-2.1,0.6-4.2,0.2-6.3
	c-0.1-0.6-0.3-1.2-0.7-1.5c-0.3-0.2-0.6-0.3-0.9-0.2c-0.6,0.2-0.7,0.8-0.8,1.3c-0.2,1.5-0.5,3-0.7,4.5c0.1-2.4-0.2-5.2-2.2-6.7
	c-0.4-0.3-1-0.6-1.5-0.1c-0.2,0.2-0.3,0.5-0.3,0.8l-0.4,6.7c0.1-1.7-0.6-3.5-1.8-4.7c-0.3-0.3-0.6-0.6-1-0.6c-0.5,0-1,0.4-1.2,0.8
	c-0.2,0.5-0.2,1-0.2,1.5c0,1.8,0.2,3.6,0.2,5.4c-0.1,5.3-2.1,10.6-5.6,14.6c-0.2,0.2-0.4,0.5-0.5,0.8c-0.1,0.4-0.1,0.8,0,1.3
	c1.4,7.8,2.5,15.6,3,23.5l3.1,3.8c2.9-2.3,5.9-4.6,8.7-7.1c2-1.8,3.8-3.6,5.3-5.8c1.3-2,2.3-4.2,2.5-6.6c0-0.5-0.4-0.8-0.8-0.7
	c-0.6,0.1-1.1,0.4-1.5,0.8c-0.1,0.2-0.2,0.3-0.3,0.5c0.1-0.2,0.2-0.3,0.3-0.5c1.5-2,2.6-4.4,3.2-6.9c0.1-0.4-0.1-0.8-0.4-0.9
	c-0.3-0.2-0.6,0-0.8,0.3C93.3,46.9,93,47.3,92.7,47.7c-0.1,0.2-0.2,0.4-0.3,0.6C92.5,48.1,92.6,47.9,92.7,47.7"/>
<g>
	<defs>
		<path id="SVGID_1_" d="M21.7,54.1c0.1,0.1,0.2,0.3,0.3,0.5C21.9,54.4,21.8,54.2,21.7,54.1 M20.7,47.7c0.1,0.2,0.2,0.4,0.3,0.6
			C20.9,48.2,20.8,48,20.7,47.7 M24.7,28.7c0.1,0.2,0.1,0.4,0.2,0.6C24.8,29.1,24.7,28.9,24.7,28.7 M29.8,19.8
			c-1.9,1.5-2.3,4.2-2.2,6.7c-0.2-1.5-0.5-3-0.7-4.5c-0.1-0.5-0.2-1.1-0.8-1.3c-0.3-0.1-0.7,0-0.9,0.2c-0.5,0.4-0.6,1-0.7,1.5
			c-0.4,2.1-0.3,4.3,0.2,6.3c-0.3-1-0.7-2.1-1.6-2.6c-0.2-0.1-0.4-0.2-0.6-0.2c-0.3,0.1-0.5,0.3-0.6,0.5c-0.7,1.2-1,2.5-0.9,3.8
			c0.1,3.1,0.5,6.2,1,9.2c-0.3-0.8-0.6-1.6-1.3-2.1c-0.4-0.3-1-0.3-1.5-0.1c-0.5,0.3-0.6,0.8-0.6,1.2c-0.2,3.2,0.6,6.4,2.1,9.1
			c-0.3-0.4-0.6-0.8-1-1.2c-0.2-0.2-0.5-0.4-0.8-0.3c-0.3,0.2-0.5,0.6-0.4,0.9c0.6,2.5,1.7,4.8,3.2,6.9c-0.4-0.4-0.9-0.7-1.5-0.8
			c-0.4-0.1-0.9,0.3-0.8,0.7c0.3,2.3,1.2,4.6,2.5,6.6c1.5,2.2,3.3,4,5.3,5.8c2.8,2.5,5.7,4.8,8.7,7.1l3.1-3.8
			c0.6-7.9,1.6-15.7,3-23.5c0.1-0.4,0.2-0.9,0-1.3c-0.1-0.3-0.3-0.6-0.5-0.8c-3.5-4-5.5-9.3-5.6-14.6c0-1.8,0.1-3.6,0.2-5.4
			c0-0.5,0-1-0.2-1.5c-0.2-0.5-0.7-0.9-1.2-0.8c-0.4,0-0.8,0.3-1,0.6c-1.2,1.3-1.8,3-1.8,4.7l-0.4-6.7c0-0.3-0.1-0.6-0.3-0.8
			c-0.2-0.2-0.4-0.3-0.6-0.3C30.4,19.4,30.1,19.6,29.8,19.8 M82.1,19.7c-0.2,0.2-0.3,0.5-0.3,0.8l-0.4,6.7c0.1-1.7-0.6-3.5-1.8-4.7
			c-0.3-0.3-0.6-0.6-1-0.6c-0.5,0-1,0.4-1.2,0.8c-0.2,0.5-0.2,1-0.2,1.5c0,1.8,0.2,3.6,0.2,5.4c-0.1,5.3-2.1,10.6-5.6,14.6
			c-0.2,0.2-0.4,0.5-0.5,0.8c-0.1,0.4-0.1,0.8,0,1.3c1.5,7.8,2.5,15.6,3,23.5l3.1,3.8c2.9-2.3,5.9-4.6,8.7-7.1
			c2-1.8,3.8-3.6,5.3-5.8c1.3-2,2.3-4.2,2.5-6.6c0-0.5-0.4-0.8-0.8-0.7c-0.6,0.1-1.1,0.4-1.5,0.8c-0.1,0.2-0.2,0.3-0.3,0.5
			c0.1-0.2,0.2-0.3,0.3-0.5c1.5-2,2.6-4.4,3.2-6.9c0.1-0.4-0.1-0.8-0.4-0.9c-0.3-0.2-0.6,0-0.8,0.3c-0.4,0.4-0.7,0.8-1,1.2
			c-0.1,0.2-0.2,0.4-0.3,0.6c0.1-0.2,0.2-0.4,0.3-0.6c1.5-2.8,2.3-6,2.1-9.1c0-0.5-0.1-1-0.6-1.2c-0.5-0.2-1-0.2-1.5,0.1
			c-0.7,0.5-1,1.3-1.3,2.1c0.5-3.1,0.9-6.1,1-9.2c0-1.3-0.3-2.7-0.9-3.8c-0.1-0.2-0.3-0.5-0.6-0.5c-0.2,0-0.4,0-0.6,0.2
			c-0.9,0.5-1.3,1.6-1.6,2.6c-0.1,0.2-0.1,0.4-0.2,0.6c0-0.2,0.1-0.4,0.2-0.6c0.5-2.1,0.6-4.2,0.2-6.3c-0.1-0.6-0.3-1.2-0.7-1.5
			c-0.3-0.2-0.6-0.3-0.9-0.2c-0.6,0.2-0.7,0.8-0.8,1.3c-0.2,1.5-0.5,3-0.7,4.5c0.1-2.4-0.2-5.2-2.2-6.7c-0.2-0.2-0.5-0.4-0.9-0.4
			C82.5,19.4,82.3,19.5,82.1,19.7"/>
	</defs>
	<clipPath id="SVGID_2_">
		<use xlink:href="#SVGID_1_"  style="overflow:visible;"/>
	</clipPath>
	<g class="st2">
		<defs>
			<rect id="SVGID_3_" x="17.4" y="18.4" width="78.6" height="56"/>
		</defs>
		<clipPath id="SVGID_4_">
			<use xlink:href="#SVGID_3_"  style="overflow:visible;"/>
		</clipPath>
		<g transform="matrix(1 0 0 1 0 0)" style="clip-path:url(#SVGID_4_);">
			
				<image style="overflow:visible;" width="1284" height="916" xlink:href="D6BF22A0.png"  transform="matrix(6.120197e-02 0 0 6.118843e-02 17.398 18.3888)">
			</image>
		</g>
	</g>
</g>
<path class="st3" d="M56.8,105.8c0,0-10.9-4.6-17.7-18.5c-6.9-13.9-6.6-43.7-6.6-43.7h24.3V105.8z"/>
<g>
	<defs>
		<path id="SVGID_5_" d="M32.5,43.6c0,0-0.3,29.8,6.6,43.7c6.9,13.9,17.7,18.5,17.7,18.5V43.6H32.5z"/>
	</defs>
	<clipPath id="SVGID_6_">
		<use xlink:href="#SVGID_5_"  style="overflow:visible;"/>
	</clipPath>
	<g class="st4">
		<defs>
			<rect id="SVGID_7_" x="31.4" y="42.6" width="26.3" height="64.2"/>
		</defs>
		<clipPath id="SVGID_8_">
			<use xlink:href="#SVGID_7_"  style="overflow:visible;"/>
		</clipPath>
		<g transform="matrix(1 0 0 1 1.907349e-06 0)" style="clip-path:url(#SVGID_8_);">
			
				<image style="overflow:visible;" width="431" height="1049" xlink:href="D6BF22A1.png"  transform="matrix(6.113661e-02 0 0 6.118928e-02 31.4471 42.6134)">
			</image>
		</g>
	</g>
</g>
<path class="st5" d="M56.8,105.8c0,0,10.9-4.6,17.7-18.5c6.9-13.9,6.6-43.7,6.6-43.7H56.8V105.8z"/>
<path class="st6" d="M81.1,43.6H32.5c0,0-0.3,29.8,6.6,43.6c6.9,13.9,17.7,18.5,17.7,18.5s10.9-4.6,17.7-18.5
	C81.4,73.4,81.1,43.6,81.1,43.6z"/>
<path class="st7" d="M66.6,14.2c-0.8-0.5-9.4-2.5-9.9,5.7c-0.4-8.3-9.1-6.2-9.9-5.7c-0.8,0.5-4.3,2-2.8,8.7C45.8,30,56.8,38,56.8,38
	S67.7,30,69.4,22.9C71,16.2,67.4,14.7,66.6,14.2"/>
<path class="st8" d="M48.1,81.5c0,0,7.6,3.4,17.7,0c0,0,3.3-25,3.1-24.8c-0.2,0.2-8.3,10-8.3,10l-3.8-9.4L53,66.8l-8.3-10.1
	L48.1,81.5z"/>
</svg>
