<?xml version="1.0" encoding="utf-8"?>
<!-- Generator: Adobe Illustrator 23.0.1, SVG Export Plug-In . SVG Version: 6.00 Build 0)  -->
<svg version="1.1" id="Vrstva_1" xmlns="http://www.w3.org/2000/svg" xmlns:xlink="http://www.w3.org/1999/xlink" x="0px" y="0px"
	 viewBox="0 0 113.39 113.39" style="enable-background:new 0 0 113.39 113.39;" xml:space="preserve">
<style type="text/css">
	.st0{fill:#EBDF81;}
	.st1{fill:#3C2415;}
	.st2{fill:#A47F63;}
	.st3{fill:#FFFFFF;}
	.st4{fill:none;stroke:#3C2415;stroke-width:1.16;stroke-linejoin:round;}
	.st5{fill:#C5664E;}
	.st6{fill:#008EA3;}
</style>
<rect y="0" class="st0" width="113.39" height="113.39"/>
<g>
	<path class="st1" d="M35.96,96.06v0.18c-0.17,0-0.31,0.03-0.42,0.09s-0.21,0.18-0.31,0.35c-0.06,0.11-0.17,0.39-0.31,0.82
		l-1.85,5.34h-0.2l-1.51-4.23l-1.5,4.23H29.7l-1.97-5.5c-0.15-0.41-0.24-0.65-0.28-0.73c-0.06-0.12-0.15-0.22-0.27-0.28
		c-0.11-0.06-0.26-0.09-0.46-0.09v-0.18h2.45v0.18h-0.12c-0.17,0-0.3,0.04-0.4,0.12s-0.14,0.17-0.14,0.28
		c0,0.11,0.07,0.38,0.21,0.79l1.3,3.72l1.1-3.16l-0.2-0.56l-0.16-0.44c-0.07-0.16-0.15-0.31-0.23-0.43
		c-0.04-0.06-0.09-0.11-0.16-0.16c-0.08-0.06-0.16-0.1-0.24-0.13c-0.06-0.02-0.16-0.03-0.29-0.03v-0.18h2.58v0.18h-0.18
		c-0.18,0-0.32,0.04-0.4,0.12s-0.13,0.18-0.13,0.32c0,0.17,0.07,0.46,0.22,0.87l1.27,3.6l1.26-3.65c0.14-0.4,0.21-0.68,0.21-0.84
		c0-0.08-0.02-0.14-0.07-0.21s-0.11-0.11-0.18-0.14c-0.12-0.05-0.28-0.07-0.48-0.07v-0.18H35.96z"/>
	<path class="st1" d="M36.48,99.89c0,0.66,0.16,1.18,0.48,1.56s0.71,0.57,1.15,0.57c0.29,0,0.55-0.08,0.76-0.24
		c0.22-0.16,0.4-0.44,0.54-0.83l0.15,0.1c-0.07,0.45-0.27,0.85-0.6,1.22c-0.33,0.37-0.74,0.55-1.24,0.55c-0.54,0-1-0.21-1.38-0.63
		c-0.38-0.42-0.57-0.98-0.57-1.69c0-0.76,0.2-1.36,0.59-1.79c0.39-0.43,0.88-0.64,1.48-0.64c0.5,0,0.91,0.17,1.24,0.5
		c0.32,0.33,0.48,0.77,0.48,1.33H36.48z M36.48,99.61h2.07c-0.02-0.29-0.05-0.49-0.1-0.61c-0.08-0.18-0.2-0.33-0.36-0.43
		s-0.33-0.16-0.51-0.16c-0.27,0-0.51,0.1-0.73,0.32C36.65,98.94,36.52,99.24,36.48,99.61z"/>
	<path class="st1" d="M41.48,99.03c0.52-0.63,1.02-0.95,1.5-0.95c0.24,0,0.45,0.06,0.63,0.18c0.18,0.12,0.32,0.32,0.42,0.6
		c0.07,0.2,0.11,0.5,0.11,0.9v1.91c0,0.28,0.02,0.48,0.07,0.58c0.04,0.08,0.09,0.14,0.17,0.19s0.23,0.07,0.44,0.07v0.18H42.6v-0.18
		h0.09c0.21,0,0.35-0.03,0.44-0.1c0.08-0.06,0.14-0.16,0.17-0.28c0.01-0.05,0.02-0.2,0.02-0.46v-1.83c0-0.41-0.05-0.7-0.16-0.89
		c-0.11-0.18-0.28-0.28-0.53-0.28c-0.39,0-0.77,0.21-1.16,0.63v2.36c0,0.3,0.02,0.49,0.05,0.56c0.05,0.09,0.11,0.16,0.19,0.21
		c0.08,0.04,0.24,0.07,0.49,0.07v0.18h-2.21v-0.18h0.1c0.23,0,0.38-0.06,0.46-0.17c0.08-0.12,0.12-0.34,0.12-0.66v-1.66
		c0-0.54-0.01-0.86-0.04-0.98s-0.06-0.2-0.11-0.24s-0.12-0.06-0.2-0.06c-0.09,0-0.2,0.02-0.33,0.07l-0.07-0.18l1.35-0.55h0.21V99.03
		z"/>
	<path class="st1" d="M48.33,102.18c-0.22,0.23-0.43,0.39-0.64,0.49c-0.21,0.1-0.43,0.15-0.67,0.15c-0.49,0-0.91-0.2-1.28-0.61
		c-0.36-0.41-0.55-0.93-0.55-1.57s0.2-1.23,0.61-1.76c0.4-0.53,0.92-0.8,1.56-0.8c0.39,0,0.72,0.13,0.98,0.38v-0.83
		c0-0.51-0.01-0.83-0.04-0.94s-0.06-0.2-0.11-0.24s-0.12-0.06-0.2-0.06c-0.08,0-0.2,0.03-0.34,0.08l-0.06-0.17l1.33-0.55h0.22v5.17
		c0,0.52,0.01,0.84,0.04,0.96c0.02,0.12,0.06,0.2,0.12,0.24s0.12,0.07,0.19,0.07c0.09,0,0.21-0.03,0.35-0.08l0.05,0.17l-1.33,0.55
		h-0.22V102.18z M48.33,101.84v-2.3c-0.02-0.22-0.08-0.42-0.18-0.61s-0.23-0.32-0.39-0.41c-0.16-0.09-0.32-0.14-0.47-0.14
		c-0.29,0-0.54,0.13-0.77,0.39c-0.3,0.34-0.44,0.83-0.44,1.48c0,0.66,0.14,1.16,0.43,1.51c0.29,0.35,0.61,0.53,0.96,0.53
		C47.77,102.28,48.05,102.13,48.33,101.84z"/>
	<path class="st1" d="M49.92,98.21H52v0.18h-0.1c-0.15,0-0.26,0.03-0.33,0.09c-0.07,0.06-0.11,0.14-0.11,0.24
		c0,0.13,0.05,0.3,0.16,0.53l1.09,2.26l1-2.47c0.06-0.13,0.08-0.27,0.08-0.4c0-0.06-0.01-0.1-0.03-0.13
		c-0.03-0.04-0.07-0.06-0.12-0.08c-0.06-0.02-0.15-0.03-0.29-0.03v-0.18h1.46v0.18c-0.12,0.01-0.21,0.04-0.28,0.08
		s-0.14,0.11-0.21,0.22c-0.03,0.05-0.08,0.17-0.17,0.38l-1.82,4.46c-0.18,0.43-0.41,0.76-0.69,0.98s-0.56,0.33-0.82,0.33
		c-0.19,0-0.35-0.06-0.47-0.17s-0.19-0.24-0.19-0.38c0-0.14,0.04-0.25,0.13-0.33c0.09-0.08,0.21-0.12,0.37-0.12
		c0.11,0,0.25,0.04,0.44,0.11c0.13,0.05,0.21,0.07,0.24,0.07c0.1,0,0.2-0.05,0.32-0.15s0.23-0.3,0.35-0.59l0.32-0.78l-1.61-3.37
		c-0.05-0.1-0.13-0.23-0.23-0.38c-0.08-0.11-0.15-0.19-0.2-0.23c-0.07-0.05-0.2-0.1-0.36-0.14V98.21z"/>
</g>
<path class="st1" d="M31.26,81.04c3.44,0,6.23-2.79,6.23-6.23c0-3.44-2.79-6.23-6.23-6.23s-6.23,2.79-6.23,6.23
	C25.03,78.25,27.82,81.04,31.26,81.04"/>
<path class="st1" d="M37.34,87.72c3.44,0,6.23-2.79,6.23-6.23c0-3.44-2.79-6.23-6.23-6.23c-3.44,0-6.23,2.79-6.23,6.23
	C31.11,84.93,33.9,87.72,37.34,87.72"/>
<path class="st1" d="M78.57,84.23c3.44,0,6.23-2.79,6.23-6.23c0-3.44-2.79-6.23-6.23-6.23s-6.23,2.79-6.23,6.23
	C72.34,81.44,75.13,84.23,78.57,84.23"/>
<path class="st1" d="M72.47,89.17c3.44,0,6.23-2.79,6.23-6.24c0-3.44-2.79-6.23-6.23-6.23s-6.23,2.79-6.23,6.23
	C66.24,86.38,69.03,89.17,72.47,89.17"/>
<path class="st1" d="M36.87,73.29c-0.69,2.4-1.46,5.22-4.65,4.66c-2.29-0.4-5.65-3.7-4.05-6.17c-3.21,0.44-5.9-1.87-7.27-4.61
	c-0.89-1.79-1.38-4.38-0.69-6.32c0.56-1.6,1.87-2.25,3-3.32c-2.07-1.37-4.53-3.65-4.97-6.23c-0.73-4.25,1.91-6.91,5.81-7.65
	c-1.27-2.13-1.66-5.76-0.65-8.07c0.93-2.13,4.53-4.99,6.97-3.6c-2.65-5.07,5.74-13.66,10.13-8.46c0.54-3.15,5.43-4.48,8.05-4.82
	c3.42-0.44,7.12,0.99,7.93,4.64c2.32-4.63,10.64-6.54,11.17,0.17c1.97-1.75,5.18-3.08,7.62-1.4c0.86,0.59,1.89,1.68,2,2.78
	c0.11,1.17-0.78,2.01-0.81,3.14c2.64-1.2,4.97-2.32,7.75-0.45c2.05,1.38,3.48,4.65,2.05,6.93c2.61-1.01,4.07,0.35,4.84,2.73
	c0.37,1.14,0.74,2.43,0.34,3.61c-0.42,1.23-1.7,1.83-2.19,2.97c2.6-0.09,4.13,2.98,4.48,5.13c0.51,3.1-0.67,4.62-3.27,6.21
	c2.08,0.33,1.79,4.49,1.57,6.01c-0.34,2.3-1.67,4.79-3.81,5.28c2.07,0.59,0.83,5.12,0.19,6.49c-0.68,1.44-5.11,4.42-5.82,1.97
	c0.78,2.53-1.93,5.53-4.49,5.51c-2.88-0.01-4.47-3.37-4.49-5.82"/>
<path class="st2" d="M78.32,63.77c0,15.78-9.86,28.57-22.02,28.57c-12.16,0-22.02-12.79-22.02-28.57c0-15.78,9.86-28.57,22.02-28.57
	C68.47,35.2,78.32,47.99,78.32,63.77"/>
<path class="st3" d="M74.25,55.66c0,0-7.25-3.35-12.3,1.4C61.94,57.06,67.43,60.88,74.25,55.66"/>
<path class="st4" d="M74.25,55.66c0,0-7.25-3.35-12.3,1.4C61.94,57.06,67.43,60.88,74.25,55.66z"/>
<path class="st1" d="M65.11,56.01c-0.22,1.34,0.92,2.65,2.54,2.92c1.63,0.27,3.13-0.6,3.35-1.94c0.22-1.34-0.91-2.65-2.54-2.92
	C66.83,53.8,65.33,54.67,65.11,56.01"/>
<path class="st3" d="M38.64,55.95c0,0,7.03-3.31,12.08,1.43C50.73,57.38,45.45,61.17,38.64,55.95"/>
<path class="st4" d="M38.64,55.95c0,0,7.03-3.31,12.08,1.43C50.73,57.38,45.45,61.17,38.64,55.95z"/>
<path class="st1" d="M47.67,56.22c0.22,1.34-0.92,2.65-2.54,2.92c-1.63,0.27-3.13-0.6-3.35-1.94c-0.22-1.34,0.91-2.65,2.54-2.92
	C45.94,54.02,47.45,54.88,47.67,56.22"/>
<path class="st4" d="M73.76,52.1c-3.91-1.5-9.51-1.5-13.23,1.13 M38.43,52.23c3.91-1.5,9.51-1.5,13.23,1.13"/>
<path class="st2" d="M35.38,56.46c0.08-1.18-0.82-3.26-2.66-2.45c-1.68,0.74-1.78,2.94-1.83,4.45c-0.07,1.91-0.08,3.81,0.79,5.49
	c0.48,0.94,2.75,3.61,3.53,1.49"/>
<path class="st2" d="M77.39,56.46c-0.08-1.18,0.82-3.26,2.66-2.45c1.68,0.74,1.78,2.94,1.83,4.45c0.07,1.91,0.08,3.81-0.79,5.49
	c-0.48,0.94-2.75,3.61-3.53,1.49"/>
<path class="st5" d="M47.3,78.03c0,0,3.87-1.87,9.11-1.87c0,0,4.09-0.46,9.48,1.87v1.07c0,0-3.33,4.96-9.48,4.96
	S47.3,79.1,47.3,79.1V78.03z"/>
<path class="st3" d="M65.9,78.03c0,0-6.87,1.37-9.48,1.37s-9.11-1.37-9.11-1.37v1.07c0,0,4.25,2.3,9.11,2.3
	c4.86,0,9.48-2.3,9.48-2.3V78.03z"/>
<path class="st4" d="M52.28,66.81c-0.42,0.68-1.24,1.72-0.49,2.48c0.4,0.4,1.13,0.52,1.66,0.29c0.43-0.18,0.7-0.87,1.19-0.76
	c1.02,0.22,1,1.02,1.75,1.08c0.85,0.13,0.89-1.15,1.93-1.15c0.69,0,1.13,1.15,2.1,0.72c1.21-0.65,0.06-2.24-0.32-2.66"/>
<path class="st6" d="M40.1,35.09c0,0,1.31-8.8,5.03-7.19c2.27,0.98-0.59,4.14-0.59,4.14s4.64-2.13,4.68,0.57
	c0.05,3.9-18.97,1.41-17.33,7.12c0.84,2.92,4.12-0.64,4.12-0.64s-1.9,4.22,0.61,4.42C39.35,43.72,38.97,40.02,40.1,35.09"/>
</svg>
