<?xml version="1.0" encoding="utf-8"?>
<!-- Generator: Adobe Illustrator 23.0.1, SVG Export Plug-In . SVG Version: 6.00 Build 0)  -->
<svg version="1.1" id="Vrstva_1" xmlns="http://www.w3.org/2000/svg" xmlns:xlink="http://www.w3.org/1999/xlink" x="0px" y="0px"
	 viewBox="0 0 113.4 113.4" style="enable-background:new 0 0 113.4 113.4;" xml:space="preserve">
<style type="text/css">
	.st0{fill:#EBDF81;}
	.st1{fill:#3C2415;}
	.st2{fill:#A47F63;}
	.st3{fill:#FFFFFF;}
	.st4{fill:none;stroke:#3C2415;stroke-width:1.16;stroke-linejoin:round;}
	.st5{fill:#C5664E;}
	.st6{fill:#008EA3;}
</style>
<rect y="0" class="st0" width="113.4" height="113.4"/>
<g>
	<path class="st1" d="M36,96.1v0.2c-0.2,0-0.3,0-0.4,0.1s-0.2,0.2-0.3,0.3c-0.1,0.1-0.2,0.4-0.3,0.8l-1.8,5.3h-0.2l-1.5-4.2
		l-1.5,4.2h-0.2l-2-5.5c-0.1-0.4-0.2-0.7-0.3-0.7c-0.1-0.1-0.2-0.2-0.3-0.3c-0.1-0.1-0.3-0.1-0.5-0.1v-0.2h2.5v0.2h-0.1
		c-0.2,0-0.3,0-0.4,0.1s-0.1,0.2-0.1,0.3c0,0.1,0.1,0.4,0.2,0.8l1.3,3.7l1.1-3.2L31,97.4L30.8,97c-0.1-0.2-0.1-0.3-0.2-0.4
		c0-0.1-0.1-0.1-0.2-0.2c-0.1-0.1-0.2-0.1-0.2-0.1c-0.1,0-0.2,0-0.3,0v-0.2h2.6v0.2h-0.2c-0.2,0-0.3,0-0.4,0.1s-0.1,0.2-0.1,0.3
		c0,0.2,0.1,0.5,0.2,0.9l1.3,3.6l1.3-3.6c0.1-0.4,0.2-0.7,0.2-0.8c0-0.1,0-0.1-0.1-0.2s-0.1-0.1-0.2-0.1c-0.1,0-0.3-0.1-0.5-0.1
		v-0.2H36z"/>
	<path class="st1" d="M36.5,99.9c0,0.7,0.2,1.2,0.5,1.6s0.7,0.6,1.1,0.6c0.3,0,0.5-0.1,0.8-0.2c0.2-0.2,0.4-0.4,0.5-0.8l0.2,0.1
		c-0.1,0.4-0.3,0.9-0.6,1.2c-0.3,0.4-0.7,0.5-1.2,0.5c-0.5,0-1-0.2-1.4-0.6c-0.4-0.4-0.6-1-0.6-1.7c0-0.8,0.2-1.4,0.6-1.8
		c0.4-0.4,0.9-0.6,1.5-0.6c0.5,0,0.9,0.2,1.2,0.5c0.3,0.3,0.5,0.8,0.5,1.3H36.5z M36.5,99.6h2.1c0-0.3-0.1-0.5-0.1-0.6
		c-0.1-0.2-0.2-0.3-0.4-0.4s-0.3-0.2-0.5-0.2c-0.3,0-0.5,0.1-0.7,0.3C36.6,98.9,36.5,99.2,36.5,99.6z"/>
	<path class="st1" d="M41.5,99c0.5-0.6,1-0.9,1.5-0.9c0.2,0,0.5,0.1,0.6,0.2c0.2,0.1,0.3,0.3,0.4,0.6c0.1,0.2,0.1,0.5,0.1,0.9v1.9
		c0,0.3,0,0.5,0.1,0.6c0,0.1,0.1,0.1,0.2,0.2s0.2,0.1,0.4,0.1v0.2h-2.2v-0.2h0.1c0.2,0,0.4,0,0.4-0.1c0.1-0.1,0.1-0.2,0.2-0.3
		c0,0,0-0.2,0-0.5v-1.8c0-0.4-0.1-0.7-0.2-0.9c-0.1-0.2-0.3-0.3-0.5-0.3c-0.4,0-0.8,0.2-1.2,0.6v2.4c0,0.3,0,0.5,0.1,0.6
		c0,0.1,0.1,0.2,0.2,0.2c0.1,0,0.2,0.1,0.5,0.1v0.2H40v-0.2h0.1c0.2,0,0.4-0.1,0.5-0.2c0.1-0.1,0.1-0.3,0.1-0.7V100c0-0.5,0-0.9,0-1
		s-0.1-0.2-0.1-0.2s-0.1-0.1-0.2-0.1c-0.1,0-0.2,0-0.3,0.1l-0.1-0.2l1.3-0.5h0.2V99z"/>
	<path class="st1" d="M48.3,102.2c-0.2,0.2-0.4,0.4-0.6,0.5c-0.2,0.1-0.4,0.1-0.7,0.1c-0.5,0-0.9-0.2-1.3-0.6
		c-0.4-0.4-0.5-0.9-0.5-1.6s0.2-1.2,0.6-1.8c0.4-0.5,0.9-0.8,1.6-0.8c0.4,0,0.7,0.1,1,0.4v-0.8c0-0.5,0-0.8,0-0.9s-0.1-0.2-0.1-0.2
		s-0.1-0.1-0.2-0.1c-0.1,0-0.2,0-0.3,0.1l-0.1-0.2l1.3-0.5h0.2v5.2c0,0.5,0,0.8,0,1c0,0.1,0.1,0.2,0.1,0.2s0.1,0.1,0.2,0.1
		c0.1,0,0.2,0,0.4-0.1l0.1,0.2l-1.3,0.6h-0.2V102.2z M48.3,101.8v-2.3c0-0.2-0.1-0.4-0.2-0.6s-0.2-0.3-0.4-0.4
		c-0.2-0.1-0.3-0.1-0.5-0.1c-0.3,0-0.5,0.1-0.8,0.4c-0.3,0.3-0.4,0.8-0.4,1.5c0,0.7,0.1,1.2,0.4,1.5c0.3,0.4,0.6,0.5,1,0.5
		C47.8,102.3,48.1,102.1,48.3,101.8z"/>
	<path class="st1" d="M49.9,98.2H52v0.2h-0.1c-0.1,0-0.3,0-0.3,0.1c-0.1,0.1-0.1,0.1-0.1,0.2c0,0.1,0.1,0.3,0.2,0.5l1.1,2.3l1-2.5
		c0.1-0.1,0.1-0.3,0.1-0.4c0-0.1,0-0.1,0-0.1c0,0-0.1-0.1-0.1-0.1c-0.1,0-0.2,0-0.3,0v-0.2h1.5v0.2c-0.1,0-0.2,0-0.3,0.1
		s-0.1,0.1-0.2,0.2c0,0-0.1,0.2-0.2,0.4l-1.8,4.5c-0.2,0.4-0.4,0.8-0.7,1s-0.6,0.3-0.8,0.3c-0.2,0-0.4-0.1-0.5-0.2s-0.2-0.2-0.2-0.4
		c0-0.1,0-0.2,0.1-0.3c0.1-0.1,0.2-0.1,0.4-0.1c0.1,0,0.3,0,0.4,0.1c0.1,0,0.2,0.1,0.2,0.1c0.1,0,0.2-0.1,0.3-0.2s0.2-0.3,0.3-0.6
		l0.3-0.8l-1.6-3.4c0-0.1-0.1-0.2-0.2-0.4c-0.1-0.1-0.1-0.2-0.2-0.2c-0.1-0.1-0.2-0.1-0.4-0.1V98.2z"/>
</g>
<path class="st1" d="M31.3,81c3.4,0,6.2-2.8,6.2-6.2c0-3.4-2.8-6.2-6.2-6.2S25,71.4,25,74.8C25,78.2,27.8,81,31.3,81"/>
<path class="st1" d="M37.3,87.7c3.4,0,6.2-2.8,6.2-6.2c0-3.4-2.8-6.2-6.2-6.2c-3.4,0-6.2,2.8-6.2,6.2C31.1,84.9,33.9,87.7,37.3,87.7
	"/>
<path class="st1" d="M78.6,84.2c3.4,0,6.2-2.8,6.2-6.2c0-3.4-2.8-6.2-6.2-6.2s-6.2,2.8-6.2,6.2C72.3,81.4,75.1,84.2,78.6,84.2"/>
<path class="st1" d="M72.5,89.2c3.4,0,6.2-2.8,6.2-6.2c0-3.4-2.8-6.2-6.2-6.2s-6.2,2.8-6.2,6.2C66.2,86.4,69,89.2,72.5,89.2"/>
<path class="st1" d="M36.9,73.3c-0.7,2.4-1.5,5.2-4.7,4.7c-2.3-0.4-5.7-3.7-4-6.2c-3.2,0.4-5.9-1.9-7.3-4.6
	c-0.9-1.8-1.4-4.4-0.7-6.3c0.6-1.6,1.9-2.3,3-3.3c-2.1-1.4-4.5-3.6-5-6.2c-0.7-4.3,1.9-6.9,5.8-7.6c-1.3-2.1-1.7-5.8-0.7-8.1
	c0.9-2.1,4.5-5,7-3.6c-2.6-5.1,5.7-13.7,10.1-8.5c0.5-3.1,5.4-4.5,8-4.8c3.4-0.4,7.1,1,7.9,4.6c2.3-4.6,10.6-6.5,11.2,0.2
	c2-1.7,5.2-3.1,7.6-1.4c0.9,0.6,1.9,1.7,2,2.8c0.1,1.2-0.8,2-0.8,3.1c2.6-1.2,5-2.3,7.8-0.5c2,1.4,3.5,4.7,2,6.9
	c2.6-1,4.1,0.3,4.8,2.7c0.4,1.1,0.7,2.4,0.3,3.6c-0.4,1.2-1.7,1.8-2.2,3c2.6-0.1,4.1,3,4.5,5.1c0.5,3.1-0.7,4.6-3.3,6.2
	c2.1,0.3,1.8,4.5,1.6,6c-0.3,2.3-1.7,4.8-3.8,5.3c2.1,0.6,0.8,5.1,0.2,6.5c-0.7,1.4-5.1,4.4-5.8,2c0.8,2.5-1.9,5.5-4.5,5.5
	c-2.9,0-4.5-3.4-4.5-5.8"/>
<path class="st2" d="M78.3,63.8c0,15.8-9.9,28.6-22,28.6c-12.2,0-22-12.8-22-28.6c0-15.8,9.9-28.6,22-28.6
	C68.5,35.2,78.3,48,78.3,63.8"/>
<path class="st3" d="M74.2,55.7c0,0-7.2-3.3-12.3,1.4C61.9,57.1,67.4,60.9,74.2,55.7"/>
<path class="st4" d="M74.2,55.7c0,0-7.2-3.3-12.3,1.4C61.9,57.1,67.4,60.9,74.2,55.7z"/>
<path class="st1" d="M65.1,56c-0.2,1.3,0.9,2.6,2.5,2.9c1.6,0.3,3.1-0.6,3.4-1.9c0.2-1.3-0.9-2.6-2.5-2.9
	C66.8,53.8,65.3,54.7,65.1,56"/>
<path class="st3" d="M38.6,55.9c0,0,7-3.3,12.1,1.4C50.7,57.4,45.4,61.2,38.6,55.9"/>
<path class="st4" d="M38.6,55.9c0,0,7-3.3,12.1,1.4C50.7,57.4,45.4,61.2,38.6,55.9z"/>
<path class="st1" d="M47.7,56.2c0.2,1.3-0.9,2.6-2.5,2.9c-1.6,0.3-3.1-0.6-3.4-1.9c-0.2-1.3,0.9-2.6,2.5-2.9
	C45.9,54,47.4,54.9,47.7,56.2"/>
<path class="st4" d="M73.8,52.1c-3.9-1.5-9.5-1.5-13.2,1.1 M38.4,52.2c3.9-1.5,9.5-1.5,13.2,1.1"/>
<path class="st2" d="M35.4,56.5c0.1-1.2-0.8-3.3-2.7-2.5c-1.7,0.7-1.8,2.9-1.8,4.4c-0.1,1.9-0.1,3.8,0.8,5.5
	c0.5,0.9,2.7,3.6,3.5,1.5"/>
<path class="st2" d="M77.4,56.5c-0.1-1.2,0.8-3.3,2.7-2.5c1.7,0.7,1.8,2.9,1.8,4.4c0.1,1.9,0.1,3.8-0.8,5.5
	c-0.5,0.9-2.7,3.6-3.5,1.5"/>
<path class="st5" d="M47.3,78c0,0,3.9-1.9,9.1-1.9c0,0,4.1-0.5,9.5,1.9v1.1c0,0-3.3,5-9.5,5s-9.1-5-9.1-5V78z"/>
<path class="st3" d="M65.9,78c0,0-6.9,1.4-9.5,1.4S47.3,78,47.3,78v1.1c0,0,4.2,2.3,9.1,2.3c4.9,0,9.5-2.3,9.5-2.3V78z"/>
<path class="st4" d="M52.3,66.8c-0.4,0.7-1.2,1.7-0.5,2.5c0.4,0.4,1.1,0.5,1.7,0.3c0.4-0.2,0.7-0.9,1.2-0.8c1,0.2,1,1,1.7,1.1
	c0.9,0.1,0.9-1.1,1.9-1.1c0.7,0,1.1,1.1,2.1,0.7c1.2-0.6,0.1-2.2-0.3-2.7"/>
<path class="st6" d="M40.1,35.1c0,0,1.3-8.8,5-7.2c2.3,1-0.6,4.1-0.6,4.1s4.6-2.1,4.7,0.6c0,3.9-19,1.4-17.3,7.1
	c0.8,2.9,4.1-0.6,4.1-0.6s-1.9,4.2,0.6,4.4C39.3,43.7,39,40,40.1,35.1"/>
</svg>
