<?xml version="1.0" encoding="utf-8"?>
<!-- Generator: Adobe Illustrator 23.0.1, SVG Export Plug-In . SVG Version: 6.00 Build 0)  -->
<svg version="1.1" id="Vrstva_1" xmlns="http://www.w3.org/2000/svg" xmlns:xlink="http://www.w3.org/1999/xlink" x="0px" y="0px"
	 viewBox="0 0 113.4 113.4" style="enable-background:new 0 0 113.4 113.4;" xml:space="preserve">
<style type="text/css">
	.st0{fill:#404041;}
	.st1{fill:#FFFFFF;}
</style>
<g>
	<path class="st0" d="M61.2,80.3l16.4,21.1c0,0,6.1-4.5,8.3-1.5c2.2,3-7.8,7.8-10.3,9.7c-2.5,1.8-18.2-22.3-18.2-22.3L61.2,80.3z"/>
	<path class="st0" d="M43.2,78.1l0.2,28.9c0,0,7.6,0.2,7.5,3.9c-0.1,3.7-11,1.5-14.1,1.4c-3.1-0.1-0.8-35.4-0.8-35.4L43.2,78.1z"/>
	<path class="st0" d="M23,40.7l51.5-0.2c0,0,2.4,49.6-23.2,49.7C16.4,90.3,23,40.7,23,40.7"/>
	<path class="st1" d="M49.8,51.1c1.5-0.6,3.5-1,5.1-1.2c2.8-0.4,4.8,0.3,7.1,1.3c2,0.9,6.1,2.2,4,4.3c-1.8,1.7-4.6,3-7.4,3.5
		c-2.6,0.5-4.4,0.2-6.7-0.6c-2.2-0.7-4.5-1.5-5.6-3.2C44.8,53,47.5,52,49.8,51.1"/>
	<path class="st0" d="M65.9,56.8c0,2.3-2.2,4.2-4.8,4.2c-2.7,0-4.8-1.9-4.8-4.2c0-2.3,2.2-4.2,4.8-4.2
		C63.7,52.6,65.9,54.5,65.9,56.8"/>
	<path class="st0" d="M86.5,98.2C86.5,98.2,86.5,98.3,86.5,98.2c0.1,0.4,0.1,1-0.2,1.1l-4.5,0.3c0,0-0.1,0-0.1-0.1l0-0.7
		c0-0.1,0.2-0.3,0.3-0.4l0.5-0.1c0.4-0.1,0.7-0.4,0.8-0.8c0.8-2.8,3.2-10.4,4.5-13.8c0.1-0.4,0.8-0.4,1.3-0.4c0,0,0.1,0,0.1,0
		c1.2,3,4.9,10.9,6.5,14.1l1.5,0.2c0,0,0.1,0,0.1,0.1c0,0.3,0,0.9-0.3,0.9L91.2,99c-0.1,0-0.1,0-0.1-0.1l0-0.7
		c0-0.2,0.1-0.3,0.3-0.4l0.5-0.2c0.5-0.2,0.7-0.2,0.6-0.6l-1.4-3.3l-5.2,0.3c-0.6,1.9-0.9,3.2-1,4L86.5,98.2z M86.3,93l4.4-0.2
		c-1-2.2-2-4.5-2.6-5.9C87.7,88.1,87,90.5,86.3,93"/>
	<polygon class="st0" points="22.5,35.7 46.4,8.2 72.4,35.7 	"/>
	<polygon class="st0" points="47.5,2.5 48.3,4.7 50.5,4 49.4,6 51.3,7.3 49,7.6 49.2,9.9 47.5,8.4 45.8,9.9 46,7.6 43.7,7.3 45.6,6 
		44.4,4 46.6,4.7 	"/>
</g>
</svg>
