<?xml version="1.0" encoding="utf-8"?>
<!-- Generator: Adobe Illustrator 23.0.1, SVG Export Plug-In . SVG Version: 6.00 Build 0)  -->
<svg version="1.1" id="Vrstva_1" xmlns="http://www.w3.org/2000/svg" xmlns:xlink="http://www.w3.org/1999/xlink" x="0px" y="0px"
	 viewBox="0 0 56.7 56.7" style="enable-background:new 0 0 56.7 56.7;" xml:space="preserve">
<style type="text/css">
	.st0{fill:#25224F;}
</style>
<path class="st0" d="M31.4,36.6C29.6,38,27.4,39,25,39c-2.4,0-4.4-1.2-4.4-4.3c0-5,6.8-6.7,10.9-6.8V36.6z M31.4,24.9
	c-11,1.3-16.5,6.2-16.5,11.9c0,4.6,3.2,7,7.2,7c4.3,0,7-1.9,9.5-4.6c0.6,2.7,2.1,4.4,5.5,4.4c2.8,0,4.7-1.3,4.7-3.4
	c0-0.1-0.1-0.2-0.1-0.2c-2.3,0-4.5-0.6-4.5-2.9c0-5.5,0.3-10.2,0.3-15.1c0-6.6-3.4-9.2-9.8-9.2c-4,0-8.4,1.4-11.2,3.7
	c-0.2,0.2-0.2,0.5-0.2,0.9c0,0.5,0.1,1.6,0.4,2c0.1,0.1,0.2,0.2,0.2,0.1c2.9-1.7,5.9-2.6,8.6-2.6c3.5,0,6,1.5,6,5.3V24.9z"/>
</svg>
