<?xml version="1.0" encoding="utf-8"?>
<!-- Generator: Adobe Illustrator 23.0.1, SVG Export Plug-In . SVG Version: 6.00 Build 0)  -->
<svg version="1.1" id="Vrstva_1" xmlns="http://www.w3.org/2000/svg" xmlns:xlink="http://www.w3.org/1999/xlink" x="0px" y="0px"
	 viewBox="0 0 56.7 56.7" style="enable-background:new 0 0 56.7 56.7;" xml:space="preserve">
<style type="text/css">
	.st0{fill:#25224F;}
</style>
<path class="st0" d="M26.7,16.2c1.3,3.8,3.7,10.2,6,16.4H20.8C23,26.1,25.3,19.8,26.7,16.2 M16.4,46.3c0.5-2.1,1.6-5.5,3.4-10.6
	h14.2l3.4,9.2c0.4,1-0.2,1.2-1.6,1.5l-1.4,0.4c-0.5,0.1-0.8,0.5-0.8,0.9l-0.2,1.8c0,0.1,0,0.2,0.2,0.2h15.1c0.8,0,1-1.7,1-2.5
	c0-0.1-0.2-0.2-0.2-0.2l-3.9-0.7C41.5,37.5,32.9,15.6,30,7.2C30,7.1,29.9,7,29.8,7c-1.1,0-3.1,0.1-3.5,1c-3.8,9-11.5,29.1-14.2,36.5
	c-0.4,1-1.1,1.9-2.3,2l-1.4,0.1c-0.5,0.2-0.9,0.6-1,0.9l-0.2,1.8c0,0.1,0.1,0.2,0.2,0.2h12.2c0.8,0,1-1.7,1-2.6
	c0-0.1-0.1-0.2-0.2-0.2L16.4,46.3z"/>
</svg>
