<?xml version="1.0" encoding="utf-8"?>
<!-- Generator: Adobe Illustrator 23.0.1, SVG Export Plug-In . SVG Version: 6.00 Build 0)  -->
<svg version="1.1" id="Vrstva_1" xmlns="http://www.w3.org/2000/svg" xmlns:xlink="http://www.w3.org/1999/xlink" x="0px" y="0px"
	 viewBox="0 0 112 112" style="enable-background:new 0 0 112 112;" xml:space="preserve">
<style type="text/css">
	.st0{fill:#25224F;}
</style>
<g>
</g>
<path class="st0" d="M54.3,45.6c1.3,3.8,3.7,10.2,6,16.4H48.5C50.7,55.5,53,49.1,54.3,45.6 M44,75.6c0.5-2.1,1.6-5.5,3.4-10.6h14.2
	l3.4,9.2c0.4,1-0.2,1.2-1.6,1.5l-1.4,0.4c-0.5,0.1-0.8,0.5-0.8,0.9l-0.2,1.8c0,0.1,0,0.2,0.2,0.2h15.1c0.8,0,1-1.7,1-2.5
	c0-0.1-0.2-0.2-0.2-0.2L73,75.6c-3.8-8.8-12.4-30.7-15.3-39.1c0-0.1-0.1-0.1-0.2-0.1c-1.1,0-3.1,0.1-3.5,1
	c-3.8,9-11.5,29.1-14.2,36.5c-0.4,1-1.1,1.9-2.3,2l-1.4,0.1c-0.5,0.2-0.9,0.6-1,0.9l-0.2,1.8c0,0.1,0.1,0.2,0.2,0.2h12.2
	c0.8,0,1-1.7,1-2.6c0-0.1-0.1-0.2-0.2-0.2L44,75.6z"/>
</svg>
