<?xml version="1.0" encoding="utf-8"?>
<!-- Generator: Adobe Illustrator 23.0.1, SVG Export Plug-In . SVG Version: 6.00 Build 0)  -->
<svg version="1.1" id="Vrstva_1" xmlns="http://www.w3.org/2000/svg" xmlns:xlink="http://www.w3.org/1999/xlink" x="0px" y="0px"
	 viewBox="0 0 112 112" style="enable-background:new 0 0 112 112;" xml:space="preserve">
<style type="text/css">
	.st0{fill:#008EA3;}
</style>
<g>
</g>
<path class="st0" d="M56.7,75.8c-2.9,0-5.3-1.4-5.3-3.1V54.2c1.3-1.1,3.7-1.9,5.1-1.9c5.5,0,9.2,3.4,9.2,12.1
	C65.7,71.4,62,75.8,56.7,75.8 M45.4,75.5c2.9,2,5.9,3.5,10.1,3.5c9.8,0,16.1-8.2,16.1-17.5c0-8.9-4.7-13.7-11.8-13.7
	c-2.6,0-6.2,1.5-8.6,3.5c0.1-6.8,0.2-14.2,0.5-18.1c0-0.1-0.1-0.2-0.2-0.2l-10.5,1c-0.4,0.1-0.7,1.3-0.7,1.9c0,0.4,0.1,0.7,0.5,0.7
	H43c1.2,0,2.4,0.1,2.4,1.1V75.5z"/>
</svg>
