<?xml version="1.0" encoding="utf-8"?>
<!-- Generator: Adobe Illustrator 23.0.1, SVG Export Plug-In . SVG Version: 6.00 Build 0)  -->
<svg version="1.1" id="Vrstva_1" xmlns="http://www.w3.org/2000/svg" xmlns:xlink="http://www.w3.org/1999/xlink" x="0px" y="0px"
	 viewBox="0 0 112 112" style="enable-background:new 0 0 112 112;" xml:space="preserve">
<style type="text/css">
	.st0{fill:#008EA3;}
</style>
<path class="st0" d="M55.4,79c12.7,0,18.4-5.4,18.4-11.9c0-5.5-3.8-9.7-11.2-10.6c5.5-1.7,8.6-4.6,8.6-9.1c0-5.5-3.4-10.1-15.2-10.1
	H39.7c-0.9,0-1,1.8-1,2.6c0,0.1,0.1,0.2,0.1,0.2l4.7,0.6v33.5c0,1.1-0.5,1.4-2,1.6l-2.2,0.4c-0.7,0.2-1,0.5-1,0.9l-0.2,1.8
	c0,0.1,0.1,0.2,0.2,0.2H55.4z M50.2,55.7c0.1-6.4,0.1-10.3,0.2-13.2c0.2-1,1.4-1.7,5-1.7c6,0,8.9,2.8,8.9,7.2
	c0,5.5-2.3,7.7-11.2,7.7H50.2z M66.7,67.9c0,5.9-4.4,7.5-12.4,7.5h-4V59c1.6-0.1,3.1-0.3,5.2-0.3C63.6,58.7,66.7,62,66.7,67.9"/>
</svg>
