<?xml version="1.0" encoding="utf-8"?>
<!-- Generator: Adobe Illustrator 23.0.1, SVG Export Plug-In . SVG Version: 6.00 Build 0)  -->
<svg version="1.1" id="Vrstva_1" xmlns="http://www.w3.org/2000/svg" xmlns:xlink="http://www.w3.org/1999/xlink" x="0px" y="0px"
	 viewBox="0 0 56.7 56.7" style="enable-background:new 0 0 56.7 56.7;" xml:space="preserve">
<style type="text/css">
	.st0{fill:#AAAE15;}
</style>
<path class="st0" d="M36.4,22.9c2.1,0,3.8-1.7,3.8-3.9c0-3.9-3.1-6.2-8.5-6.2c-9.5,0-15.3,7.3-15.3,17c0,9.2,5.8,14.1,12.6,14.1
	c4.5,0,8.5-2.3,10.5-4.5c0.2-0.2,0.3-0.6,0.3-1c0-0.5-0.2-1.1-0.5-1.4c-0.1-0.1-0.2-0.2-0.2-0.1c-2.2,1.1-4.4,1.7-7.1,1.7
	c-5.5,0-10.5-3.1-10.5-12.1c0-7.2,4.6-10.9,8.7-10.9c1.6,0,3.3,0.6,3.3,3.8c0,0.5-0.1,1.1-0.2,1.7C33.5,22.2,34.6,22.9,36.4,22.9"/>
</svg>
