<?xml version="1.0" encoding="utf-8"?>
<!-- Generator: Adobe Illustrator 23.0.1, SVG Export Plug-In . SVG Version: 6.00 Build 0)  -->
<svg version="1.1" id="Vrstva_1" xmlns="http://www.w3.org/2000/svg" xmlns:xlink="http://www.w3.org/1999/xlink" x="0px" y="0px"
	 viewBox="0 0 112 112" style="enable-background:new 0 0 112 112;" xml:space="preserve">
<style type="text/css">
	.st0{fill:#00A79D;}
</style>
<g>
</g>
<g>
	<path class="st0" d="M58.7,39.7l-6.8-5.6c-0.1-0.2-0.4-0.2-0.6-0.2c-0.4,0-1.2,0.2-1.6,0.8c-0.1,0.1-0.1,0.2,0,0.2l7.3,10
		c0.3,0.4,0.7,0.5,1.7,0.5c1.2,0,1.6-0.2,1.9-0.5l7.1-10c0,0,0.1-0.1,0.1-0.1c-0.2-0.5-1-0.8-1.5-0.8c-0.2,0-0.4,0.1-0.7,0.2
		L58.7,39.7z"/>
	<path class="st0" d="M64.1,57.9c2.1,0,3.8-1.7,3.8-3.9c0-3.9-3.1-6.2-8.5-6.2c-9.5,0-15.3,7.3-15.3,17c0,9.2,5.8,14.1,12.6,14.1
		c4.5,0,8.5-2.3,10.5-4.5c0.2-0.2,0.3-0.6,0.3-1c0-0.5-0.2-1.1-0.5-1.4c-0.1-0.1-0.2-0.2-0.2-0.1c-2.2,1.1-4.4,1.7-7.1,1.7
		c-5.5,0-10.5-3.1-10.5-12.1c0-7.2,4.6-10.9,8.7-10.9c1.6,0,3.3,0.6,3.3,3.8c0,0.5-0.1,1.1-0.2,1.7C61.1,57.3,62.3,57.9,64.1,57.9"
		/>
</g>
</svg>
