<?xml version="1.0" encoding="utf-8"?>
<!-- Generator: Adobe Illustrator 23.0.1, SVG Export Plug-In . SVG Version: 6.00 Build 0)  -->
<svg version="1.1" id="Vrstva_1" xmlns="http://www.w3.org/2000/svg" xmlns:xlink="http://www.w3.org/1999/xlink" x="0px" y="0px"
	 viewBox="0 0 56.7 56.7" style="enable-background:new 0 0 56.7 56.7;" xml:space="preserve">
<style type="text/css">
	.st0{fill:#00A79D;}
</style>
<path class="st0" d="M32.5,5.8l-6.9-4.2v0.1c-0.2-0.2-0.4-0.2-0.7-0.2c-0.5,0-1,0.2-1.4,0.8c-0.1,0.1-0.1,0.2,0,0.2l7.3,8.1
	c0.2,0.2,0.8,0.5,1.6,0.5c1.1,0,1.4-0.1,1.8-0.5l7.2-8.1c0.1-0.1,0.1-0.1,0.1-0.2c-0.2-0.5-0.9-0.8-1.4-0.8c-0.2,0-0.5,0.2-0.8,0.3
	L32.5,5.8z"/>
<path class="st0" d="M40.4,21.9c0,0.8,3.1,0.1,3.2-0.8l0.5-7.9C44.1,13,44,13,44,13c-2.3-0.7-6.9-1.1-9.6-1.1
	c-14.3,0-22.1,11.7-22.1,23s6.8,20.4,19,20.4c5.4,0,10.7-2.6,13-4.9c0.4-0.4,0.4-1.7-0.2-2.5c-0.1-0.1-0.2-0.1-0.2-0.1
	c-2.2,1.4-6,2.8-9.8,2.8c-9.8,0-15-7.8-15-18.5c0-8.8,4.3-16.7,13.9-16.7C37.2,15.4,40.4,18,40.4,21.9"/>
</svg>
