<?xml version="1.0" encoding="utf-8"?>
<!-- Generator: Adobe Illustrator 23.0.1, SVG Export Plug-In . SVG Version: 6.00 Build 0)  -->
<svg version="1.1" id="Vrstva_1" xmlns="http://www.w3.org/2000/svg" xmlns:xlink="http://www.w3.org/1999/xlink" x="0px" y="0px"
	 viewBox="0 0 56.7 56.7" style="enable-background:new 0 0 56.7 56.7;" xml:space="preserve">
<style type="text/css">
	.st0{fill:#F69474;}
</style>
<path class="st0" d="M34,40.8V28.3c1.3-1.3,3.6-2.4,5.2-2.4c1.9,0,3.5,1.2,3.5,4v9.8c0,0.7-0.4,1-1.4,1.1l-1.2,0.2
	c-0.3,0.1-0.6,0.4-0.6,0.6l-0.2,1.2c0,0.1,0,0.1,0.2,0.1h9.7c0.6,0,0.6-1.1,0.6-1.6c0,0,0-0.1-0.1-0.1l-3.2-0.4
	c0-4.2,0.2-7.6,0.2-11c0-4.7-2.7-7-6-7c-2.3,0-5,1.2-6.8,3.4c0-6.5,0.2-11,0.3-13c0-0.1,0-0.2-0.1-0.2l-7,0.7
	c-0.3,0-0.5,0.9-0.5,1.3c0,0.2,0,0.5,0.3,0.5h1.4c0.8,0,1.6,0,1.6,0.7v23.6c0,0.7-0.3,1-1.3,1.1l-1.5,0.2c-0.4,0.1-0.6,0.4-0.7,0.6
	l-0.2,1.2c0,0.1,0,0.1,0.1,0.1h9.9c0.6,0,0.6-1.2,0.6-1.7c0,0,0-0.1-0.1-0.1L34,40.8z"/>
<path class="st0" d="M20.1,29.6c1.4,0,2.6-1.1,2.6-2.6c0-2.6-2.1-4.1-5.7-4.1c-6.4,0-10.2,4.8-10.2,11.4c0,6.2,3.8,9.4,8.4,9.4
	c3,0,5.7-1.5,7-3c0.1-0.1,0.2-0.4,0.2-0.7c0-0.3-0.1-0.7-0.4-1c0,0-0.1-0.1-0.2,0c-1.4,0.7-2.9,1.1-4.8,1.1c-3.6,0-7-2.1-7-8
	c0-4.8,3.1-7.3,5.8-7.3c1,0,2.2,0.4,2.2,2.6c0,0.4,0,0.7-0.2,1.1C18.1,29.2,18.9,29.6,20.1,29.6"/>
</svg>
