<?xml version="1.0" encoding="utf-8"?>
<!-- Generator: Adobe Illustrator 23.0.1, SVG Export Plug-In . SVG Version: 6.00 Build 0)  -->
<svg version="1.1" id="Vrstva_1" xmlns="http://www.w3.org/2000/svg" xmlns:xlink="http://www.w3.org/1999/xlink" x="0px" y="0px"
	 viewBox="0 0 112 112" style="enable-background:new 0 0 112 112;" xml:space="preserve">
<style type="text/css">
	.st0{fill:#F69474;}
</style>
<g>
	<g>
		<path class="st0" d="M64,76.1V58.5c1.9-1.8,5-3.3,7.3-3.3c2.6,0,4.9,1.6,4.9,5.7v13.8c0,1-0.5,1.3-1.9,1.6l-1.6,0.3
			c-0.4,0.2-0.8,0.5-0.9,0.8L71.5,79c0,0.1,0.1,0.2,0.2,0.2h13.7c0.8,0,0.9-1.6,0.9-2.3c0-0.1-0.1-0.2-0.1-0.2l-4.4-0.6
			c0.1-6,0.2-10.6,0.2-15.4c0-6.6-3.8-9.8-8.4-9.8c-3.3,0-7,1.7-9.5,4.7c0.1-9.1,0.2-15.4,0.4-18.3c0-0.1-0.1-0.2-0.2-0.2l-9.8,1
			c-0.4,0.1-0.7,1.2-0.7,1.8c0,0.3,0,0.7,0.4,0.7h2c1.2,0,2.2,0.1,2.2,1v33.2c0,1-0.4,1.4-1.8,1.6l-2.1,0.3c-0.6,0.2-0.9,0.5-1,0.8
			L53.4,79c0,0.1,0.1,0.2,0.2,0.2h13.9c0.8,0,0.8-1.6,0.8-2.4c0-0.1-0.1-0.2-0.1-0.2L64,76.1z"/>
		<path class="st0" d="M44.4,60.3c2,0,3.6-1.6,3.6-3.7c0-3.7-2.9-5.8-8-5.8c-8.9,0-14.3,6.8-14.3,16c0,8.7,5.4,13.2,11.8,13.2
			c4.2,0,8-2.1,9.8-4.2c0.2-0.2,0.3-0.6,0.3-1c0-0.4-0.2-1-0.5-1.3c-0.1-0.1-0.2-0.2-0.2-0.1c-2,1-4.1,1.6-6.7,1.6
			c-5.1,0-9.8-2.9-9.8-11.3c0-6.7,4.3-10.2,8.2-10.2c1.5,0,3.1,0.6,3.1,3.6c0,0.5-0.1,1-0.2,1.6C41.6,59.7,42.7,60.3,44.4,60.3"/>
	</g>
</g>
</svg>
