<?xml version="1.0" encoding="utf-8"?>
<!-- Generator: Adobe Illustrator 23.0.1, SVG Export Plug-In . SVG Version: 6.00 Build 0)  -->
<svg version="1.1" id="Vrstva_1" xmlns="http://www.w3.org/2000/svg" xmlns:xlink="http://www.w3.org/1999/xlink" x="0px" y="0px"
	 viewBox="0 0 112 112" style="enable-background:new 0 0 112 112;" xml:space="preserve">
<style type="text/css">
	.st0{fill:#F69474;}
</style>
<g>
	<path class="st0" d="M68.1,76.1V58.5c1.9-1.8,5-3.3,7.3-3.3c2.6,0,4.9,1.6,4.9,5.7v13.8c0,1-0.5,1.3-1.9,1.6l-1.6,0.3
		c-0.4,0.2-0.8,0.5-0.9,0.8L75.6,79c0,0.1,0.1,0.2,0.2,0.2h13.7c0.8,0,0.9-1.6,0.9-2.3c0-0.1-0.1-0.2-0.1-0.2l-4.4-0.6
		c0.1-6,0.2-10.6,0.2-15.4c0-6.6-3.8-9.8-8.4-9.8c-3.3,0-7,1.7-9.5,4.7c0.1-9.1,0.2-15.4,0.4-18.3c0-0.1-0.1-0.2-0.2-0.2l-9.8,1
		c-0.4,0.1-0.7,1.2-0.7,1.8c0,0.3,0,0.7,0.4,0.7h2c1.2,0,2.2,0.1,2.2,1v33.2c0,1-0.4,1.4-1.8,1.6l-2.1,0.3c-0.6,0.2-0.9,0.5-1,0.8
		L57.4,79c0,0.1,0.1,0.2,0.2,0.2h13.9c0.8,0,0.8-1.6,0.8-2.4c0-0.1-0.1-0.2-0.1-0.2L68.1,76.1z"/>
	<path class="st0" d="M48,48.7c0,0.7,2.9,0.1,3-0.7l0.5-7.4c0-0.1-0.1-0.2-0.1-0.2c-2.2-0.6-6.5-1-9-1c-13.4,0-20.7,11-20.7,21.5
		S28,80,39.4,80c5.1,0,10.1-2.5,12.1-4.6c0.4-0.4,0.4-1.6-0.2-2.3c-0.1-0.1-0.2-0.1-0.2-0.1c-2,1.3-5.6,2.6-9.2,2.6
		c-9.2,0-14.1-7.3-14.1-17.4c0-8.2,4-15.6,13-15.6C45,42.7,48,45,48,48.7"/>
</g>
</svg>
