<?xml version="1.0" encoding="utf-8"?>
<!-- Generator: Adobe Illustrator 23.0.1, SVG Export Plug-In . SVG Version: 6.00 Build 0)  -->
<svg version="1.1" id="Vrstva_1" xmlns="http://www.w3.org/2000/svg" xmlns:xlink="http://www.w3.org/1999/xlink" x="0px" y="0px"
	 viewBox="0 0 56.7 56.7" style="enable-background:new 0 0 56.7 56.7;" xml:space="preserve">
<style type="text/css">
	.st0{fill:#F69474;}
</style>
<path class="st0" d="M36.9,40.8V28.3c1.3-1.3,3.6-2.4,5.2-2.4c1.9,0,3.5,1.2,3.5,4v9.8c0,0.7-0.4,1-1.4,1.1l-1.2,0.2
	c-0.3,0.1-0.6,0.4-0.6,0.6l-0.2,1.2c0,0.1,0,0.1,0.2,0.1h9.7c0.6,0,0.6-1.1,0.6-1.6c0,0,0-0.1-0.1-0.1l-3.2-0.4
	c0-4.2,0.2-7.6,0.2-11c0-4.7-2.7-7-6-7c-2.3,0-5,1.2-6.8,3.4c0-6.5,0.2-11,0.3-13c0-0.1,0-0.2-0.1-0.2l-7,0.7
	c-0.3,0-0.5,0.9-0.5,1.3c0,0.2,0,0.5,0.3,0.5h1.4c0.8,0,1.6,0,1.6,0.7v23.6c0,0.7-0.3,1-1.3,1.1l-1.5,0.2c-0.4,0.1-0.6,0.4-0.7,0.6
	l-0.2,1.2c0,0.1,0,0.1,0.1,0.1h9.9c0.6,0,0.6-1.2,0.6-1.7c0,0,0-0.1-0.1-0.1L36.9,40.8z"/>
<path class="st0" d="M22.6,21.4c0,0.5,2,0,2.1-0.5l0.4-5.3c0-0.1,0-0.1-0.1-0.1c-1.6-0.4-4.6-0.7-6.4-0.7C9.1,14.7,3.9,22.5,3.9,30
	s4.6,13.6,12.6,13.6c3.6,0,7.2-1.8,8.6-3.2c0.3-0.3,0.3-1.1-0.1-1.6c-0.1,0-0.1-0.1-0.2,0c-1.4,1-4,1.8-6.5,1.8
	c-6.5,0-10-5.2-10-12.4c0-5.8,2.8-11.1,9.2-11.1C20.5,17.1,22.6,18.8,22.6,21.4"/>
</svg>
