<?xml version="1.0" encoding="utf-8"?>
<!-- Generator: Adobe Illustrator 23.0.1, SVG Export Plug-In . SVG Version: 6.00 Build 0)  -->
<svg version="1.1" id="Vrstva_1" xmlns="http://www.w3.org/2000/svg" xmlns:xlink="http://www.w3.org/1999/xlink" x="0px" y="0px"
	 viewBox="0 0 56.7 56.7" style="enable-background:new 0 0 56.7 56.7;" xml:space="preserve">
<style type="text/css">
	.st0{fill:#F5A1C5;}
</style>
<path class="st0" d="M41.4,28.8c0,12.9-6.8,16.9-14.2,16.9h-6.8c0-11.3,0-20.9,0.2-32.8c0-1,1.1-1.7,5.4-1.7
	C33.9,11.1,41.4,15.1,41.4,28.8 M27.2,49.2c10.9,0,21.2-7.2,21.2-21.5c0-12.1-6.4-20.2-21.2-20.2H9.8c-0.9,0-1,1.8-1,2.6
	c0,0.1,0.1,0.2,0.1,0.2l4.7,0.6v33.5c0,1.1-0.4,1.4-1.9,1.6l-2.3,0.4c-0.5,0.2-1,0.6-1,0.9L8.2,49c0,0.1,0.1,0.2,0.2,0.2H27.2z"/>
</svg>
