<?xml version="1.0" encoding="utf-8"?>
<!-- Generator: Adobe Illustrator 23.0.1, SVG Export Plug-In . SVG Version: 6.00 Build 0)  -->
<svg version="1.1" id="Vrstva_1" xmlns="http://www.w3.org/2000/svg" xmlns:xlink="http://www.w3.org/1999/xlink" x="0px" y="0px"
	 viewBox="0 0 112 112" style="enable-background:new 0 0 112 112;" xml:space="preserve">
<style type="text/css">
	.st0{fill:#330000;}
</style>
<g>
</g>
<path class="st0" d="M68.8,47.2c2.3,0,5.6-5,5.6-9.5c0-3-1.8-4.4-3.5-4.4c-1.9,0-3.2,1.2-3.2,3.5c0,0.1,0.1,0.2,0.2,0.2
	c1.7,0.2,2.3,1.5,2.3,3.1c0,2.6-1.4,4.7-2.7,5.6c-0.1,0-0.1,0.1-0.1,0.2C67.5,46.6,67.5,47.2,68.8,47.2 M58.2,73.2
	c-1.4,1.3-3.8,2.2-5.8,2.2c-5.4,0-8.8-4.1-8.8-11.9c0-7.1,3.5-11.4,9.5-11.4c1.8,0,4,0.5,5.1,1.2V73.2z M64.2,76.1
	c0-15.7,0.2-33.5,0.5-41.8c0-0.1-0.1-0.2-0.2-0.2l-10.5,1c-0.5,0.1-0.7,1.3-0.7,1.9c0,0.4,0.1,0.7,0.5,0.7h2.2
	c1.1,0,2.3,0.1,2.3,1.1v10.6c-1.1-0.4-2.6-0.5-3.7-0.5c-10.4,0-16.9,7.3-16.9,17.1c0,8.8,4.6,14,11.6,14c2.9,0,6.2-1.7,9-4.1v4
	c0,0.1,0.1,0.2,0.2,0.2c2.9-0.5,6.9-1.1,9.4-1.3c0.8,0,1-1.7,1-2.5c0-0.1-0.1-0.1-0.1-0.1H64.2z"/>
</svg>
