<?xml version="1.0" encoding="utf-8"?>
<!-- Generator: Adobe Illustrator 23.0.1, SVG Export Plug-In . SVG Version: 6.00 Build 0)  -->
<svg version="1.1" id="Vrstva_1" xmlns="http://www.w3.org/2000/svg" xmlns:xlink="http://www.w3.org/1999/xlink" x="0px" y="0px"
	 viewBox="0 0 56.7 56.7" style="enable-background:new 0 0 56.7 56.7;" xml:space="preserve">
<style type="text/css">
	.st0{fill:#330000;}
</style>
<path class="st0" d="M27.4,6.2L20.5,2v0.1c-0.2-0.2-0.4-0.2-0.7-0.2c-0.5,0-1,0.2-1.4,0.8c-0.1,0.1-0.1,0.2,0,0.2l7.3,8.1
	c0.2,0.2,0.8,0.5,1.6,0.5c1.1,0,1.4-0.1,1.8-0.5l7.2-8.1c0.1-0.1,0.1-0.1,0.1-0.2c-0.2-0.5-0.9-0.8-1.4-0.8c-0.2,0-0.5,0.2-0.8,0.3
	L27.4,6.2z M41.4,34.4c0,12.9-6.8,16.9-14.2,16.9h-6.8c0-11.3,0-20.9,0.2-32.8c0-1,1.1-1.7,5.4-1.7C33.9,16.7,41.4,20.8,41.4,34.4
	 M27.2,54.8c10.9,0,21.2-7.2,21.2-21.5c0-12.1-6.4-20.2-21.2-20.2H9.8c-0.9,0-1,1.8-1,2.6c0,0.1,0.1,0.2,0.1,0.2l4.7,0.6V50
	c0,1.1-0.4,1.4-1.9,1.6L9.5,52c-0.5,0.2-1,0.6-1,0.9l-0.2,1.8c0,0.1,0.1,0.2,0.2,0.2H27.2z"/>
</svg>
