<?xml version="1.0" encoding="utf-8"?>
<!-- Generator: Adobe Illustrator 23.0.1, SVG Export Plug-In . SVG Version: 6.00 Build 0)  -->
<svg version="1.1" id="Vrstva_1" xmlns="http://www.w3.org/2000/svg" xmlns:xlink="http://www.w3.org/1999/xlink" x="0px" y="0px"
	 viewBox="0 0 112 112" style="enable-background:new 0 0 112 112;" xml:space="preserve">
<style type="text/css">
	.st0{fill:#330000;}
</style>
<g>
</g>
<path class="st0" d="M55.1,30.4l-6.9-4.2v0.1C48,26.1,47.8,26,47.5,26c-0.5,0-1,0.2-1.4,0.8C46,26.9,46,27,46.1,27l7.3,8.1
	c0.2,0.2,0.8,0.5,1.6,0.5c1.1,0,1.4-0.1,1.8-0.5L64,27C64,27,64,26.9,64,26.9c-0.2-0.5-0.9-0.8-1.4-0.8c-0.2,0-0.5,0.2-0.8,0.3
	L55.1,30.4z M69.1,58.5c0,12.9-6.8,16.9-14.2,16.9H48c0-11.3,0-20.9,0.2-32.8c0-1,1.1-1.7,5.4-1.7C61.5,40.9,69.1,44.9,69.1,58.5
	 M54.9,79c10.9,0,21.2-7.2,21.2-21.5c0-12.1-6.4-20.2-21.2-20.2H37.5c-0.9,0-1,1.8-1,2.6c0,0.1,0.1,0.2,0.1,0.2l4.7,0.6v33.5
	c0,1.1-0.4,1.4-1.9,1.6l-2.3,0.4c-0.5,0.2-1,0.6-1,0.9l-0.2,1.8c0,0.1,0.1,0.2,0.2,0.2H54.9z"/>
</svg>
