<?xml version="1.0" encoding="utf-8"?>
<!-- Generator: Adobe Illustrator 23.0.1, SVG Export Plug-In . SVG Version: 6.00 Build 0)  -->
<svg version="1.1" id="Vrstva_1" xmlns="http://www.w3.org/2000/svg" xmlns:xlink="http://www.w3.org/1999/xlink" x="0px" y="0px"
	 viewBox="0 0 56.7 56.7" style="enable-background:new 0 0 56.7 56.7;" xml:space="preserve">
<style type="text/css">
	.st0{fill:#53B2E5;}
</style>
<path class="st0" d="M29.6,15.8c3.5,0,5.2,2,5.2,5.2c0,1.5-0.4,2-2.2,2H22C23,18.2,25.4,15.8,29.6,15.8 M31,12.8
	c-9.4,0-14.8,8.1-14.8,16.7c0,10,6.7,14.4,14,14.4c4.4,0,8.2-2.1,10.1-4.3c0.1-0.2,0.2-0.4,0.2-0.8c0-0.5-0.2-1.3-0.6-1.7
	c-0.1,0-0.2-0.1-0.2,0c-2,1.2-4.9,1.7-7.3,1.7c-6.3,0-10.9-4.3-10.6-13.1H40c0.1,0,0.2-0.1,0.2-0.1c0.2-0.5,0.4-2.5,0.4-3.8
	C40.6,16.9,37.4,12.8,31,12.8"/>
</svg>
