<?xml version="1.0" encoding="utf-8"?>
<!-- Generator: Adobe Illustrator 23.0.1, SVG Export Plug-In . SVG Version: 6.00 Build 0)  -->
<svg version="1.1" id="Vrstva_1" xmlns="http://www.w3.org/2000/svg" xmlns:xlink="http://www.w3.org/1999/xlink" x="0px" y="0px"
	 viewBox="0 0 56.7 56.7" style="enable-background:new 0 0 56.7 56.7;" xml:space="preserve">
<style type="text/css">
	.st0{fill:#53B2E5;}
</style>
<path class="st0" d="M13,7.5c-0.9,0-1,1.8-1,2.6c0,0.1,0.1,0.2,0.1,0.2l4.7,0.6v33.5c0,1.1-0.5,1.4-2,1.6l-2.2,0.4
	c-0.7,0.2-1,0.5-1,0.9L11.4,49c0,0.1,0.1,0.2,0.2,0.2H44c0.1,0,0.2-0.1,0.2-0.2l1.1-9.1c-0.1-1-1.3-1.5-2-1.5
	c-0.1,0-0.2,0.1-0.2,0.1c-1.8,5.2-2.8,7.1-10.3,7.1h-9.3V29.3c2.9-0.2,5.8-0.2,8.6-0.2c1.1,0,1.8,0.6,2,1.4l0.8,2.9
	c0,0.1,0.1,0.1,0.2,0.1c0.8,0,1.9-0.1,1.9-1V20.7c0-0.1-0.1-0.2-0.2-0.2l-1.1,0.2c-0.5,0.1-0.7,0.4-0.8,1L34,23.9
	c-0.5,1.3-0.9,2-1.9,2h-8.6c0.1-6.4,0.1-10.1,0.2-13c0.1-1,0.7-1.7,2-1.7h13l1.4,5.6c0,0.1,0.1,0.1,0.1,0.1c1.2,0,2.6-0.5,2.7-1.4
	l0.6-7.7c0-0.1-0.1-0.2-0.2-0.2H13z"/>
</svg>
