<?xml version="1.0" encoding="utf-8"?>
<!-- Generator: Adobe Illustrator 23.0.1, SVG Export Plug-In . SVG Version: 6.00 Build 0)  -->
<svg version="1.1" id="Vrstva_1" xmlns="http://www.w3.org/2000/svg" xmlns:xlink="http://www.w3.org/1999/xlink" x="0px" y="0px"
	 viewBox="0 0 56.7 56.7" style="enable-background:new 0 0 56.7 56.7;" xml:space="preserve">
<style type="text/css">
	.st0{fill:#E86E34;}
</style>
<path class="st0" d="M35.4,5.8C30,5.8,21.8,11.7,21.8,19v2.5h-3.5c-0.6,0-1.1,1.1-1.1,2c0,0.5,0.1,0.8,0.5,0.8h4.1V46
	c0,1-0.5,1.4-1.9,1.7L17.7,48c-0.7,0.2-1,0.4-1.1,0.8l-0.2,1.8c0,0.1,0.1,0.2,0.2,0.2h16.1c0.7,0,1-1.7,1-2.5c0-0.1-0.1-0.2-0.1-0.2
	l-5.8-0.6c0-10.4,0-16.7,0.1-23.2h5.2c0.8,0,1.3-1.1,1.3-2c0-0.5-0.2-0.8-0.6-0.8h-5.8c0-1.7,0-6.2,0.1-7.4c0.2-2.5,1.6-4.1,4-4.1
	c2.3,0,2.9,1.1,3.1,3c0.2,0.1,0.6,0.2,1.1,0.2c2.5,0,4.1-1.6,4.1-3.7C40.3,7,38.4,5.8,35.4,5.8"/>
</svg>
