<?xml version="1.0" encoding="utf-8"?>
<!-- Generator: Adobe Illustrator 23.0.1, SVG Export Plug-In . SVG Version: 6.00 Build 0)  -->
<svg version="1.1" id="Vrstva_1" xmlns="http://www.w3.org/2000/svg" xmlns:xlink="http://www.w3.org/1999/xlink" x="0px" y="0px"
	 viewBox="0 0 56.7 56.7" style="enable-background:new 0 0 56.7 56.7;" xml:space="preserve">
<style type="text/css">
	.st0{fill:#E86E34;}
</style>
<path class="st0" d="M34.2,30c1.1,0,1.7,0.6,2,1.4l0.8,2.9c0,0.1,0.1,0.1,0.2,0.1c0.8,0,1.9-0.1,1.9-1V21.6c0-0.1-0.1-0.2-0.2-0.2
	l-1.1,0.2c-0.4,0.1-0.8,0.4-0.8,1l-0.8,2.3c-0.5,1.4-0.8,2-1.8,2h-9.9c0-7.3,0.1-11,0.2-13.9c0.1-1,0.7-1.7,2-1.7h13l1.4,5.6
	c0,0.1,0.1,0.1,0.1,0.1c1.2,0,2.6-0.5,2.7-1.4l0.5-7.7c0-0.1-0.1-0.2-0.2-0.2H13.9c-0.9,0-1,1.8-1,2.6c0,0.1,0.1,0.2,0.1,0.2
	l4.7,0.6v33.5c0,1.1-0.5,1.4-2,1.6l-2.2,0.4c-0.7,0.2-1,0.5-1,0.9L12.3,49c0,0.1,0.1,0.2,0.2,0.2h17.7c0.7,0,1-1.7,1-2.6
	c0-0.1-0.1-0.2-0.2-0.2l-6.6-0.5V30.2C28,30,30.5,30,34.2,30"/>
</svg>
