<?xml version="1.0" encoding="utf-8"?>
<!-- Generator: Adobe Illustrator 23.0.1, SVG Export Plug-In . SVG Version: 6.00 Build 0)  -->
<svg version="1.1" id="Vrstva_1" xmlns="http://www.w3.org/2000/svg" xmlns:xlink="http://www.w3.org/1999/xlink" x="0px" y="0px"
	 viewBox="0 0 112 112" style="enable-background:new 0 0 112 112;" xml:space="preserve">
<style type="text/css">
	.st0{fill:#6BBF65;}
</style>
<g>
</g>
<path class="st0" d="M54.5,51.3c4.3,0,6.2,3.9,6.2,8.7c0,3-1.4,6.1-5.3,6.1c-4.3,0-6.2-4.1-6.2-8.9C49.3,54.1,50.6,51.3,54.5,51.3
	 M47,83.6c0-1.9,1.1-4,2.5-5.2c3.6,0.5,7.1,0.2,10.6,0.5c3.1,0.4,4.4,1.6,4.4,4.1c0,3.6-3.6,6.2-9.1,6.2C49.3,89.3,47,87.3,47,83.6
	 M55.6,48.5c-8,0-12.3,5.3-12.3,10.6c0,2.8,1.3,5.7,3.6,7.5c-2.3,1.9-3.2,4-3.2,6.5c0,2.1,1.5,3.7,3.2,4.5c-3.5,2-5.3,5.1-5.3,7.9
	c0,4.4,4,6.7,10.3,6.7c12,0,18.1-5.9,18.1-11.7c0-3.7-1.9-6.5-7.6-7.1c-2-0.2-3.8-0.3-6.5-0.3c-2,0-4.1-0.1-5.9-0.4
	c-1.3-0.1-2.5-0.9-2.5-2c0-1,0.2-1.7,1.7-3c1.4,0.6,3.1,0.8,5.2,0.8c8,0,12.2-5.4,12.2-10.7c0-2-0.6-3.7-1.8-5.3h4.1
	c1.2,0,1.5-2.2,1.5-3c0-0.1,0-0.2-0.2-0.2h-9.3C59.4,48.9,57.7,48.5,55.6,48.5"/>
</svg>
