<?xml version="1.0" encoding="utf-8"?>
<!-- Generator: Adobe Illustrator 23.0.1, SVG Export Plug-In . SVG Version: 6.00 Build 0)  -->
<svg version="1.1" id="Vrstva_1" xmlns="http://www.w3.org/2000/svg" xmlns:xlink="http://www.w3.org/1999/xlink" x="0px" y="0px"
	 viewBox="0 0 56.7 56.7" style="enable-background:new 0 0 56.7 56.7;" xml:space="preserve">
<style type="text/css">
	.st0{fill:#6BBF65;}
</style>
<path class="st0" d="M26.9,9.2c4.3,0,6.2,3.9,6.2,8.7c0,3-1.4,6.1-5.3,6.1c-4.3,0-6.2-4.1-6.2-8.9C21.6,12,22.9,9.2,26.9,9.2
	 M19.4,41.5c0-1.9,1.1-4,2.5-5.2c3.6,0.5,7.1,0.2,10.6,0.5c3.1,0.4,4.4,1.6,4.4,4.1c0,3.6-3.6,6.2-9.1,6.2
	C21.7,47.2,19.4,45.3,19.4,41.5 M28,6.4c-8,0-12.3,5.3-12.3,10.6c0,2.8,1.3,5.7,3.6,7.5c-2.3,1.9-3.2,4-3.2,6.5
	c0,2.1,1.5,3.7,3.2,4.5c-3.5,2-5.3,5.1-5.3,7.9c0,4.4,4,6.7,10.3,6.7c12,0,18.1-5.9,18.1-11.7c0-3.7-1.9-6.5-7.6-7.1
	c-2-0.2-3.8-0.3-6.5-0.3c-2,0-4.1-0.1-5.9-0.4c-1.3-0.1-2.5-0.9-2.5-2c0-1,0.2-1.7,1.7-3c1.4,0.6,3.1,0.8,5.2,0.8
	c8,0,12.2-5.4,12.2-10.7c0-2-0.6-3.7-1.8-5.3h4.1c1.2,0,1.5-2.2,1.5-3c0-0.1,0-0.2-0.2-0.2h-9.3C31.8,6.8,30.1,6.4,28,6.4"/>
</svg>
