<?xml version="1.0" encoding="utf-8"?>
<!-- Generator: Adobe Illustrator 23.0.1, SVG Export Plug-In . SVG Version: 6.00 Build 0)  -->
<svg version="1.1" id="Vrstva_1" xmlns="http://www.w3.org/2000/svg" xmlns:xlink="http://www.w3.org/1999/xlink" x="0px" y="0px"
	 viewBox="0 0 112 112" style="enable-background:new 0 0 112 112;" xml:space="preserve">
<style type="text/css">
	.st0{fill:#6BBF65;}
</style>
<g>
</g>
<path class="st0" d="M73.2,56.7c0-0.2-0.1-0.2-0.2-0.2H60.5c-0.8,0-1.1,1.7-1.1,2.6c0,0.2,0.1,0.2,0.2,0.2l6.5,0.5v14.9
	c-1.5,0.3-2.8,0.4-4.3,0.4c-10.7,0-16.3-8.8-16.3-19.3c0-8.7,4-17.2,14.2-17.2c5.2,0,8.9,2.8,8.9,6.8c0,0.8,3.1,0.1,3.2-0.8l0.5-7.9
	c0-0.1-0.1-0.2-0.1-0.2c-2.9-0.7-7.1-1.1-10.9-1.1c-15,0-22.6,11.8-22.6,23c0,10.5,6.1,20.4,19.7,20.4c4.5,0,11.5-1.7,14.2-3.1
	c0.1,0,0.1-0.1,0.1-0.2C72.8,71.7,73,61.5,73.2,56.7"/>
</svg>
