<?xml version="1.0" encoding="utf-8"?>
<!-- Generator: Adobe Illustrator 23.0.1, SVG Export Plug-In . SVG Version: 6.00 Build 0)  -->
<svg version="1.1" id="Vrstva_1" xmlns="http://www.w3.org/2000/svg" xmlns:xlink="http://www.w3.org/1999/xlink" x="0px" y="0px"
	 viewBox="0 0 56.7 56.7" style="enable-background:new 0 0 56.7 56.7;" xml:space="preserve">
<style type="text/css">
	.st0{fill:#0096D6;}
</style>
<path class="st0" d="M22.1,47.5V28.8c2-1.9,5.3-3.5,7.8-3.5c2.8,0,5.3,1.7,5.3,6.1V46c0,1-0.5,1.4-2,1.7L31.4,48
	c-0.5,0.2-0.9,0.5-1,0.8l-0.3,1.8c0,0.1,0.1,0.2,0.2,0.2H45c0.9,0,1-1.7,1-2.5c0-0.1-0.1-0.2-0.1-0.2l-4.7-0.7
	c0.1-6.4,0.2-11.3,0.2-16.4c0-7.1-4.1-10.5-9-10.5c-3.5,0-7.5,1.9-10.1,5c0.1-9.7,0.2-16.4,0.4-19.6c0-0.1-0.1-0.2-0.2-0.2l-10.5,1
	c-0.5,0.1-0.7,1.3-0.7,1.9c0,0.4,0,0.7,0.5,0.7h2.2c1.3,0,2.3,0.1,2.3,1.1V46c0,1-0.5,1.5-1.9,1.7L12,48c-0.6,0.2-1,0.5-1,0.8
	l-0.2,1.8c0,0.1,0.1,0.2,0.2,0.2h14.9c0.8,0,0.9-1.7,0.9-2.5c0-0.1-0.1-0.2-0.1-0.2L22.1,47.5z"/>
</svg>
