<?xml version="1.0" encoding="utf-8"?>
<!-- Generator: Adobe Illustrator 23.0.1, SVG Export Plug-In . SVG Version: 6.00 Build 0)  -->
<svg version="1.1" id="Vrstva_1" xmlns="http://www.w3.org/2000/svg" xmlns:xlink="http://www.w3.org/1999/xlink" x="0px" y="0px"
	 viewBox="0 0 112 112" style="enable-background:new 0 0 112 112;" xml:space="preserve">
<style type="text/css">
	.st0{fill:#0096D6;}
</style>
<path class="st0" d="M78.6,37.5c0-0.1-0.1-0.2-0.1-0.2H62.3c-0.8,0-1,1.8-1,2.6c0,0.1,0.1,0.2,0.2,0.2l4.7,0.6v14.8H45.5
	c0.1-6.6,0.1-10.3,0.2-13.3c0.1-0.9,0.7-1.6,2-1.7l2.2-0.3c0.7-0.1,0.9-0.4,1-0.9l0.3-1.7c0-0.1-0.1-0.2-0.2-0.2h-16
	c-0.9,0-1,1.8-1,2.6c0,0.1,0.1,0.2,0.2,0.2l4.8,0.6v33.5c0,1.1-0.4,1.4-2,1.6l-2.3,0.4c-0.5,0.2-0.9,0.6-1,0.9l-0.2,1.8
	c0,0.1,0.1,0.2,0.2,0.2h15.8c0.8,0,0.9-1.7,0.9-2.6c0-0.1-0.1-0.2-0.1-0.2l-4.7-0.5v-17h20.8v15.5c0,1.1-0.5,1.4-1.9,1.6L62,76.1
	c-0.5,0.2-0.9,0.6-1,0.9l-0.2,1.8c0,0.1,0.1,0.2,0.1,0.2h15.8c0.9,0,1-1.7,1-2.6c0-0.1-0.1-0.2-0.2-0.2l-4.7-0.5
	c0-20.6,0.1-28.3,0.2-33.5c0.1-0.9,0.6-1.6,2-1.7l2.3-0.3c0.7-0.1,1-0.4,1-0.9L78.6,37.5z"/>
</svg>
