<?xml version="1.0" encoding="utf-8"?>
<!-- Generator: Adobe Illustrator 23.0.1, SVG Export Plug-In . SVG Version: 6.00 Build 0)  -->
<svg version="1.1" id="Vrstva_1" xmlns="http://www.w3.org/2000/svg" xmlns:xlink="http://www.w3.org/1999/xlink" x="0px" y="0px"
	 viewBox="0 0 112 112" style="enable-background:new 0 0 112 112;" xml:space="preserve">
<style type="text/css">
	.st0{fill:#1B75BC;}
</style>
<path class="st0" d="M52.3,39c0,2.1,1.6,3.7,3.7,3.7c2.2,0,3.8-1.6,3.8-3.7c0-2-1.7-3.8-3.8-3.8C53.8,35.2,52.3,37,52.3,39"/>
<path class="st0" d="M50.9,53.3c1.2,0,2.4,0.1,2.4,1v19.9c0,1-0.4,1.4-2,1.7l-2.3,0.3c-0.5,0.2-0.9,0.5-1,0.8l-0.2,1.8
	c0,0.1,0.1,0.2,0.2,0.2h15.1c0.8,0,1-1.7,1-2.5c0-0.1-0.1-0.2-0.2-0.2l-4.7-0.6c0-14.9,0.1-21.5,0.4-26.6c0-0.1-0.1-0.2-0.2-0.2
	l-10.2,1.6c-0.7,0.2-0.8,1.7-0.8,2.5c0,0.1,0.1,0.2,0.2,0.2H50.9z"/>
</svg>
