<?xml version="1.0" encoding="utf-8"?>
<!-- Generator: Adobe Illustrator 23.0.1, SVG Export Plug-In . SVG Version: 6.00 Build 0)  -->
<svg version="1.1" id="Vrstva_1" xmlns="http://www.w3.org/2000/svg" xmlns:xlink="http://www.w3.org/1999/xlink" x="0px" y="0px"
	 viewBox="0 0 112 112" style="enable-background:new 0 0 112 112;" xml:space="preserve">
<style type="text/css">
	.st0{fill:none;}
	.st1{fill:#1B75BC;}
</style>
<g>
</g>
<path class="st0" d="M56,135.7"/>
<path class="st0" d="M57.1,135.1"/>
<path class="st1" d="M64.9,37.5c0-0.1,0-0.2-0.1-0.2H48.6c-0.9,0-1,1.8-1,2.6c0,0.1,0.1,0.2,0.2,0.2l4.8,0.6v33.5
	c0,1.1-0.4,1.4-2,1.6l-2.3,0.4c-0.5,0.2-0.9,0.6-1,0.9l-0.2,1.8c0,0.1,0.1,0.2,0.2,0.2h15.8c0.9,0,1-1.7,1-2.6
	c0-0.1-0.1-0.2-0.1-0.2l-4.8-0.5c0-20.6,0.1-28.3,0.2-33.5c0.1-0.8,0.7-1.6,2-1.7l2.3-0.3c0.7-0.1,0.9-0.4,1-0.9L64.9,37.5z"/>
</svg>
