<?xml version="1.0" encoding="utf-8"?>
<!-- Generator: Adobe Illustrator 23.0.1, SVG Export Plug-In . SVG Version: 6.00 Build 0)  -->
<svg version="1.1" id="Vrstva_1" xmlns="http://www.w3.org/2000/svg" xmlns:xlink="http://www.w3.org/1999/xlink" x="0px" y="0px"
	 viewBox="0 0 112 112" style="enable-background:new 0 0 112 112;" xml:space="preserve">
<style type="text/css">
	.st0{fill:#74B98A;}
</style>
<g>
	<path class="st0" d="M49.8,50.6c-0.7,0.2-0.8,1.7-0.8,2.5c0,0.1,0.1,0.2,0.2,0.2h2.3c1.2,0,2.3,0.1,2.3,1v26.7c0,5.2-1.6,7-4,7
		c-1.3,0-2.5-0.8-3.1-2.1c0-0.1-0.1-0.1-0.2-0.1c-2.2,0.3-3.4,1.6-3.4,3.4c0,2,1.4,3.4,3.9,3.4c5.3,0,12.8-7.9,12.8-16.9
		c0-11.6,0.1-21.5,0.4-26.5c0-0.1-0.1-0.2-0.2-0.2L49.8,50.6z"/>
	<path class="st0" d="M53.3,39.1c0,2.1,1.6,3.7,3.8,3.7c2,0,3.8-1.6,3.8-3.7c0-2-1.7-3.8-3.8-3.8C54.9,35.3,53.3,37.1,53.3,39.1"/>
</g>
</svg>
