<?xml version="1.0" encoding="utf-8"?>
<!-- Generator: Adobe Illustrator 23.0.1, SVG Export Plug-In . SVG Version: 6.00 Build 0)  -->
<svg version="1.1" id="Vrstva_1" xmlns="http://www.w3.org/2000/svg" xmlns:xlink="http://www.w3.org/1999/xlink" x="0px" y="0px"
	 viewBox="0 0 56.7 56.7" style="enable-background:new 0 0 56.7 56.7;" xml:space="preserve">
<style type="text/css">
	.st0{fill:#74B98A;}
	.st1{fill:none;}
</style>
<path class="st0" d="M26.2,15.3c-0.7,0.2-0.8,1.7-0.8,2.5c0,0.1,0.1,0.2,0.2,0.2h2.3c1.2,0,2.2,0.1,2.2,1v26.1c0,5-1.6,6.9-3.9,6.9
	c-1.2,0-2.5-0.8-3-2.1c0-0.1-0.1-0.1-0.2-0.1c-2.2,0.3-3.3,1.6-3.3,3.3c0,2,1.4,3.3,3.8,3.3c5.2,0,12.5-7.7,12.5-16.6
	c0-11.4,0.1-21,0.4-25.9c0-0.1-0.1-0.2-0.2-0.2L26.2,15.3z M29.6,4c0,2.1,1.6,3.6,3.7,3.6c2,0,3.7-1.6,3.7-3.6c0-2-1.7-3.8-3.7-3.8
	C31.2,0.3,29.6,2,29.6,4"/>
<path class="st1" d="M29.7,16.9"/>
<path class="st1" d="M29.7,16.9"/>
<path class="st1" d="M29.7,16.9"/>
<path class="st1" d="M29.7,16.9"/>
<path class="st1" d="M29.7,16.9"/>
<path class="st1" d="M29.7,16.9"/>
<path class="st1" d="M29.7,16.9"/>
<path class="st1" d="M29.7,16.9"/>
<path class="st1" d="M29.7,16.9"/>
<path class="st1" d="M29.7,16.9"/>
</svg>
