<?xml version="1.0" encoding="utf-8"?>
<!-- Generator: Adobe Illustrator 23.0.1, SVG Export Plug-In . SVG Version: 6.00 Build 0)  -->
<svg version="1.1" id="Vrstva_1" xmlns="http://www.w3.org/2000/svg" xmlns:xlink="http://www.w3.org/1999/xlink" x="0px" y="0px"
	 viewBox="0 0 56.7 56.7" style="enable-background:new 0 0 56.7 56.7;" xml:space="preserve">
<style type="text/css">
	.st0{fill:#74B98A;}
</style>
<path class="st0" d="M35.5,37.2c0-8,0.1-19.8,0.3-25.3c0.1-0.8,0.7-1.6,2-1.7L40,9.9c0.7-0.1,1-0.5,1-0.9l0.2-1.7
	c0-0.1-0.1-0.2-0.2-0.2H24.9c-0.8,0-1,1.8-1,2.6c0,0.1,0.2,0.2,0.2,0.2l4.7,0.6v30.2c0,3.9-1.7,5.7-5,5.7c-2.3,0-3.1-2.2-3.3-4.8
	c0-0.1-0.1-0.1-0.2-0.1c-2.5,0-5,1.3-5,3.8c0,2.7,1.1,4.4,6.8,4.4C29.7,49.7,35.5,45.1,35.5,37.2"/>
</svg>
