<?xml version="1.0" encoding="utf-8"?>
<!-- Generator: Adobe Illustrator 23.0.1, SVG Export Plug-In . SVG Version: 6.00 Build 0)  -->
<svg version="1.1" id="Vrstva_1" xmlns="http://www.w3.org/2000/svg" xmlns:xlink="http://www.w3.org/1999/xlink" x="0px" y="0px"
	 viewBox="0 0 56.7 56.7" style="enable-background:new 0 0 56.7 56.7;" xml:space="preserve">
<style type="text/css">
	.st0{fill:#7EC1BC;}
</style>
<path class="st0" d="M34.3,24.7l-10.9,10c0-14.9,0.2-24.7,0.5-28.7c0-0.1-0.1-0.2-0.2-0.2l-10.6,1c-0.4,0.1-0.7,1.3-0.7,1.9
	c0,0.4,0,0.7,0.5,0.7h2.2c1.3,0,2.3,0.1,2.3,1.1V46c0,1-0.5,1.4-1.9,1.7L13.2,48c-0.5,0.2-0.8,0.5-0.9,0.8l-0.2,1.8
	c0,0.1,0.1,0.2,0.2,0.2h14.4c0.9,0,1-1.7,1-2.5c0-0.1-0.1-0.2-0.2-0.2l-4.1-0.6V34.8l12.9,15.1c0.6,0.7,1.1,1,1.7,1h5.6
	c0.8,0,0.9-1.7,0.9-2.5c0-0.1-0.1-0.2-0.2-0.2c-1.3-0.2-2.5-0.7-3.1-1.4L29.6,32.9c2.7-2.5,5.9-5.2,8.4-7.1c0.9-0.6,1.7-1.1,2.7-1.3
	l2.2-0.2c0.8-0.1,0.9-0.4,1-0.9l0.3-1.7c0-0.1-0.1-0.2-0.2-0.2H31.4c-0.9,0-1,1.7-1,2.6c0,0.1,0.1,0.2,0.1,0.2L34.3,24.7z"/>
</svg>
