<?xml version="1.0" encoding="utf-8"?>
<!-- Generator: Adobe Illustrator 23.0.1, SVG Export Plug-In . SVG Version: 6.00 Build 0)  -->
<svg version="1.1" id="Vrstva_1" xmlns="http://www.w3.org/2000/svg" xmlns:xlink="http://www.w3.org/1999/xlink" x="0px" y="0px"
	 viewBox="0 0 112 112" style="enable-background:new 0 0 112 112;" xml:space="preserve">
<style type="text/css">
	.st0{fill:#7EC1BC;}
</style>
<path class="st0" d="M62.1,52.3L51,62.6c0-15.2,0.2-25.2,0.5-29.3c0-0.1-0.1-0.2-0.2-0.2l-10.8,1c-0.4,0.1-0.7,1.3-0.7,2
	c0,0.4,0,0.7,0.5,0.7h2.2c1.3,0,2.4,0.1,2.4,1.1v36.2c0,1-0.5,1.5-2,1.7l-2.4,0.3c-0.5,0.2-0.9,0.6-0.9,0.9l-0.2,1.8
	c0,0.1,0.1,0.2,0.2,0.2h14.7c0.9,0,1-1.8,1-2.6c0-0.1-0.1-0.2-0.2-0.2L51,75.6V62.6L64.2,78c0.6,0.7,1.1,1,1.8,1h5.8
	c0.8,0,0.9-1.7,0.9-2.6c0-0.1-0.1-0.2-0.2-0.2c-1.3-0.2-2.5-0.7-3.1-1.5l-12-14.1c2.8-2.6,6-5.3,8.6-7.2c0.9-0.6,1.8-1.2,2.8-1.3
	l2.3-0.2c0.8-0.1,0.9-0.4,1-0.9l0.3-1.8c0-0.1-0.1-0.2-0.2-0.2H59.1c-0.9,0-1,1.8-1,2.6c0,0.1,0.1,0.2,0.1,0.2L62.1,52.3z"/>
</svg>
