<?xml version="1.0" encoding="utf-8"?>
<!-- Generator: Adobe Illustrator 23.0.1, SVG Export Plug-In . SVG Version: 6.00 Build 0)  -->
<svg version="1.1" id="Vrstva_1" xmlns="http://www.w3.org/2000/svg" xmlns:xlink="http://www.w3.org/1999/xlink" x="0px" y="0px"
	 viewBox="0 0 56.7 56.7" style="enable-background:new 0 0 56.7 56.7;" xml:space="preserve">
<style type="text/css">
	.st0{fill:#7EC1BC;}
</style>
<path class="st0" d="M27.8,25l13.3-12.9c0.7-0.6,1.5-1.1,2.5-1.3l3.1-0.5c0.6-0.1,0.9-0.5,1-0.9l0.2-1.7c0-0.1-0.1-0.2-0.2-0.2H33.2
	c-0.9,0-1,1.7-1,2.6c0,0.1,0.1,0.2,0.1,0.2l4.7,0.8L20.9,27.8L38,47.9c0.8,1,1.3,1.3,2.7,1.3h6c0.9,0,1.3-1.2,1.3-2.5l-0.2-0.2
	c-1.3-0.2-2.7-0.8-3.4-1.7L27.8,25z"/>
<path class="st0" d="M26.5,7.7c0-0.1,0-0.2-0.1-0.2H10.3c-0.9,0-1,1.8-1,2.6c0,0.1,0.1,0.2,0.1,0.2l4.7,0.6v33.5
	c0,1.1-0.4,1.4-1.9,1.6L10,46.3c-0.5,0.2-1,0.6-1,0.9L8.7,49c0,0.1,0.1,0.2,0.2,0.2h15.8c0.9,0,1-1.7,1-2.6c0-0.1-0.1-0.2-0.1-0.2
	l-4.7-0.5c0-20.6,0.1-28.3,0.2-33.5c0.1-0.8,0.7-1.6,1.9-1.7l2.3-0.3c0.7-0.1,0.9-0.4,1-0.9L26.5,7.7z"/>
</svg>
