<?xml version="1.0" encoding="utf-8"?>
<!-- Generator: Adobe Illustrator 23.0.1, SVG Export Plug-In . SVG Version: 6.00 Build 0)  -->
<svg version="1.1" id="Vrstva_1" xmlns="http://www.w3.org/2000/svg" xmlns:xlink="http://www.w3.org/1999/xlink" x="0px" y="0px"
	 viewBox="0 0 56.7 56.7" style="enable-background:new 0 0 56.7 56.7;" xml:space="preserve">
<style type="text/css">
	.st0{fill:#008EA3;}
</style>
<path class="st0" d="M31.5,47.5c0-22.3,0.1-36.4,0.5-41.5c0-0.1-0.1-0.2-0.2-0.2l-10.5,1c-0.5,0.1-0.7,1.3-0.7,1.9
	c0,0.4,0,0.7,0.5,0.7h2.2c1.3,0,2.5,0.1,2.5,1.1V46c0,1-0.5,1.4-2,1.7L21.4,48c-0.6,0.2-1,0.5-1,0.8l-0.2,1.8c0,0.1,0.1,0.2,0.2,0.2
	h15.1c0.8,0,0.9-1.7,0.9-2.5c0-0.1-0.1-0.2-0.2-0.2L31.5,47.5z"/>
</svg>
