<?xml version="1.0" encoding="utf-8"?>
<!-- Generator: Adobe Illustrator 23.0.1, SVG Export Plug-In . SVG Version: 6.00 Build 0)  -->
<svg version="1.1" id="Vrstva_1" xmlns="http://www.w3.org/2000/svg" xmlns:xlink="http://www.w3.org/1999/xlink" x="0px" y="0px"
	 viewBox="0 0 56.7 56.7" style="enable-background:new 0 0 56.7 56.7;" xml:space="preserve">
<style type="text/css">
	.st0{fill:#008EA3;}
</style>
<path class="st0" d="M41.9,37.4c-1.7,5.1-2.7,8.2-10.3,8.2h-7.1c-0.1-11.4-0.1-22.2,0.2-33.2c0.1-0.8,0.7-1.5,2-1.7l2.3-0.3
	c0.7-0.1,0.9-0.4,1-0.9l0.2-1.7c0-0.1,0-0.2-0.1-0.2H14.1c-0.9,0-1,1.8-1,2.6c0,0.1,0.1,0.2,0.1,0.2l4.7,0.6v33.5
	c0,1.1-0.5,1.4-2,1.6l-2.2,0.4c-0.7,0.2-1,0.5-1,0.9L12.5,49c0,0.1,0.1,0.2,0.2,0.2h30.2c0.1,0,0.1-0.1,0.1-0.2l1.1-10.3
	c-0.1-1-1.1-1.5-2-1.5C42.1,37.2,41.9,37.3,41.9,37.4"/>
</svg>
