<?xml version="1.0" encoding="utf-8"?>
<!-- Generator: Adobe Illustrator 23.0.1, SVG Export Plug-In . SVG Version: 6.00 Build 0)  -->
<svg version="1.1" id="Vrstva_1" xmlns="http://www.w3.org/2000/svg" xmlns:xlink="http://www.w3.org/1999/xlink" x="0px" y="0px"
	 viewBox="0 0 112 112" style="enable-background:new 0 0 112 112;" xml:space="preserve">
<style type="text/css">
	.st0{fill:#FAAB56;}
</style>
<g>
</g>
<path class="st0" d="M32,50.8c-0.7,0.2-0.8,1.7-0.8,2.5c0,0.1,0.1,0.2,0.2,0.2h2.3c1.2,0,2.4,0.1,2.4,1v19.8c0,1-0.5,1.4-2,1.7
	l-2.3,0.3c-0.5,0.1-0.9,0.4-0.9,0.8l-0.3,1.8c0,0.1,0.1,0.2,0.2,0.2h14.2c0.8,0,1-1.7,1-2.5c0-0.1-0.1-0.2-0.2-0.2l-3.8-0.6
	c0-8.9,0-14.3,0.1-18.8c1.8-2,4.6-3.3,6.7-3.3c2.4,0,4.8,1.7,4.8,6v14.6c0,1-0.5,1.4-2.1,1.7l-1.7,0.3c-0.5,0.2-1,0.5-1,0.8
	l-0.3,1.8c0,0.1,0.1,0.2,0.2,0.2h13.4c0.9,0,1-1.7,1-2.4c0-0.1-0.1-0.2-0.2-0.2l-3.9-0.7c0.1-6,0.3-11,0.3-16.3c0-0.7,0-1.8-0.1-2.3
	c1.8-2.2,4.8-3.5,6.7-3.5c2.4,0,4.6,1.7,4.6,6v14.6c0,1-0.5,1.4-1.9,1.7L67,76.2c-0.7,0.2-0.9,0.4-1,0.8l-0.2,1.8
	c0,0.1,0.1,0.2,0.2,0.2h14.5c0.8,0,1-1.7,1-2.4c0-0.1-0.1-0.2-0.2-0.2l-4.7-0.7c0.1-6,0.2-11,0.2-16.3c0-7.1-3.7-10.4-8.1-10.4
	c-3.5,0-7.1,1.5-9.9,5.6c-1.3-3.8-4.2-5.6-7.5-5.6c-3,0-6.6,1.7-9.2,4.8c0-1.5,0.1-3.3,0.2-4.4c0-0.1-0.1-0.2-0.2-0.2L32,50.8z"/>
</svg>
