<?xml version="1.0" encoding="utf-8"?>
<!-- Generator: Adobe Illustrator 23.0.1, SVG Export Plug-In . SVG Version: 6.00 Build 0)  -->
<svg version="1.1" id="Vrstva_1" xmlns="http://www.w3.org/2000/svg" xmlns:xlink="http://www.w3.org/1999/xlink" x="0px" y="0px"
	 viewBox="0 0 56.7 56.7" style="enable-background:new 0 0 56.7 56.7;" xml:space="preserve">
<style type="text/css">
	.st0{fill:#FAAB56;}
</style>
<path class="st0" d="M8.2,17.2c-0.6,0.1-0.7,1.5-0.7,2.1c0,0.1,0.1,0.2,0.2,0.2h1.9c1,0,2,0,2,0.8v16.6c0,0.9-0.4,1.2-1.6,1.4
	L8,38.6c-0.4,0.1-0.8,0.3-0.8,0.7L7,40.8c0,0.1,0.1,0.1,0.2,0.1H19c0.7,0,0.8-1.5,0.8-2.1c0,0-0.1-0.2-0.1-0.2l-3.2-0.5
	c0-7.4,0-12.1,0.1-15.8c1.6-1.7,3.9-2.8,5.6-2.8c2,0,4,1.5,4,5v12.3c0,0.9-0.4,1.2-1.8,1.4l-1.4,0.3c-0.4,0.1-0.8,0.5-0.8,0.7
	L22,40.8c0,0.1,0.1,0.1,0.2,0.1h11.3c0.8,0,0.9-1.4,0.9-2c0,0-0.1-0.2-0.1-0.2l-3.3-0.5c0.1-5,0.3-9.3,0.3-13.7c0-0.6,0-1.5-0.1-2
	c1.6-1.8,4-3,5.6-3c2.1,0,3.9,1.5,3.9,5v12.3c0,0.9-0.4,1.2-1.6,1.4l-1.5,0.3c-0.6,0.1-0.8,0.3-0.8,0.7l-0.2,1.5
	c0,0.1,0.1,0.1,0.2,0.1h12.2c0.7,0,0.8-1.4,0.8-2c0,0-0.1-0.2-0.2-0.2l-3.9-0.5c0.1-5,0.2-9.3,0.2-13.7c0-6-3.1-8.8-6.8-8.8
	c-2.9,0-6,1.3-8.3,4.7c-1.1-3.2-3.6-4.7-6.3-4.7c-2.5,0-5.6,1.4-7.8,4c0-1.3,0.1-2.8,0.2-3.7c0-0.1-0.1-0.2-0.1-0.2L8.2,17.2z"/>
</svg>
