<?xml version="1.0" encoding="utf-8"?>
<!-- Generator: Adobe Illustrator 23.0.1, SVG Export Plug-In . SVG Version: 6.00 Build 0)  -->
<svg version="1.1" id="Vrstva_1" xmlns="http://www.w3.org/2000/svg" xmlns:xlink="http://www.w3.org/1999/xlink" x="0px" y="0px"
	 viewBox="0 0 112 112" style="enable-background:new 0 0 112 112;" xml:space="preserve">
<style type="text/css">
	.st0{fill:#FAAB56;}
</style>
<g>
</g>
<path class="st0" d="M68.1,37.5c-0.1,0-0.2,0.1-0.2,0.2c-2,6.4-8.6,24.9-11.8,31.9c-2.3-7.8-8.3-24.9-10.9-31.9
	c0-0.1-0.1-0.2-0.1-0.2H33.4c-0.9,0-1,1.8-1,2.6c0,0.1,0.1,0.2,0.1,0.2l4.7,0.6c-0.5,7.1-2,25.5-2.8,33.3c-0.2,1-0.7,1.5-2.1,1.6
	L30,76.1c-0.5,0.2-1,0.5-1,0.9l-0.2,1.8c0,0.1,0.1,0.2,0.2,0.2h13.2c0.8,0,1-1.7,1-2.6c0-0.1-0.1-0.2-0.2-0.2l-4.7-0.5
	c0.2-9.9,1.3-23,2-32.5c3.9,10.4,10.3,28.2,12.5,35.7c0,0.1,0.1,0.1,0.2,0.1c1.1,0,3-0.2,3.4-0.9c3.4-8.3,9.8-25.4,12.9-34.4
	l2.4,30.5c0.1,0.9-0.6,1.4-1.9,1.6l-2.3,0.4c-0.5,0.2-0.9,0.6-0.9,0.9l-0.2,1.8c0,0.1,0.1,0.2,0.2,0.2h15.7c0.8,0,0.9-1.7,0.8-2.6
	c0-0.1-0.1-0.2-0.2-0.2l-4.8-0.5c-0.9-9.9-2.4-28.1-2.6-33.3c0.1-1.1,0.5-1.5,2-1.7l2.3-0.3c0.6-0.1,0.8-0.4,0.9-0.9l0.2-1.7
	c0-0.1,0-0.2-0.2-0.2H68.1z"/>
</svg>
