<?xml version="1.0" encoding="utf-8"?>
<!-- Generator: Adobe Illustrator 23.0.1, SVG Export Plug-In . SVG Version: 6.00 Build 0)  -->
<svg version="1.1" id="Vrstva_1" xmlns="http://www.w3.org/2000/svg" xmlns:xlink="http://www.w3.org/1999/xlink" x="0px" y="0px"
	 viewBox="0 0 56.7 56.7" style="enable-background:new 0 0 56.7 56.7;" xml:space="preserve">
<style type="text/css">
	.st0{fill:#788A69;}
</style>
<path class="st0" d="M12.3,10.4v33.5c0,1.1-0.4,1.4-1.9,1.6L8,45.9c-0.5,0.2-0.9,0.6-1,0.9l-0.2,1.8c0,0.1,0.1,0.2,0.2,0.2h13.3
	c0.8,0,1-1.7,1-2.6c0-0.1-0.1-0.2-0.1-0.2l-4.9-0.5c0-12.7,0.1-23.2,0.2-30.1c6.8,10.5,16,23.2,23.6,34.2c0,0.1,0.2,0.1,0.2,0.1
	c2.6,0,3.4-0.8,3.4-1.6l0.6-36.2c0-1.1,0.5-1.6,2-1.7l2.3-0.3c0.7-0.1,1-0.5,1-0.9l0.2-1.7c0-0.1-0.1-0.2-0.2-0.2H36.1
	c-0.8,0-1,1.8-1,2.6c0,0.1,0.1,0.2,0.2,0.2l4.9,0.6v28.1c-7.6-10.7-14.3-21-20.8-31.4C19.3,7,19.2,7,19.2,7H8.4c-0.9,0-1,1.8-1,2.6
	c0,0.1,0.1,0.2,0.1,0.2L12.3,10.4z"/>
</svg>
