<?xml version="1.0" encoding="utf-8"?>
<!-- Generator: Adobe Illustrator 23.0.1, SVG Export Plug-In . SVG Version: 6.00 Build 0)  -->
<svg version="1.1" id="Vrstva_1" xmlns="http://www.w3.org/2000/svg" xmlns:xlink="http://www.w3.org/1999/xlink" x="0px" y="0px"
	 viewBox="0 0 56.7 56.7" style="enable-background:new 0 0 56.7 56.7;" xml:space="preserve">
<style type="text/css">
	.st0{fill:#B2B42F;}
</style>
<path class="st0" d="M27.4,12.1l-6.8-5.6c-0.1-0.2-0.4-0.2-0.6-0.2c-0.4,0-1.2,0.2-1.6,0.8c-0.1,0.1-0.1,0.2,0,0.2l7.3,10
	c0.3,0.4,0.7,0.5,1.7,0.5c1.2,0,1.6-0.2,1.9-0.5l7.1-10c0,0,0.1-0.1,0.1-0.1c-0.2-0.5-1-0.8-1.5-0.8c-0.2,0-0.4,0.1-0.7,0.2
	L27.4,12.1z"/>
<path class="st0" d="M12.2,22c-0.6,0.2-0.8,1.7-0.8,2.5c0,0.1,0.1,0.2,0.2,0.2h2.3c1.3,0,2.4,0.1,2.4,1v19.9c0,1-0.5,1.4-2,1.7
	l-2.2,0.3c-0.5,0.1-0.9,0.5-1,0.8l-0.2,1.8c0,0.1,0.1,0.2,0.2,0.2h14.9c0.7,0,1-1.7,1-2.5c0-0.1-0.1-0.2-0.2-0.2l-4.4-0.6
	c0-8.9,0-14.5,0.1-19c1.8-2,4.8-3.3,7.3-3.3c2.8,0,5.4,1.7,5.4,6.1v14.8c0,1-0.5,1.4-2,1.7l-1.8,0.3c-0.6,0.1-0.8,0.4-0.9,0.8
	l-0.2,1.8c0,0.1,0,0.2,0.1,0.2h14.6c0.9,0,1-1.7,1-2.5c0-0.1-0.1-0.2-0.2-0.2L41,47.2c0.1-6.4,0.2-11.3,0.2-16.4
	c0-7.1-4-10.5-9.1-10.5c-3.4,0-7.1,1.7-9.7,4.8c0-1.5,0.1-3.3,0.2-4.4c0-0.1-0.1-0.2-0.2-0.2L12.2,22z"/>
</svg>
