<?xml version="1.0" encoding="utf-8"?>
<!-- Generator: Adobe Illustrator 23.0.1, SVG Export Plug-In . SVG Version: 6.00 Build 0)  -->
<svg version="1.1" id="Vrstva_1" xmlns="http://www.w3.org/2000/svg" xmlns:xlink="http://www.w3.org/1999/xlink" x="0px" y="0px"
	 viewBox="0 0 112 112" style="enable-background:new 0 0 112 112;" xml:space="preserve">
<style type="text/css">
	.st0{fill:#B2B42F;}
</style>
<g>
	<path class="st0" d="M56.8,30.5l-6.9-4.2v0.1c-0.2-0.2-0.4-0.2-0.7-0.2c-0.5,0-1,0.2-1.4,0.8c-0.1,0.1-0.1,0.2,0,0.2l7.3,8.1
		c0.2,0.2,0.8,0.5,1.6,0.5c1.1,0,1.4-0.1,1.8-0.5l7.2-8.1c0.1-0.1,0.1-0.1,0.1-0.2c-0.2-0.5-0.9-0.8-1.4-0.8c-0.2,0-0.5,0.2-0.8,0.3
		L56.8,30.5z"/>
	<path class="st0" d="M39.9,40.8v33.5c0,1.1-0.4,1.4-1.9,1.6l-2.4,0.4c-0.5,0.2-0.9,0.6-1,0.9l-0.2,1.8c0,0.1,0.1,0.2,0.2,0.2h13.3
		c0.8,0,1-1.7,1-2.6c0-0.1-0.1-0.2-0.1-0.2l-4.9-0.5c0-12.7,0.1-23.2,0.2-30.1c6.8,10.5,16,23.2,23.6,34.2c0,0.1,0.2,0.1,0.2,0.1
		c2.6,0,3.4-0.8,3.4-1.6L72,42.3c0-1.1,0.5-1.6,2-1.7l2.3-0.3c0.7-0.1,1-0.5,1-0.9l0.2-1.7c0-0.1-0.1-0.2-0.2-0.2H63.7
		c-0.8,0-1,1.8-1,2.6c0,0.1,0.1,0.2,0.2,0.2l4.9,0.6v28.1c-7.6-10.7-14.3-21-20.8-31.4c0-0.1-0.1-0.1-0.2-0.1H36c-0.9,0-1,1.8-1,2.6
		c0,0.1,0.1,0.2,0.1,0.2L39.9,40.8z"/>
</g>
</svg>
