<?xml version="1.0" encoding="utf-8"?>
<!-- Generator: Adobe Illustrator 23.0.1, SVG Export Plug-In . SVG Version: 6.00 Build 0)  -->
<svg version="1.1" id="Vrstva_1" xmlns="http://www.w3.org/2000/svg" xmlns:xlink="http://www.w3.org/1999/xlink" x="0px" y="0px"
	 viewBox="0 0 56.7 56.7" style="enable-background:new 0 0 56.7 56.7;" xml:space="preserve">
<style type="text/css">
	.st0{fill:#55387E;}
</style>
<path class="st0" d="M28.3,47.1l-4.7-0.6v-9c1.2,0.3,2.9,0.5,4.1,0.5c10.4,0,16.6-7.3,16.6-17.1c0-8.8-4.6-14-11.6-14
	c-2.9,0-6,1.3-8.9,3.7c0-1.4,0.2-2.8,0.2-3.3c0-0.1-0.1-0.2-0.2-0.2L13.7,8.7c-0.7,0.2-0.8,1.7-0.8,2.5c0,0.1,0.1,0.2,0.2,0.2h2.3
	c1.2,0,2.3,0.1,2.3,1v32.5c0,1.1-0.4,1.5-1.9,1.7L13.4,47c-0.5,0.1-0.8,0.5-0.9,0.9l-0.2,1.7c0,0.1,0.1,0.2,0.2,0.2h15.1
	c0.8,0,0.9-1.7,0.9-2.5L28.3,47.1z M29.5,11.4c5.5,0,8.8,4.2,8.8,12.1c0,7.1-3.5,11.6-9.4,11.6c-1.7,0-4.1-0.7-5.2-1.3
	c0.1-7.4,0.2-19,0.2-20.4C25.4,12,27.6,11.4,29.5,11.4"/>
</svg>
