<?xml version="1.0" encoding="utf-8"?>
<!-- Generator: Adobe Illustrator 23.0.1, SVG Export Plug-In . SVG Version: 6.00 Build 0)  -->
<svg version="1.1" id="Vrstva_1" xmlns="http://www.w3.org/2000/svg" xmlns:xlink="http://www.w3.org/1999/xlink" x="0px" y="0px"
	 viewBox="0 0 112 112" style="enable-background:new 0 0 112 112;" xml:space="preserve">
<style type="text/css">
	.st0{fill:#55387E;}
</style>
<path class="st0" d="M56,88.1l-4.7-0.6v-9c1.2,0.3,2.9,0.5,4.1,0.5C65.8,79,72,71.8,72,61.9c0-8.8-4.6-14-11.6-14
	c-2.9,0-6,1.3-8.9,3.7c0-1.4,0.2-2.8,0.2-3.3c0-0.1-0.1-0.2-0.2-0.2l-10.2,1.6c-0.7,0.2-0.8,1.7-0.8,2.5c0,0.1,0.1,0.2,0.2,0.2H43
	c1.2,0,2.3,0.1,2.3,1v32.5c0,1.1-0.4,1.5-1.9,1.7L41.1,88c-0.5,0.1-0.8,0.5-0.9,0.9L40,90.6c0,0.1,0.1,0.2,0.2,0.2h15.1
	c0.8,0,0.9-1.7,0.9-2.5L56,88.1z M57.1,52.4c5.5,0,8.8,4.2,8.8,12.1c0,7.1-3.5,11.6-9.4,11.6c-1.7,0-4.1-0.7-5.2-1.3
	c0.1-7.4,0.2-19,0.2-20.4C53.1,53,55.2,52.4,57.1,52.4"/>
</svg>
