<?xml version="1.0" encoding="utf-8"?>
<!-- Generator: Adobe Illustrator 23.0.1, SVG Export Plug-In . SVG Version: 6.00 Build 0)  -->
<svg version="1.1" id="Vrstva_1" xmlns="http://www.w3.org/2000/svg" xmlns:xlink="http://www.w3.org/1999/xlink" x="0px" y="0px"
	 viewBox="0 0 112 112" style="enable-background:new 0 0 112 112;" xml:space="preserve">
<style type="text/css">
	.st0{fill:#55387E;}
</style>
<path class="st0" d="M51.3,57.9c0.1-6.4,0.1-12.5,0.2-15.8c0.1-0.9,1.1-1.5,4.2-1.5c7.4,0,9.8,3.8,9.8,8.5c0,6-2.5,8.8-11.3,8.8
	H51.3z M72.8,48.3c0-5.3-3.8-11-15.7-11H40.8c-0.9,0-1,1.8-1,2.6c0,0.1,0.1,0.2,0.1,0.2l4.7,0.6v33.5c0,1.1-0.5,1.4-2,1.6l-2.2,0.4
	c-0.7,0.2-1,0.5-1,0.9l-0.2,1.8c0,0.1,0.1,0.2,0.2,0.2h15.8c0.9,0,1-1.7,1-2.6c0-0.1-0.1-0.2-0.1-0.2l-4.8-0.5V60.9h4.1
	C66.1,60.9,72.8,56.3,72.8,48.3"/>
</svg>
