<?xml version="1.0" encoding="utf-8"?>
<!-- Generator: Adobe Illustrator 23.0.1, SVG Export Plug-In . SVG Version: 6.00 Build 0)  -->
<svg version="1.1" id="Vrstva_1" xmlns="http://www.w3.org/2000/svg" xmlns:xlink="http://www.w3.org/1999/xlink" x="0px" y="0px"
	 viewBox="0 0 56.7 56.7" style="enable-background:new 0 0 56.7 56.7;" xml:space="preserve">
<style type="text/css">
	.st0{fill:#00B0D8;}
</style>
<path class="st0" d="M43.9,47.1l-4.7-0.6V10C36.3,8,33.2,6.9,29,6.9c-9.7,0-16.3,7.7-16.3,17c0,8.9,5.6,14.1,12.1,14.1
	c3,0,6.2-1.2,8.5-2.6v9.4c0,1.1-0.5,1.5-1.9,1.7L28.9,47c-0.5,0.1-0.8,0.5-0.9,0.9l-0.2,1.7c0,0.1,0.1,0.2,0.2,0.2h15
	c0.9,0,1-1.7,1-2.5L43.9,47.1z M28.1,10.1c2.9,0,5.2,1.1,5.2,2.8v20c-1.7,0.4-3.4,0.7-4.7,0.7c-5.6,0-9.8-3.1-9.8-12
	C18.7,14.1,22.8,10.1,28.1,10.1"/>
</svg>
