<?xml version="1.0" encoding="utf-8"?>
<!-- Generator: Adobe Illustrator 23.0.1, SVG Export Plug-In . SVG Version: 6.00 Build 0)  -->
<svg version="1.1" id="Vrstva_1" xmlns="http://www.w3.org/2000/svg" xmlns:xlink="http://www.w3.org/1999/xlink" x="0px" y="0px"
	 viewBox="0 0 112 112" style="enable-background:new 0 0 112 112;" xml:space="preserve">
<style type="text/css">
	.st0{fill:#00B0D8;}
</style>
<path class="st0" d="M53.6,39.8c8.8,0,14,8.8,14,21c0,8.3-3.5,16.4-11.6,16.4c-8.9,0-14.2-8.5-14.2-20.8
	C41.8,48,45.6,39.8,53.6,39.8 M55.2,36.7c-12.8,0-20,10.6-20,22c0,10,5.3,20.6,17.2,21.4c6.9,8.2,14,12.9,21.8,12.9
	c2.2,0,2.7-1.2,2.7-2.5c0-0.1-0.1-0.2-0.2-0.2c-3.4,0-12.5-5.1-16.9-10.9C69.7,76.6,74.3,66.5,74.3,57
	C74.3,46.5,68.3,36.7,55.2,36.7"/>
</svg>
