<?xml version="1.0" encoding="utf-8"?>
<!-- Generator: Adobe Illustrator 23.0.1, SVG Export Plug-In . SVG Version: 6.00 Build 0)  -->
<svg version="1.1" id="Vrstva_1" xmlns="http://www.w3.org/2000/svg" xmlns:xlink="http://www.w3.org/1999/xlink" x="0px" y="0px"
	 viewBox="0 0 56.7 56.7" style="enable-background:new 0 0 56.7 56.7;" xml:space="preserve">
<style type="text/css">
	.st0{fill:#00B0D8;}
</style>
<path class="st0" d="M25.9,3.3c8.8,0,14,8.8,14,21c0,8.3-3.5,16.4-11.6,16.4c-8.9,0-14.2-8.5-14.2-20.8C14.1,11.5,17.9,3.3,25.9,3.3
	 M27.5,0.2c-12.8,0-20,10.6-20,22c0,10,5.3,20.6,17.2,21.4c6.9,8.2,14,12.9,21.8,12.9c2.2,0,2.7-1.2,2.7-2.5c0-0.1-0.1-0.2-0.2-0.2
	c-3.4,0-12.5-5.1-16.9-10.9C42.1,40,46.6,30,46.6,20.5C46.6,10,40.6,0.2,27.5,0.2"/>
</svg>
