<?xml version="1.0" encoding="utf-8"?>
<!-- Generator: Adobe Illustrator 23.0.1, SVG Export Plug-In . SVG Version: 6.00 Build 0)  -->
<svg version="1.1" id="Vrstva_1" xmlns="http://www.w3.org/2000/svg" xmlns:xlink="http://www.w3.org/1999/xlink" x="0px" y="0px"
	 viewBox="0 0 56.7 56.7" style="enable-background:new 0 0 56.7 56.7;" xml:space="preserve">
<style type="text/css">
	.st0{fill:#262262;}
</style>
<path class="st0" d="M16.6,15c-0.7,0.2-0.8,1.7-0.8,2.5c0,0.1,0.1,0.2,0.2,0.2h2.9c1.2,0,2.3,0.1,2.3,1v19.9c0,1-0.5,1.4-1.9,1.7
	l-2.2,0.3c-0.7,0.2-1,0.4-1.1,0.8l-0.2,1.8c0,0.1,0.1,0.2,0.2,0.2h16.5c0.6,0,0.9-1.7,0.9-2.5c0-0.1,0-0.2-0.1-0.2l-6.1-0.6
	c0-8.9,0-13.7,0.1-18.2c1.7-2,4.1-3.5,6.5-3.5c1.4,0,2.6,0.7,2.6,2.8c0,0.2,0.1,0.2,0.1,0.2c3.1,0,4.4-1.7,4.4-4.2
	c0-2.2-1.1-4-4.9-4c-3.4,0-6.4,2.6-8.9,5.8v-5.5c0-0.1-0.1-0.2-0.2-0.2L16.6,15z"/>
</svg>
