<?xml version="1.0" encoding="utf-8"?>
<!-- Generator: Adobe Illustrator 23.0.1, SVG Export Plug-In . SVG Version: 6.00 Build 0)  -->
<svg version="1.1" id="Vrstva_1" xmlns="http://www.w3.org/2000/svg" xmlns:xlink="http://www.w3.org/1999/xlink" x="0px" y="0px"
	 viewBox="0 0 112 112" style="enable-background:new 0 0 112 112;" xml:space="preserve">
<style type="text/css">
	.st0{fill:#262262;}
</style>
<g>
</g>
<path class="st0" d="M65.7,77.9c0.8,1,1.3,1.3,2.8,1.3h5.9c0.9,0,1.3-1.2,1.3-2.5l-0.2-0.2c-1.3-0.2-2.8-0.8-3.4-1.7l-12.7-16
	c6.7-1.7,10.4-5.2,10.4-10.8c0-5.3-3.8-10.6-15.6-10.6H37.9c-0.9,0-1,1.8-1,2.6c0,0.1,0.1,0.2,0.1,0.2l4.7,0.6v33.5
	c0,1.1-0.4,1.4-1.9,1.6l-2.3,0.4c-0.5,0.2-1,0.6-1,0.9L36.3,79c0,0.1,0.1,0.2,0.2,0.2h15.8c0.9,0,1-1.7,1-2.6c0-0.1-0.1-0.2-0.1-0.2
	l-4.7-0.5V60.5c1.3-0.1,2.6-0.3,3.9-0.3L65.7,77.9z M48.4,57.2c0.1-6.4,0.1-11.9,0.2-14.9c0.1-0.9,1.1-1.6,4.1-1.6
	c7.1,0,9.8,3.5,9.8,8.2c0,5.4-2.3,8.4-11.3,8.4H48.4z"/>
</svg>
