<?xml version="1.0" encoding="utf-8"?>
<!-- Generator: Adobe Illustrator 23.0.1, SVG Export Plug-In . SVG Version: 6.00 Build 0)  -->
<svg version="1.1" id="Vrstva_1" xmlns="http://www.w3.org/2000/svg" xmlns:xlink="http://www.w3.org/1999/xlink" x="0px" y="0px"
	 viewBox="0 0 112 112" style="enable-background:new 0 0 112 112;" xml:space="preserve">
<style type="text/css">
	.st0{fill:#240C00;}
</style>
<g>
	<path class="st0" d="M56.1,40.6L49.2,35c-0.1-0.2-0.4-0.2-0.6-0.2c-0.4,0-1.2,0.2-1.6,0.8c-0.1,0.1-0.1,0.2,0,0.2l7.3,10
		c0.3,0.4,0.7,0.5,1.7,0.5c1.2,0,1.6-0.2,1.9-0.5l7.1-10c0,0,0.1-0.1,0.1-0.1c-0.2-0.5-1-0.8-1.5-0.8c-0.2,0-0.4,0.1-0.7,0.2
		L56.1,40.6z"/>
	<path class="st0" d="M44.3,50.6c-0.7,0.2-0.8,1.7-0.8,2.5c0,0.1,0.1,0.2,0.2,0.2h2.9c1.2,0,2.3,0.1,2.3,1v19.9c0,1-0.5,1.4-1.9,1.7
		l-2.2,0.3c-0.7,0.2-1,0.4-1.1,0.8l-0.2,1.8c0,0.1,0.1,0.2,0.2,0.2h16.5c0.6,0,0.9-1.7,0.9-2.5c0-0.1,0-0.2-0.1-0.2l-6.1-0.6
		c0-8.9,0-13.7,0.1-18.2c1.7-2,4.1-3.5,6.5-3.5c1.4,0,2.6,0.7,2.6,2.8c0,0.2,0.1,0.2,0.1,0.2c3.1,0,4.4-1.7,4.4-4.2
		c0-2.2-1.1-4-4.9-4c-3.4,0-6.4,2.6-8.9,5.8v-5.5c0-0.1-0.1-0.2-0.2-0.2L44.3,50.6z"/>
</g>
</svg>
