<?xml version="1.0" encoding="utf-8"?>
<!-- Generator: Adobe Illustrator 23.0.1, SVG Export Plug-In . SVG Version: 6.00 Build 0)  -->
<svg version="1.1" id="Vrstva_1" xmlns="http://www.w3.org/2000/svg" xmlns:xlink="http://www.w3.org/1999/xlink" x="0px" y="0px"
	 viewBox="0 0 56.7 56.7" style="enable-background:new 0 0 56.7 56.7;" xml:space="preserve">
<style type="text/css">
	.st0{fill:#240C00;}
</style>
<path class="st0" d="M26.7,6.2L19.8,2v0.1c-0.2-0.2-0.4-0.2-0.7-0.2c-0.5,0-1,0.2-1.4,0.8c-0.1,0.1-0.1,0.2,0,0.2l7.3,8.1
	c0.2,0.2,0.8,0.5,1.6,0.5c1.1,0,1.4-0.1,1.8-0.5l7.2-8.1c0.1-0.1,0.1-0.1,0.1-0.2c-0.2-0.5-0.9-0.8-1.4-0.8c-0.2,0-0.5,0.2-0.8,0.3
	L26.7,6.2z M38,53.5c0.8,1,1.3,1.3,2.8,1.3h5.9c0.9,0,1.3-1.2,1.3-2.5l-0.2-0.2c-1.3-0.2-2.8-0.8-3.4-1.7l-12.7-16
	c6.7-1.7,10.4-5.2,10.4-10.8c0-5.3-3.8-10.6-15.6-10.6H10.2c-0.9,0-1,1.8-1,2.6c0,0.1,0.1,0.2,0.1,0.2l4.7,0.6V50
	c0,1.1-0.4,1.4-1.9,1.6L9.9,52c-0.5,0.2-1,0.6-1,0.9l-0.2,1.8c0,0.1,0.1,0.2,0.2,0.2h15.8c0.9,0,1-1.7,1-2.6c0-0.1-0.1-0.2-0.1-0.2
	l-4.7-0.5V36.1c1.3-0.1,2.6-0.3,3.9-0.3L38,53.5z M20.8,32.9c0.1-6.4,0.1-11.9,0.2-14.9c0.1-0.9,1.1-1.6,4.1-1.6
	c7.1,0,9.8,3.5,9.8,8.2c0,5.4-2.3,8.4-11.3,8.4H20.8z"/>
</svg>
