<?xml version="1.0" encoding="utf-8"?>
<!-- Generator: Adobe Illustrator 23.0.1, SVG Export Plug-In . SVG Version: 6.00 Build 0)  -->
<svg version="1.1" id="Vrstva_1" xmlns="http://www.w3.org/2000/svg" xmlns:xlink="http://www.w3.org/1999/xlink" x="0px" y="0px"
	 viewBox="0 0 56.7 56.7" style="enable-background:new 0 0 56.7 56.7;" xml:space="preserve">
<style type="text/css">
	.st0{fill:#C49A6C;}
</style>
<path class="st0" d="M30,12.8c-7.1,0-11.4,3.9-11.4,9.5c0,4.9,4.6,7.1,8.3,8.6c3.4,1.4,6.6,2.7,6.6,5.8c0,2.9-2.3,4.3-6.1,4.3
	c-4.9,0-6.6-3-6.7-6.9c0-0.1-0.1-0.1-0.2-0.1c-1.1,0.1-2.3,0.3-2.4,1.3v7.2c0,0.1,0.1,0.2,0.1,0.2c2.5,0.8,4.7,1.3,8.2,1.3
	c6.2,0,12.1-2.9,12.1-9.2c0-5.7-4.9-7.8-8.9-9.4c-3.1-1.3-5.9-2.5-5.9-5.2c0-2.6,1.9-4.4,5-4.4c4.4,0.1,5.3,2.9,5.3,5.6
	c0,0.3,0.3,0.5,0.8,0.5c0.8,0,2.1-0.5,2.2-1.2v-6c0-0.1-0.1-0.2-0.1-0.2C34.8,13.4,32.6,12.8,30,12.8"/>
</svg>
