<?xml version="1.0" encoding="utf-8"?>
<!-- Generator: Adobe Illustrator 23.0.1, SVG Export Plug-In . SVG Version: 6.00 Build 0)  -->
<svg version="1.1" id="Vrstva_1" xmlns="http://www.w3.org/2000/svg" xmlns:xlink="http://www.w3.org/1999/xlink" x="0px" y="0px"
	 viewBox="0 0 56.7 56.7" style="enable-background:new 0 0 56.7 56.7;" xml:space="preserve">
<style type="text/css">
	.st0{fill:#C49A6C;}
</style>
<path class="st0" d="M14.4,18.4c0,6.8,6,9.8,11.4,12.1c5.1,2.2,10.1,4.3,10.1,9.4c0,4.1-3.1,7.4-9,7.4c-6.9,0-9.1-3.5-10.4-9.6
	c0-0.1-0.2-0.2-0.2-0.2c-0.7,0-2.4,0.3-2.4,1.5l0.2,10.5c0,0.1,0.1,0.2,0.2,0.2c3.4,0.5,7.9,0.9,11.4,0.9c7.5,0,16.5-3.1,16.5-12.8
	c0-7.3-6.7-10.8-12.1-12.9c-4.7-1.8-9.5-4.1-9.5-8.7c0-4.8,3.7-7,7.7-7c4,0,7.7,2.6,7.7,7.9c0,0.8,3.1,0.2,3.2-0.8l0.6-7.9
	c0-0.1-0.1-0.2-0.1-0.2c-3-1.4-6.5-2.2-10.3-2.2C21.4,6.1,14.4,10.2,14.4,18.4"/>
</svg>
