<?xml version="1.0" encoding="utf-8"?>
<!-- Generator: Adobe Illustrator 23.0.1, SVG Export Plug-In . SVG Version: 6.00 Build 0)  -->
<svg version="1.1" id="Vrstva_1" xmlns="http://www.w3.org/2000/svg" xmlns:xlink="http://www.w3.org/1999/xlink" x="0px" y="0px"
	 viewBox="0 0 112 112" style="enable-background:new 0 0 112 112;" xml:space="preserve">
<style type="text/css">
	.st0{fill:#C49A6C;}
</style>
<g>
</g>
<path class="st0" d="M42.7,47.6c0,6.7,5.9,9.6,11.2,11.8c5,2.1,9.8,4.2,9.8,9.2c0,4-3.1,7.2-8.8,7.2c-6.8,0-8.9-3.4-10.1-9.4
	c0-0.1-0.2-0.2-0.2-0.2c-0.7,0-2.3,0.3-2.3,1.4l0.2,10.2c0,0.1,0.1,0.2,0.2,0.2c3.4,0.5,7.7,0.9,11.1,0.9c7.3,0,16.1-3.1,16.1-12.5
	c0-7.1-6.5-10.5-11.8-12.6c-4.6-1.7-9.2-4-9.2-8.5c0-4.7,3.6-6.8,7.6-6.8c3.9,0,7.5,2.5,7.5,7.7c0,0.8,3,0.2,3.1-0.8l0.5-7.7
	c0-0.1-0.1-0.2-0.1-0.2c-2.9-1.4-6.3-2.1-10-2.1C49.4,35.6,42.7,39.6,42.7,47.6"/>
</svg>
