<?xml version="1.0" encoding="utf-8"?>
<!-- Generator: Adobe Illustrator 23.0.1, SVG Export Plug-In . SVG Version: 6.00 Build 0)  -->
<svg version="1.1" id="Vrstva_1" xmlns="http://www.w3.org/2000/svg" xmlns:xlink="http://www.w3.org/1999/xlink" x="0px" y="0px"
	 viewBox="0 0 112 112" style="enable-background:new 0 0 112 112;" xml:space="preserve">
<style type="text/css">
	.st0{fill:#86C4BF;}
</style>
<path class="st0" d="M45.9,50.9c0,0.5,0.2,1,0.7,1h4v17.6c0,7.3,2.6,9.5,8.5,9.5c3.7,0,6.7-2.2,6.7-4.6c0-0.2,0-0.5-0.1-0.6
	c0-0.1-0.2-0.2-0.3-0.1c-1,0.4-2.6,0.7-3.7,0.7c-3.8,0-5.2-1.3-5.2-5.5c0-6.1,0-10.4,0.2-17h7.9c0.8,0,1.4-1.3,1.4-2
	c0-0.5-0.2-1.1-0.8-1.1h-8.6c0.1-3.7,0.2-5.9,0.3-8c0-0.1-0.1-0.1-0.2-0.1c-1.6,0-2.7,0.4-2.8,1.3c-0.2,1.4-1.8,6.9-7.3,6.9
	C46.3,48.8,45.9,50.1,45.9,50.9"/>
</svg>
