<?xml version="1.0" encoding="utf-8"?>
<!-- Generator: Adobe Illustrator 23.0.1, SVG Export Plug-In . SVG Version: 6.00 Build 0)  -->
<svg version="1.1" id="Vrstva_1" xmlns="http://www.w3.org/2000/svg" xmlns:xlink="http://www.w3.org/1999/xlink" x="0px" y="0px"
	 viewBox="0 0 56.7 56.7" style="enable-background:new 0 0 56.7 56.7;" xml:space="preserve">
<style type="text/css">
	.st0{fill:none;}
	.st1{fill:#74B74A;}
</style>
<line class="st0" x1="28.3" y1="85" x2="28.3" y2="-28.3"/>
<line class="st0" x1="28.3" y1="85" x2="28.3" y2="-28.3"/>
<path class="st1" d="M33.5,18.9c2.3,0,5.6-5,5.6-9.5c0-3-1.8-4.4-3.5-4.4c-1.9,0-3.2,1.2-3.2,3.5c0,0.1,0.1,0.2,0.2,0.2
	C34.4,9,35,10.2,35,11.8c0,2.6-1.4,4.7-2.7,5.6c-0.1,0-0.1,0.1-0.1,0.2C32.2,18.4,32.3,18.9,33.5,18.9 M22.3,24.6v17.6
	c0,7.3,2.6,9.5,8.5,9.5c3.7,0,6.7-2.2,6.7-4.6c0-0.2,0-0.5-0.1-0.6c0-0.1-0.2-0.2-0.3-0.1c-1,0.4-2.6,0.7-3.7,0.7
	c-3.8,0-5.2-1.3-5.2-5.5c0-6.1,0-10.4,0.2-17h7.9c0.8,0,1.4-1.3,1.4-2c0-0.5-0.2-1.1-0.8-1.1h-8.6c0.1-3.7,0.2-5.9,0.3-8
	c0-0.1-0.1-0.1-0.2-0.1c-1.6,0-2.7,0.4-2.8,1.3c-0.2,1.4-1.8,6.9-7.3,6.9c-0.5,0-0.9,1.4-0.9,2.2c0,0.5,0.2,1,0.7,1H22.3z"/>
<line class="st0" x1="28.3" y1="85" x2="28.3" y2="-28.3"/>
<line class="st0" x1="28.3" y1="-28.3" x2="28.3" y2="85"/>
</svg>
