<?xml version="1.0" encoding="utf-8"?>
<!-- Generator: Adobe Illustrator 23.0.1, SVG Export Plug-In . SVG Version: 6.00 Build 0)  -->
<svg version="1.1" id="Vrstva_1" xmlns="http://www.w3.org/2000/svg" xmlns:xlink="http://www.w3.org/1999/xlink" x="0px" y="0px"
	 viewBox="0 0 112 112" style="enable-background:new 0 0 112 112;" xml:space="preserve">
<style type="text/css">
	.st0{fill:#74B74A;}
</style>
<path class="st0" d="M56.1,30.4l-6.9-4.2v0.1C49,26.1,48.7,26,48.5,26c-0.5,0-1,0.2-1.4,0.8C47,26.9,47,27,47.1,27l7.3,8.1
	c0.2,0.2,0.8,0.5,1.6,0.5c1.1,0,1.4-0.1,1.8-0.5l7.2-8.1C65,27,65,26.9,65,26.9c-0.2-0.5-0.9-0.8-1.4-0.8c-0.2,0-0.5,0.2-0.8,0.3
	L56.1,30.4z"/>
<path class="st0" d="M70.1,41l1.5,6.3c0,0.1,0.1,0.1,0.2,0.1c1,0,2.5-0.4,2.6-1.4l0.6-8.5c0-0.1-0.1-0.2-0.2-0.2H38.2
	c-0.1,0-0.2,0.2-0.2,0.2l-1,8.3c-0.1,1.1,1.5,1.6,2.2,1.6c0.1,0,0.2,0,0.2-0.1c1.8-5.2,2.5-6.3,5.9-6.3h7v33.2
	c0,1.1-0.6,1.6-1.9,1.6l-3.3,0.4c-0.6,0.2-0.9,0.5-0.9,0.9L46,78.8c0,0.1,0.1,0.2,0.2,0.2h17.6c0.7,0,1-1.7,1-2.6
	c0-0.1-0.1-0.2-0.2-0.2L59,75.6c0-20.5,0.1-28.2,0.2-33.6c0-0.8,0.6-1.1,1.1-1.1H70.1z"/>
</svg>
