<?xml version="1.0" encoding="utf-8"?>
<!-- Generator: Adobe Illustrator 23.0.1, SVG Export Plug-In . SVG Version: 6.00 Build 0)  -->
<svg version="1.1" id="Vrstva_1" xmlns="http://www.w3.org/2000/svg" xmlns:xlink="http://www.w3.org/1999/xlink" x="0px" y="0px"
	 viewBox="0 0 112 112" style="enable-background:new 0 0 112 112;" xml:space="preserve">
<style type="text/css">
	.st0{fill:#DA2037;}
</style>
<path class="st0" d="M67.9,75.1c0-11.8,0.3-20.9,0.6-26.2c0-0.1-0.1-0.2-0.2-0.2H58.2c-0.8,0.2-0.9,1.8-0.9,2.5
	c0,0.1,0.1,0.2,0.2,0.2H58c1.7,0,4.1,0.4,4.1,1.4v18.4c-1.9,1.8-4.8,3-7.3,3c-2.9,0-4.9-1.6-4.9-5.9c0-9.4,0.3-17.4,0.4-19.4
	c0-0.1-0.1-0.2-0.2-0.2H40.1c-0.8,0.2-1,1.8-1,2.5c0,0.1,0.1,0.2,0.2,0.2h0.5c1.8,0,4.2,0.4,4.2,1.4v15.6c0,7.1,3.6,10.5,8.5,10.5
	c3.4,0,7-1.7,9.8-4.8v4.6c0,0.1,0.1,0.2,0.2,0.2c2.8-0.5,6.9-1.1,9.4-1.3c0.8,0,1-1.7,1-2.5c0-0.1-0.1-0.1-0.2-0.1H67.9z"/>
</svg>
