<?xml version="1.0" encoding="utf-8"?>
<!-- Generator: Adobe Illustrator 23.0.1, SVG Export Plug-In . SVG Version: 6.00 Build 0)  -->
<svg version="1.1" id="Vrstva_1" xmlns="http://www.w3.org/2000/svg" xmlns:xlink="http://www.w3.org/1999/xlink" x="0px" y="0px"
	 viewBox="0 0 56.7 56.7" style="enable-background:new 0 0 56.7 56.7;" xml:space="preserve">
<style type="text/css">
	.st0{fill:#DA2037;}
</style>
<path class="st0" d="M23.4,7.3c0-0.1-0.1-0.2-0.1-0.2H7.2C6.4,7,6.3,8.8,6.3,9.7c0,0.1,0.1,0.2,0.2,0.2l4.8,0.6v23.2
	c0,12.1,7.8,16.1,15.9,16.1c8.9,0,17.6-5.2,17.6-15.2c0-4.6,0-16.6,0.2-22.2c0.1-1,0.7-1.9,2-2l2.3-0.3c0.5-0.1,0.9-0.5,0.9-0.9
	l0.3-1.7c0-0.1-0.1-0.2-0.2-0.2H37c-0.8,0-1,1.8-1,2.6c0,0.1,0.1,0.2,0.2,0.2l4.8,0.6v24c0,7.7-5.7,10.3-11.3,10.3
	c-6,0-12-2.8-12-10.9c0-6.7,0.1-18.9,0.3-22c0.1-1,0.6-1.6,1.9-1.7l2.2-0.3c0.7-0.1,1-0.5,1.1-0.9L23.4,7.3z"/>
</svg>
