<?xml version="1.0" encoding="utf-8"?>
<!-- Generator: Adobe Illustrator 23.0.1, SVG Export Plug-In . SVG Version: 6.00 Build 0)  -->
<svg version="1.1" id="Vrstva_1" xmlns="http://www.w3.org/2000/svg" xmlns:xlink="http://www.w3.org/1999/xlink" x="0px" y="0px"
	 viewBox="0 0 56.7 56.7" style="enable-background:new 0 0 56.7 56.7;" xml:space="preserve">
<style type="text/css">
	.st0{fill:#D7DF23;}
</style>
<path class="st0" d="M26.2,16c0.7-0.1,0.9-0.4,1-0.9l0.2-1.7c0-0.1-0.1-0.2-0.2-0.2H13.6c-0.8,0-0.9,1.7-0.9,2.5
	c0,0.1,0.1,0.2,0.2,0.2l2.5,0.5c0.4,0.1,0.8,0.5,1.1,1.2c2.6,6,7.4,18.2,10,25.8c0,0.1,0.1,0.1,0.2,0.1c1.1,0,2.7-0.4,3.1-1.1
	c3.8-8.8,7.7-17.5,10-24.2c0.4-0.9,0.9-1.7,2.2-1.9l0.9-0.2c0.5-0.1,0.8-0.5,0.8-0.9l0.2-1.7c0-0.1-0.1-0.2-0.2-0.2H32.7
	c-0.8,0-1,1.7-1,2.6c0,0.1,0.1,0.2,0.1,0.2l4.3,0.5c-1.4,4.9-4.2,12.8-6.5,18.7c-2.3-6.6-4.7-13.1-6.7-18.5L26.2,16z"/>
</svg>
