<?xml version="1.0" encoding="utf-8"?>
<!-- Generator: Adobe Illustrator 23.0.1, SVG Export Plug-In . SVG Version: 6.00 Build 0)  -->
<svg version="1.1" id="Vrstva_1" xmlns="http://www.w3.org/2000/svg" xmlns:xlink="http://www.w3.org/1999/xlink" x="0px" y="0px"
	 viewBox="0 0 56.7 56.7" style="enable-background:new 0 0 56.7 56.7;" xml:space="preserve">
<style type="text/css">
	.st0{fill:#D7DF23;}
</style>
<path class="st0" d="M8.2,7c-0.8,0-1,1.7-1,2.6c0,0.1,0.1,0.2,0.2,0.2l2.4,0.4c1.1,0.2,1.9,1,2.2,1.9c3.7,8.8,11.7,29.1,14.6,37.5
	c0,0.1,0.2,0.1,0.2,0.1c1,0,2.9-0.2,3.2-0.9c4-9.3,12-29.7,14.3-36.7c0.4-1.1,1-1.7,2.3-2l1.4-0.2c0.6-0.1,0.9-0.5,1-0.9l0.2-1.7
	c0-0.1-0.1-0.2-0.2-0.2H37c-0.8,0-1,1.8-1,2.6c0,0.1,0.1,0.2,0.1,0.2l4.1,0.6c-1.6,5.6-7.7,23-10.4,29.8c-2.2-6.6-8.6-23.8-11-29.6
	l3.5-0.7c0.6-0.1,0.9-0.5,1-0.9l0.2-1.7c0-0.1-0.1-0.2-0.2-0.2H8.2z"/>
</svg>
