<?xml version="1.0" encoding="utf-8"?>
<!-- Generator: Adobe Illustrator 23.0.1, SVG Export Plug-In . SVG Version: 6.00 Build 0)  -->
<svg version="1.1" id="Vrstva_1" xmlns="http://www.w3.org/2000/svg" xmlns:xlink="http://www.w3.org/1999/xlink" x="0px" y="0px"
	 viewBox="0 0 56.7 56.7" style="enable-background:new 0 0 56.7 56.7;" xml:space="preserve">
<style type="text/css">
	.st0{fill:#3B261A;}
</style>
<path class="st0" d="M20.2,18.1c0.6-0.1,0.8-0.3,0.8-0.8l0.3-1.5c0-0.1-0.1-0.2-0.2-0.2H9.8c-0.7,0-0.8,1.4-0.8,2
	c0,0.1,0.1,0.2,0.1,0.2l2.1,0.4c0.4,0,0.7,0.5,0.9,1c2.3,5.6,4.6,12.7,6.5,18.9l0.9,2.5c0,0,0.1,0.1,0.1,0.1c0.9,0,2.4-0.4,2.8-1
	c1.9-4.4,4.6-11.5,5.9-15.7c1.8,5,4.2,11.9,5.6,16.5c0,0,0.1,0.1,0.1,0.1c0.9,0,2.4-0.3,2.8-1c3-7,5.8-14.6,7.4-20.1
	c0.3-0.8,0.8-1.5,1.7-1.6l0.8-0.1c0.6-0.1,0.9-0.4,0.9-0.8l0.1-1.5c0-0.1-0.1-0.2-0.1-0.2h-9.3c-0.8,0-0.9,1.5-0.9,2.2
	c0,0.1,0.1,0.1,0.2,0.1l3.5,0.4c-0.9,4.1-2.8,10.5-4.6,15.4c-1.8-5.6-3.8-12-6.2-18c0-0.1-0.1-0.1-0.1-0.1c-1.1,0-2.3,0.4-2.6,2
	c-1.3,4.1-3.5,11.5-5.4,16.2c-1.6-5.6-2.9-9.9-4.9-15.3L20.2,18.1z"/>
</svg>
