<?xml version="1.0" encoding="utf-8"?>
<!-- Generator: Adobe Illustrator 23.0.1, SVG Export Plug-In . SVG Version: 6.00 Build 0)  -->
<svg version="1.1" id="Vrstva_1" xmlns="http://www.w3.org/2000/svg" xmlns:xlink="http://www.w3.org/1999/xlink" x="0px" y="0px"
	 viewBox="0 0 112 112" style="enable-background:new 0 0 112 112;" xml:space="preserve">
<style type="text/css">
	.st0{fill:#3B261A;}
</style>
<path class="st0" d="M46.4,51.8c0.7-0.1,0.9-0.4,0.9-0.9l0.3-1.7c0-0.1-0.1-0.2-0.2-0.2H33.9c-0.8,0-1,1.7-1,2.4
	c0,0.1,0.1,0.2,0.2,0.2l2.4,0.5c0.4,0.1,0.8,0.6,1.1,1.2c2.7,6.7,5.5,15.2,7.7,22.6l1,3c0,0.1,0.1,0.1,0.2,0.1
	c1.1,0,2.9-0.4,3.3-1.1c2.3-5.2,5.5-13.6,7-18.6c2.2,5.9,5,14.1,6.6,19.6c0,0.1,0.1,0.1,0.2,0.1c1.1,0,2.9-0.4,3.3-1.1
	c3.6-8.3,6.8-17.4,8.8-24c0.3-1,1-1.7,2-1.9l1-0.2c0.7-0.1,1-0.4,1.1-0.9l0.2-1.7c0-0.1-0.1-0.2-0.1-0.2h-11c-0.9,0-1.1,1.7-1.1,2.6
	c0,0.1,0.1,0.2,0.2,0.2l4.1,0.5c-1.1,4.9-3.3,12.5-5.4,18.3c-2.1-6.7-4.5-14.3-7.3-21.4c0-0.1-0.1-0.1-0.2-0.1
	c-1.3,0.1-2.7,0.4-3.1,2.4C53.7,56.3,51,65,48.7,70.6c-1.8-6.7-3.5-11.8-5.8-18.2L46.4,51.8z"/>
</svg>
