<?xml version="1.0" encoding="utf-8"?>
<!-- Generator: Adobe Illustrator 23.0.1, SVG Export Plug-In . SVG Version: 6.00 Build 0)  -->
<svg version="1.1" id="Vrstva_1" xmlns="http://www.w3.org/2000/svg" xmlns:xlink="http://www.w3.org/1999/xlink" x="0px" y="0px"
	 viewBox="0 0 112 112" style="enable-background:new 0 0 112 112;" xml:space="preserve">
<style type="text/css">
	.st0{fill:#3B261A;}
</style>
<path class="st0" d="M42.4,39.8c0.6-0.1,0.9-0.5,1-0.9l0.2-1.7c0-0.1-0.1-0.2-0.2-0.2H28.5c-0.9,0-1,1.7-1,2.5
	c0,0.1,0.1,0.2,0.2,0.2l2.4,0.4c1.1,0.2,1.9,1,2.2,1.9c3.2,8.7,8.8,28.2,11.3,36.9c0,0.1,0.1,0.1,0.2,0.1c0.9,0,2.7-0.2,3.1-1.1
	c2.1-5.1,7.5-22.7,9.2-28.8c1.9,5.6,7.6,23.2,9.5,29.8c0,0.1,0.1,0.1,0.2,0.1c0.8,0,2.6-0.3,3-0.9c3.3-8.7,9.1-27.7,11.5-36.1
	c0.2-0.9,0.9-1.8,1.9-1.9l1.2-0.2c0.5-0.1,0.9-0.5,0.9-0.9l0.3-1.7c0-0.1-0.1-0.2-0.2-0.2H72.6c-0.6,0-0.8,1.8-0.8,2.6
	c0,0.1,0.2,0.2,0.2,0.2l3.5,0.6c-1,5.7-4.6,20.6-6.8,27.4c-3-10.6-6.6-20.3-10.3-30.6c0-0.1-0.1-0.2-0.2-0.2
	c-0.9,0.1-2.7,0.3-3.2,2.2c-1.2,5-5.8,21.6-8.2,28.5c-3.4-12-5.6-19.5-8-27.3L42.4,39.8z"/>
</svg>
