<?xml version="1.0" encoding="utf-8"?>
<!-- Generator: Adobe Illustrator 23.0.1, SVG Export Plug-In . SVG Version: 6.00 Build 0)  -->
<svg version="1.1" id="Vrstva_1" xmlns="http://www.w3.org/2000/svg" xmlns:xlink="http://www.w3.org/1999/xlink" x="0px" y="0px"
	 viewBox="0 0 56.7 56.7" style="enable-background:new 0 0 56.7 56.7;" xml:space="preserve">
<style type="text/css">
	.st0{fill:#3B261A;}
</style>
<path class="st0" d="M16.8,13c0.5-0.1,0.8-0.4,0.8-0.8l0.2-1.4c0-0.1-0.1-0.2-0.2-0.2H5c-0.8,0-0.9,1.4-0.9,2.1
	c0,0.1,0.1,0.2,0.2,0.2l2.1,0.3C7.3,13.3,8,14,8.2,14.8c2.7,7.4,7.4,23.9,9.6,31.2c0,0,0.1,0.1,0.2,0.1c0.8,0,2.3-0.2,2.6-1
	c1.8-4.3,6.4-19.2,7.8-24.4c1.6,4.8,6.4,19.6,8.1,25.2c0,0,0.1,0.1,0.1,0.1c0.7,0,2.2-0.3,2.5-0.8c2.8-7.3,7.7-23.4,9.7-30.5
	c0.2-0.8,0.8-1.5,1.6-1.7l1-0.2c0.4,0,0.8-0.4,0.8-0.8l0.3-1.4c0-0.1-0.1-0.2-0.2-0.2h-9.9c-0.6,0-0.7,1.5-0.7,2.2
	c0,0.1,0.1,0.2,0.1,0.2l3,0.5c-0.9,4.8-3.9,17.4-5.8,23.2c-2.6-9-5.6-17.2-8.8-25.9c0,0-0.1-0.1-0.2-0.1c-0.8,0.1-2.3,0.3-2.7,1.9
	c-1.1,4.3-4.9,18.3-6.9,24.2c-2.9-10.2-4.7-16.5-6.8-23.1L16.8,13z"/>
</svg>
