<?xml version="1.0" encoding="utf-8"?>
<!-- Generator: Adobe Illustrator 23.0.1, SVG Export Plug-In . SVG Version: 6.00 Build 0)  -->
<svg version="1.1" id="Vrstva_1" xmlns="http://www.w3.org/2000/svg" xmlns:xlink="http://www.w3.org/1999/xlink" x="0px" y="0px"
	 viewBox="0 0 56.7 56.7" style="enable-background:new 0 0 56.7 56.7;" xml:space="preserve">
<style type="text/css">
	.st0{fill:#B7A999;}
</style>
<path class="st0" d="M27.2,16.7c0.7-0.1,0.8-0.4,0.8-0.9l0.3-1.7c0-0.1-0.1-0.2-0.2-0.2H13.2c-0.8,0-0.9,1.7-0.9,2.5
	c0,0.1,0.1,0.2,0.1,0.2l3.3,0.7c1.9,1.3,5.1,5.2,9.7,11.6c-2.9,3.7-5.8,7-9.2,10.5c-0.4,0.4-1,0.9-1.7,1l-1.7,0.2
	c-0.7,0.2-0.9,0.4-1,0.8L11.5,43c0,0.1,0.1,0.2,0.2,0.2h11.1c0.7,0,1-1.7,1-2.5c0-0.1-0.1-0.2-0.2-0.2l-3.4-0.6
	c1-1.7,3.2-4.4,6.8-8.9l6.6,8.8l-3.4,0.6c-0.8,0.1-1,0.4-1,0.8L28.9,43c0,0.1,0.1,0.2,0.2,0.2h14.6c0.8,0,1-1.7,1-2.5
	c0-0.1-0.1-0.2-0.1-0.2L42,40c-1.6-1-4.8-4.6-11-13.3c2.9-3.4,7-7.3,8.5-8.8c0.5-0.5,1.3-0.9,2.1-1l1.4-0.2c0.5-0.1,0.9-0.5,1-0.9
	l0.3-1.7c0-0.1-0.1-0.2-0.2-0.2H32.8c-0.7,0-0.9,1.7-0.9,2.6c0,0.1,0.1,0.2,0.1,0.2l3.4,0.5c-1,1.4-4.7,5.4-6.1,7.1l-5.1-7
	L27.2,16.7z"/>
</svg>
