<?xml version="1.0" encoding="utf-8"?>
<!-- Generator: Adobe Illustrator 23.0.1, SVG Export Plug-In . SVG Version: 6.00 Build 0)  -->
<svg version="1.1" id="Vrstva_1" xmlns="http://www.w3.org/2000/svg" xmlns:xlink="http://www.w3.org/1999/xlink" x="0px" y="0px"
	 viewBox="0 0 112 112" style="enable-background:new 0 0 112 112;" xml:space="preserve">
<style type="text/css">
	.st0{fill:none;}
	.st1{fill:#B7A999;}
</style>
<g>
</g>
<path class="st0" d="M56,135.7"/>
<path class="st0" d="M57.1,135.1"/>
<path class="st1" d="M73.4,75.6c-1.3-0.6-8.6-11-14.5-19.7c4.6-6,8.7-10.7,12.1-14.6c0.4-0.4,1.3-0.9,1.7-1l1.9-0.2
	c0.6-0.1,0.8-0.4,0.9-0.9l0.2-1.7c0-0.1-0.1-0.2-0.2-0.2h-12c-0.7,0-0.8,1.8-0.8,2.6c0,0.1,0.1,0.2,0.2,0.2l3.4,0.5
	c-5.3,7.2-7.2,9.7-9.4,12.5c-3.1-4.3-5.5-7.7-8.5-12.4l3-0.6c0.5-0.1,0.9-0.5,1-0.9l0.3-1.7c0-0.1-0.1-0.2-0.2-0.2H36.9
	c-1,0-1.1,1.7-1.1,2.6c0,0.1,0.1,0.2,0.2,0.2l3.7,0.6c2.2,2.3,8.5,11.3,13.1,18.1c-4.4,5.8-8.5,11.3-12.7,16.4c-0.5,0.7-1,0.9-1.7,1
	l-2,0.1c-0.6,0.2-0.8,0.5-0.9,0.9l-0.2,1.8c0,0.1,0.1,0.2,0.2,0.2h11.9c0.7,0,0.9-1.7,0.9-2.6c0-0.1-0.1-0.2-0.2-0.2l-3.2-0.5
	c1.7-2.5,5-7.4,10.1-14.2c2.5,3.5,5,7.1,9.7,14l-3.3,0.6c-0.5,0.2-0.9,0.5-1,0.9l-0.2,1.8c0,0.1,0.1,0.2,0.2,0.2h15.4
	c0.9,0,1-1.7,1-2.5c0-0.1-0.1-0.2-0.1-0.2L73.4,75.6z"/>
</svg>
