<?xml version="1.0" encoding="utf-8"?>
<!-- Generator: Adobe Illustrator 23.0.1, SVG Export Plug-In . SVG Version: 6.00 Build 0)  -->
<svg version="1.1" id="Vrstva_1" xmlns="http://www.w3.org/2000/svg" xmlns:xlink="http://www.w3.org/1999/xlink" x="0px" y="0px"
	 viewBox="0 0 56.7 56.7" style="enable-background:new 0 0 56.7 56.7;" xml:space="preserve">
<style type="text/css">
	.st0{fill:#1B75BC;}
</style>
<path class="st0" d="M17.8,44.4c-1,0-1.7-0.2-2.1-1c-0.1-0.1-0.2-0.2-0.4-0.1c-1.1,0.5-1.8,1.9-1.8,3c0,2,1.4,3.5,4.2,3.5
	c3.9,0,7.4-3.5,11.9-13.8c3.8-8.7,7.5-17.4,9.9-24.1c0.2-0.8,1.1-1.8,2.4-2l0.8-0.1c0.5-0.1,0.8-0.4,0.8-0.9l0.2-1.7
	C43.9,7,43.9,7,43.8,7H32.7c-0.8,0-1,1.7-1,2.6c0,0.1,0.1,0.2,0.1,0.2l4.1,0.5c-1.3,4.9-4.1,12.7-6.4,18.7c-2.3-6.6-4.6-13-6.6-18.4
	l3.2-0.7c0.8-0.2,1-0.4,1-0.9l0.2-1.7C27.4,7,27.4,7,27.2,7H13.7c-0.8,0-0.9,1.7-0.9,2.5c0,0.1,0.1,0.2,0.2,0.2l2.5,0.5
	c0.4,0.1,0.8,0.5,1.1,1.2c2.6,6,7,17.4,9.6,24.8C23,42.9,20.5,44.4,17.8,44.4"/>
</svg>
