<?xml version="1.0" encoding="utf-8"?>
<!-- Generator: Adobe Illustrator 23.0.1, SVG Export Plug-In . SVG Version: 6.00 Build 0)  -->
<svg version="1.1" id="Vrstva_1" xmlns="http://www.w3.org/2000/svg" xmlns:xlink="http://www.w3.org/1999/xlink" x="0px" y="0px"
	 viewBox="0 0 56.7 56.7" style="enable-background:new 0 0 56.7 56.7;" xml:space="preserve">
<style type="text/css">
	.st0{fill:#1B75BC;}
</style>
<path class="st0" d="M21.9,10.3c0.5-0.1,0.8-0.5,0.9-0.9L23,7.7c0-0.1-0.1-0.2-0.2-0.2H7.8c-0.9,0-1,1.7-1,2.6
	c0,0.1,0.1,0.2,0.2,0.2l3.1,0.5c1.9,0.9,9.6,12.5,14.7,21v12.6c0,1.1-0.5,1.4-1.8,1.6l-2.3,0.4c-0.8,0.1-1,0.5-1,0.9L19.3,49
	c0,0.1,0.1,0.2,0.2,0.2h15.8c0.8,0,0.9-1.7,0.9-2.6c0-0.1-0.1-0.2-0.1-0.2l-4.8-0.5c0-2-0.1-7.7-0.1-15.1c3.7-6,10-14.9,13.4-19.3
	c0.5-0.5,1.1-0.9,2-1l2-0.2c0.7-0.1,1-0.5,1.1-0.9l0.2-1.7c0-0.1-0.1-0.2-0.2-0.2h-13c-0.8,0-1,1.8-1,2.6c0,0.1,0.1,0.2,0.2,0.2
	l4.2,0.6c-1.8,2.5-7.1,10.2-10.8,16.5c-2.8-4.8-7.7-12.2-10.5-16.4L21.9,10.3z"/>
</svg>
