<?xml version="1.0" encoding="utf-8"?>
<!-- Generator: Adobe Illustrator 23.0.1, SVG Export Plug-In . SVG Version: 6.00 Build 0)  -->
<svg version="1.1" id="Vrstva_1" xmlns="http://www.w3.org/2000/svg" xmlns:xlink="http://www.w3.org/1999/xlink" x="0px" y="0px"
	 viewBox="0 0 56.7 56.7" style="enable-background:new 0 0 56.7 56.7;" xml:space="preserve">
<style type="text/css">
	.st0{fill:#8DCDA1;}
</style>
<path class="st0" d="M29,12.1l-6.8-5.6c-0.1-0.2-0.4-0.2-0.6-0.2c-0.4,0-1.2,0.2-1.6,0.8c-0.1,0.1-0.1,0.2,0,0.2l7.3,10
	c0.3,0.4,0.7,0.5,1.7,0.5c1.2,0,1.6-0.2,1.9-0.5l7.1-10c0,0,0.1-0.1,0.1-0.1c-0.2-0.5-1-0.8-1.5-0.8c-0.2,0-0.4,0.1-0.7,0.2L29,12.1
	z"/>
<path class="st0" d="M19.7,29.3c0.2-4.4,1.7-5.3,3.5-5.3h10.2c-5.1,8-11.8,17-17.9,24.8c-0.1,0.1-0.1,0.4-0.1,0.8
	c0,0.3,0.1,0.8,0.3,0.8h24.4c0.1,0,0.2-0.1,0.2-0.2l1-8.3c0.2-1-1.4-1.5-2.2-1.5c-0.1,0-0.2,0.1-0.2,0.1c-1.7,5.3-2.8,7-9.6,7h-5.6
	c5.5-7.3,11.8-16.1,17-24.3c0.2-0.4,0.3-0.8,0.3-1.2c0-0.5-0.1-1-0.4-1H17c-0.1,0-0.2,0.1-0.2,0.2v7.3c0.1,0.7,1.3,1.2,2.2,1.2
	C19.4,29.8,19.7,29.7,19.7,29.3"/>
</svg>
