<?xml version="1.0" encoding="utf-8"?>
<!-- Generator: Adobe Illustrator 23.0.1, SVG Export Plug-In . SVG Version: 6.00 Build 0)  -->
<svg version="1.1" id="Vrstva_1" xmlns="http://www.w3.org/2000/svg" xmlns:xlink="http://www.w3.org/1999/xlink" x="0px" y="0px"
	 viewBox="0 0 56.7 56.7" style="enable-background:new 0 0 56.7 56.7;" xml:space="preserve">
<style type="text/css">
	.st0{fill:#8DCDA1;}
</style>
<path class="st0" d="M29.9,6.2L23,2v0.1c-0.2-0.2-0.4-0.2-0.7-0.2c-0.5,0-1,0.2-1.4,0.8c-0.1,0.1-0.1,0.2,0,0.2l7.3,8.1
	c0.2,0.2,0.8,0.5,1.6,0.5c1.1,0,1.4-0.1,1.8-0.5l7.2-8.1c0.1-0.1,0.1-0.1,0.1-0.2c-0.2-0.5-0.9-0.8-1.4-0.8c-0.2,0-0.5,0.2-0.8,0.3
	L29.9,6.2z"/>
<path class="st0" d="M45.5,13.1H13.6c-0.1,0-0.2,0.1-0.2,0.2l-0.3,8.3c0.1,1,1.4,1.6,2.1,1.6c0.2,0,0.2,0,0.2-0.1
	c1.8-5.2,2.2-6.3,5.7-6.3h16c-5.2,8.3-19.2,27.4-25.9,36c-0.4,0.5-0.5,1.1-0.4,1.9c0,0.1,0.1,0.2,0.2,0.2h33.8
	c0.1,0,0.2-0.1,0.2-0.2l1-10.4c0-1-1.6-1.6-2.3-1.6c-0.1,0-0.2,0.1-0.2,0.1c-1.7,5.2-2.8,8.3-10.3,8.3H19.9
	c6.8-8.7,20.7-27.8,25.7-35.9c0.2-0.6,0.2-1.3,0-1.9L45.5,13.1z"/>
</svg>
