<?xml version="1.0" encoding="utf-8"?>
<!-- Generator: Adobe Illustrator 23.0.1, SVG Export Plug-In . SVG Version: 6.00 Build 0)  -->
<svg version="1.1" id="Vrstva_1" xmlns="http://www.w3.org/2000/svg" xmlns:xlink="http://www.w3.org/1999/xlink" x="0px" y="0px"
	 viewBox="0 0 283.5 368.5" style="enable-background:new 0 0 283.5 368.5;" xml:space="preserve">
<style type="text/css">
	.st0{fill:#404041;}
	.st1{fill:#FFFFFF;}
</style>
<g>
	<path class="st0" d="M153.1,214.6l41.6,53.6c0,0,15.6-11.4,21.1-3.8c5.5,7.5-19.8,19.9-26.2,24.5c-6.4,4.6-46.1-56.7-46.1-56.7
		L153.1,214.6z"/>
	<path class="st0" d="M107.4,209l0.5,73.4c0,0,19.3,0.4,19.1,9.8c-0.2,9.3-27.8,3.8-35.7,3.6c-7.9-0.2-2.1-89.8-2.1-89.8L107.4,209z
		"/>
	<path class="st0" d="M56.2,114.1l130.6-0.5c0,0,6.1,126-58.9,126.1C39.4,239.8,56.2,114.1,56.2,114.1"/>
	<path class="st1" d="M124.2,140.3c3.7-1.6,8.8-2.5,12.9-3.1c7.2-0.9,12.3,0.7,18,3.4c5.1,2.4,15.5,5.6,10.1,10.8
		c-4.5,4.3-11.7,7.5-18.7,8.9c-6.5,1.2-11.1,0.5-17-1.4c-5.6-1.8-11.3-3.9-14.2-8.2C111.5,145.3,118.3,142.8,124.2,140.3"/>
	<path class="st0" d="M165,154.9c0,5.9-5.5,10.7-12.3,10.7s-12.3-4.8-12.3-10.7s5.5-10.7,12.3-10.7S165,149,165,154.9"/>
	<path class="st0" d="M217.2,260c0.1,0,0.2,0.2,0.2,0.2c0,0.8,0,2.4-0.8,2.5l-11.4,0.7c-0.1,0-0.2,0-0.2-0.2l0.1-1.7
		c0-0.3,0.4-0.7,0.8-0.9l1.3-0.2c1.1-0.2,1.7-1.1,2-2c2.1-7.1,8.2-26.3,11.3-34.9c0.3-0.9,2.1-1.1,3.2-1.1c0.1,0,0.2,0,0.2,0.1
		c3.1,7.7,12.4,27.7,16.4,35.7l3.7,0.4c0.1,0,0.2,0.1,0.2,0.2c0,0.8,0,2.4-0.8,2.4l-14.1,0.8c-0.2,0-0.2,0-0.2-0.2l0.1-1.7
		c0-0.4,0.3-0.8,0.7-0.9l1.3-0.4c1.3-0.4,1.8-0.6,1.4-1.5l-3.6-8.5l-13.2,0.8c-1.4,4.9-2.2,8.1-2.6,10.1L217.2,260z M216.8,246.7
		l11.1-0.6c-2.5-5.6-5.1-11.5-6.5-15C220.3,234.4,218.5,240.5,216.8,246.7"/>
	<polygon class="st0" points="54.9,101.3 115.4,31.6 181.6,101.3 	"/>
	<polygon class="st0" points="118.3,17 120.4,22.5 126,20.8 123.1,25.9 128,29.2 122.1,30.1 122.6,35.9 118.3,31.9 113.9,35.9 
		114.4,30.1 108.6,29.2 113.4,25.9 110.5,20.8 116.1,22.5 	"/>
</g>
<g>
	<path class="st0" d="M70.7,349c-1-0.7-1.6-1.4-2-2.3c-0.4-0.8-0.7-3.3-1.1-7.6c-0.4-4.3-0.6-7.4-0.6-9.5v-2.4c0-0.7,0-1.5,0-2.3
		c0-1.6,0.1-3.2,0.3-4.7c0.1-0.8,0.3-1.4,0.5-2c0.2-0.6,0.5-1.1,0.9-1.6c0.7-1,1.7-1.7,3-2.1c0.7-0.2,1.5-0.3,2.3-0.3
		c0.6,0,1.2,0.2,1.8,0.5c0.6,0.3,0.9,0.7,0.9,1.2c0,0.3-0.2,0.5-0.7,0.5c-0.2,0-0.5-0.1-1.1-0.3c-0.5-0.2-0.9-0.3-1.2-0.3
		c-0.9,0-1.6,0.2-2.3,0.5s-1.2,0.8-1.6,1.4c-0.3,0.5-0.6,1.2-0.9,2c-0.2,0.9-0.4,1.7-0.5,2.6c-0.1,0.8-0.1,1.7-0.1,2.8l0,2.6
		c0,0.7,0,1.5,0,2.4c0,2.1,0.2,5.2,0.6,9.3c0.4,4.1,0.8,6.5,1.2,7.1c0.4,0.6,0.9,1,1.6,1.3c0.7,0.3,1.5,0.5,2.3,0.5
		c1.4,0,2.5-0.4,3.2-1.3c0.3-0.4,0.6-0.6,0.9-0.6c0.3,0,0.4,0.2,0.4,0.6c0,0.6-0.2,1-0.5,1.4c-0.3,0.4-0.8,0.7-1.4,0.9
		c-1,0.4-2.1,0.6-3.2,0.6C72.6,350,71.7,349.6,70.7,349z"/>
	<path class="st0" d="M90.5,349.3c-0.2-5.7-0.2-9.8-0.2-12.3l-0.1-0.2l0.2-0.4c0-0.6-0.1-1.1-0.2-1.7l-0.7-0.2
		c-0.3,0.1-0.6,0.1-0.9,0.1c-0.2,0-0.8-0.1-1.5-0.2c-0.5-0.2-1-0.2-1.4-0.2l-0.5,0.2c0,1.1,0,2,0,2.9c0,0.9,0,1.8,0,2.9l0.1,0.2
		c0,0.9,0,2.1,0.1,3.9c0.1,1.7,0.1,3,0.1,3.8c0,0.3-0.1,0.6-0.2,0.9c-0.1,0.2-0.3,0.3-0.6,0.3c-0.7,0-1-0.9-1-2.8c0-1.6,0-3,0-4.2
		l0-4.2c0-2.8,0-4.3-0.1-4.5c0.2-0.3,0.2-1.3,0.2-3c0-1.5-0.1-3.3-0.2-5.4l-0.1-1.8l-0.1-3.6c0-0.2,0.1-0.4,0.2-0.6
		c0.2-0.2,0.3-0.3,0.6-0.3c0.6,0,0.9,0.9,0.9,2.7c0,2.1,0,4,0,5.7c-0.1,1.7-0.1,3.5-0.1,5.6c0,0.4,1.2,0.6,3.5,0.6h0.2
		c0.6,0,1-0.1,1.3-0.3c0.3-0.2,0.4-0.6,0.4-1.2c0-1.6-0.1-3.7-0.3-6.3c-0.2-2.8-0.3-4.9-0.3-6.3c0-0.2,0.1-0.3,0.2-0.5
		c0.2-0.1,0.3-0.2,0.6-0.2l0.4,0.1c0.2,0,0.4,0.1,0.4,0.1c0,2.4,0.1,6,0.3,10.7c0.2,4.8,0.3,8.4,0.3,10.8c0,3.6,0.1,6.7,0.3,9.1
		l-0.3,0.5C91.8,349.4,91.4,349.3,90.5,349.3z M88.9,332.6L88.9,332.6L88.9,332.6L88.9,332.6z"/>
	<path class="st0" d="M101.8,349.6c-0.6-0.2-1.1-0.4-1.5-0.8c-0.4-0.3-0.8-0.8-1.2-1.5c-0.6-1.2-1-3-1.1-5.3c-0.1-1-0.1-2-0.1-2.8
		V334c0-2,0.1-3.9,0.2-5.8c0.1-1.4,0.2-2.5,0.4-3.5c0.2-1,0.5-1.9,0.9-2.9c0.4-1,0.9-1.7,1.4-2.1c0.2-0.2,0.6-0.4,1.2-0.6
		c0.4-0.2,0.8-0.3,1.2-0.5h1.8h0.1c0,0,0.1,0,0.1,0l0.2,0l0.2,0.1c0.1,0.1,0.1,0.2,0.1,0.2c0,0.1,0,0.2,0,0.3l-0.6,0.7h-1.9
		c-0.6,0-1.1,0.3-1.6,0.9c-0.5,0.6-0.8,1.3-1.1,2.1c-0.2,0.8-0.4,1.7-0.6,2.7c-0.2,1-0.2,1.9-0.3,2.7c-0.1,1-0.1,1.7-0.1,2l-0.1,0.2
		c0,1.7,0,3.3-0.1,4.6l-0.1,4.6c0,1.3,0.1,2.6,0.3,3.7c0.2,1.2,0.6,2.3,1.3,3.3c0.7,1,1.8,1.5,3.3,1.5c0.5,0,0.8-0.1,1.1-0.4
		c0.5,0,0.7,0.2,0.7,0.5c0,0.2-0.2,0.5-0.6,0.8c-0.4,0.3-0.8,0.5-1.2,0.7h-1.5L101.8,349.6z"/>
	<path class="st0" d="M113.9,348.8c-0.2,0-0.3,0-0.4,0h-0.4c-0.7,0-1.1-0.2-1.3-0.5c0-0.2,0.1-0.4,0.4-0.6l0.2-0.2h1.3l0.2-0.2
		l0.1-0.4l0-0.6c0-1.9,0-3.5-0.1-5l-0.1-1.7l-0.1-3.4c0-1.2,0-3,0.1-5.4l0.1-5.3c0-2.3-0.1-4.1-0.2-5.3c-0.3-0.1-0.7-0.1-1.4-0.1
		l-0.5,0c-0.2,0-0.4,0-0.6,0c-0.6,0-0.9-0.3-0.9-0.8c0-0.1,0.1-0.2,0.4-0.4c0.3-0.1,0.5-0.2,0.7-0.2c1.2,0,2.3,0.1,3.5,0.2
		c0.7,0,1.4,0.2,2.1,0.4c0.6,0.2,0.8,0.4,0.8,0.8c0,0.1,0,0.2-0.1,0.4l-1.1,0.1c-0.2-0.2-0.7-0.3-1.3-0.3l-0.2,0.1
		c0.1,0.3,0.1,1.1,0.1,2.4c0,2,0,3.8,0,5.5l-0.1,5.5c0,1.4,0.1,3.1,0.2,5c0.1,2.2,0.1,3.9,0.1,5.1v0.6c0,0.2,0,0.5,0,0.8
		c0,0.7,0,1.1,0.1,1.3l0,0.1c0,0.3,0.3,0.5,1,0.5c0.3,0,0.5,0,0.7,0h0.7c0.9,0,1.3,0.2,1.3,0.6c0,0.3-0.1,0.5-0.3,0.7
		c-0.2,0.2-0.4,0.3-0.7,0.3c-0.3,0-0.5,0-0.7-0.1c-0.2,0-0.5,0-0.8,0c-0.2,0-0.5,0.1-0.8,0.2c-0.4,0.2-0.6,0.3-0.8,0.3
		C114.4,349.2,114,349.1,113.9,348.8z"/>
	<path class="st0" d="M132.3,349.4c-0.3-0.2-0.5-0.4-0.5-0.7l0.2-0.4c0.1,0,0.4,0,0.8,0.1c0.3,0.1,0.6,0.2,0.8,0.2
		c0.7,0,1.3-0.3,1.8-0.8c0.5-0.5,0.9-1.2,1.2-2.1c0.4-1.6,0.6-3.1,0.6-4.5c0-2.1-0.6-4.4-1.9-6.8c-0.8-1.4-1.4-2.5-1.8-3.4
		c-0.4-0.8-0.8-1.8-1.2-2.9c-0.4-1.3-0.6-2.5-0.6-3.6c0-1.1,0.3-2.4,0.8-3.9c0.3-0.7,0.7-1.3,1.2-1.7c0.5-0.4,1-0.7,1.6-0.7
		c0.4,0,0.8,0.1,1.2,0.4c0.4,0.3,0.6,0.6,0.6,0.9c0,0.2-0.2,0.4-0.6,0.4c-0.1,0-0.3,0-0.5-0.1c-0.2-0.1-0.4-0.1-0.5-0.1
		c-0.5,0-0.9,0.2-1.2,0.6c-0.4,0.4-0.6,0.8-0.8,1.4c-0.4,1.1-0.6,2.2-0.6,3.1c0,0.6,0.1,1.2,0.2,1.8c0,0.2,0.1,0.3,0.1,0.5
		c0,0.1,0,0.2,0,0.3l0.3,0.9l0.2,0.8l0.4,0.8c0.1,0.2,0.2,0.4,0.3,0.6c0.1,0.2,0.2,0.3,0.3,0.5l0.6,1c0.1,0.2,0.4,0.6,0.8,1.3
		c0.4,0.7,0.8,1.4,1.1,2.2c0.3,0.6,0.5,1.3,0.7,1.8c0.2,0.6,0.3,1.3,0.4,2c0.1,0.8,0.1,1.6,0.1,2.5c0,1.5-0.2,2.9-0.6,4.1
		c-0.6,1.5-1.3,2.6-2.4,3.2c-0.6,0.4-1.3,0.6-2,0.6l-0.2,0.1C133,349.7,132.7,349.6,132.3,349.4z M137,319.8
		C137,319.8,137,319.8,137,319.8L137,319.8L137,319.8z"/>
	<path class="st0" d="M145.8,348.8c-0.2,0-0.3,0-0.4,0h-0.4c-0.7,0-1.1-0.2-1.3-0.5c0-0.2,0.1-0.4,0.4-0.6l0.2-0.2h1.3l0.2-0.2
		l0.1-0.4l0-0.6c0-1.9,0-3.5-0.1-5l-0.1-1.7l-0.1-3.4c0-1.2,0-3,0.1-5.4l0.1-5.3c0-2.3-0.1-4.1-0.2-5.3c-0.3-0.1-0.7-0.1-1.4-0.1
		l-0.5,0c-0.2,0-0.4,0-0.6,0c-0.6,0-0.9-0.3-0.9-0.8c0-0.1,0.1-0.2,0.4-0.4c0.3-0.1,0.5-0.2,0.7-0.2c1.2,0,2.3,0.1,3.5,0.2
		c0.7,0,1.4,0.2,2.1,0.4c0.6,0.2,0.8,0.4,0.8,0.8c0,0.1,0,0.2-0.1,0.4l-1.1,0.1c-0.2-0.2-0.7-0.3-1.3-0.3l-0.2,0.1
		c0.1,0.3,0.1,1.1,0.1,2.4c0,2,0,3.8,0,5.5l-0.1,5.5c0,1.4,0.1,3.1,0.2,5c0.1,2.2,0.1,3.9,0.1,5.1v0.6c0,0.2,0,0.5,0,0.8
		c0,0.7,0,1.1,0.1,1.3l0,0.1c0,0.3,0.3,0.5,1,0.5c0.3,0,0.5,0,0.7,0h0.7c0.9,0,1.3,0.2,1.3,0.6c0,0.3-0.1,0.5-0.3,0.7
		c-0.2,0.2-0.4,0.3-0.7,0.3c-0.3,0-0.5,0-0.7-0.1c-0.2,0-0.5,0-0.8,0c-0.2,0-0.5,0.1-0.8,0.2c-0.4,0.2-0.6,0.3-0.8,0.3
		C146.4,349.2,146,349.1,145.8,348.8z"/>
	<path class="st0" d="M171.7,349.3c-0.2-5.7-0.2-9.8-0.2-12.3l-0.1-0.2l0.2-0.4c0-0.6-0.1-1.1-0.2-1.7l-0.7-0.2
		c-0.3,0.1-0.6,0.1-0.9,0.1c-0.2,0-0.8-0.1-1.5-0.2c-0.5-0.2-1-0.2-1.4-0.2l-0.5,0.2c0,1.1,0,2,0,2.9s0,1.8,0,2.9l0.1,0.2
		c0,0.9,0,2.1,0.1,3.9c0.1,1.7,0.1,3,0.1,3.8c0,0.3-0.1,0.6-0.2,0.9c-0.1,0.2-0.3,0.3-0.6,0.3c-0.7,0-1-0.9-1-2.8c0-1.6,0-3,0-4.2
		l0-4.2c0-2.8,0-4.3-0.1-4.5c0.2-0.3,0.2-1.3,0.2-3c0-1.5-0.1-3.3-0.2-5.4l-0.1-1.8l-0.1-3.6c0-0.2,0.1-0.4,0.2-0.6
		c0.2-0.2,0.3-0.3,0.6-0.3c0.6,0,0.9,0.9,0.9,2.7c0,2.1,0,4,0,5.7c-0.1,1.7-0.1,3.5-0.1,5.6c0,0.4,1.2,0.6,3.5,0.6h0.2
		c0.6,0,1-0.1,1.3-0.3c0.3-0.2,0.4-0.6,0.4-1.2c0-1.6-0.1-3.7-0.3-6.3c-0.2-2.8-0.3-4.9-0.3-6.3c0-0.2,0.1-0.3,0.2-0.5
		c0.2-0.1,0.3-0.2,0.6-0.2l0.4,0.1c0.2,0,0.4,0.1,0.4,0.1c0,2.4,0.1,6,0.3,10.7c0.2,4.8,0.3,8.4,0.3,10.8c0,3.6,0.1,6.7,0.3,9.1
		l-0.3,0.5C173,349.4,172.6,349.3,171.7,349.3z M170.1,332.6L170.1,332.6L170.1,332.6L170.1,332.6z"/>
	<path class="st0" d="M186.4,349.8c-0.4-0.4-0.8-1.5-1.2-3.2c-0.4-1.7-0.8-3.6-1.2-5.8c-0.2-1.7-0.6-3.5-1.1-5.2
		c-0.4-1.5-0.7-2.3-1.1-2.3h-0.1c-0.7,0-1,0.2-1,0.6c0,2.2,0.1,5.6,0.4,10.1c0.1,2.8,0.3,4.4,0.4,4.8l-0.4,0.8h-0.6l-0.4-0.4
		c-0.5-14.2-0.7-23.8-0.7-29c0-0.3,0-0.6,0.1-0.8s0.1-0.4,0.3-0.6c0.1-0.2,0.3-0.3,0.6-0.3c1.6,0,2.8,0.4,3.8,1.1
		c1,0.8,1.4,1.9,1.4,3.3v3.4c0,0.6-0.2,1.4-0.6,2.3c-0.4,1-0.8,1.9-1.3,2.7l-0.6,1.1c0.3,1.6,1,4.4,2,8.4c1,4.1,1.5,6.2,1.6,6.5
		c0,0,0.1,0.1,0.1,0.2c0,0.1,0.1,0.3,0.3,0.6c0.2,0.4,0.3,0.8,0.3,1.1c0,0.4-0.2,0.6-0.5,0.6L186.4,349.8z M182.5,331.3
		c0.5-0.6,0.8-1.3,1.1-2.3c0.5-1.9,0.7-3.4,0.7-4.5c0-0.7,0-1.3-0.1-1.7c-0.1-0.5-0.2-1-0.4-1.5c-0.4-1.1-1.2-1.6-2.6-1.6
		c-0.2,0-0.3,0.1-0.4,0.4c-0.1,0.3-0.1,0.5-0.1,0.8c0,2.1,0,3.9,0.1,5.6c0,1.7,0,3.5,0,5.6l0.1,0.1
		C181.6,332.2,182.1,331.9,182.5,331.3z"/>
	<path class="st0" d="M202.1,349.7c0,0-0.1-0.1-0.2-0.2c-0.1-0.1-0.2-0.4-0.3-0.9c-0.3-2.2-0.4-3.6-0.5-4.2l-0.2-1.8
		c-0.7-0.2-1.4-0.2-2.3-0.2l-1.7-0.1c-0.7-0.1-1.3-0.1-1.6-0.1c-0.2,0-0.3,0.1-0.3,0.2c0,0.1,0,0.1,0,0.1l-0.1,0.9
		c0,0.6-0.2,1.7-0.5,3.3c-0.2,0.8-0.3,1.5-0.6,1.9c-0.2,0.5-0.5,0.8-0.7,0.8c-0.2,0-0.4-0.1-0.6-0.3c-0.2-0.2-0.3-0.3-0.3-0.5l0-0.1
		l0-0.1c0.6-2.2,1-4.3,1.4-6.5l0.6-2.9l0.6-3.5l0.5-3c0.2-0.8,0.4-2.2,0.8-4c0.4-2.1,0.7-3.5,0.8-4.3c0-0.1,0.1-0.7,0.2-1.7
		c0.1-1.2,0.2-2,0.3-2.6c0.1-0.8,0.2-1.3,0.3-1.4h0.3c0.1,0,0.2,0,0.3,0c0.4,0,0.6-0.1,0.8-0.3c0.2,0,0.4,0.1,0.6,0.2
		s0.3,0.3,0.3,0.5c0,1.5,0.1,3.2,0.3,5.1c0.1,1,0.2,1.8,0.3,2.4c0.3,4,1.2,11.4,2.6,22.3v0.1c0,0.3-0.1,0.5-0.4,0.7
		C202.3,349.7,202.1,349.7,202.1,349.7z M200.7,341.4c-0.3-4.4-0.9-10.9-1.7-19.5l-2.5,12.3c-0.7,3.5-1.1,5.8-1.1,6.7
		c0,0.2,0.6,0.3,1.7,0.4c1.2,0.1,2.2,0.2,3.1,0.2H200.7z M198.4,317.2c-0.2-0.1-0.3-0.3-0.3-0.5c0-0.1,0.4-0.5,1.3-1.2l1.5-1.2
		l1.2-1c1-0.8,1.6-1.2,1.7-1.3c0.7,0,1,0.2,1,0.7l-0.1,0.7c-1.6,0.7-3.5,2-5.8,3.9C198.7,317.4,198.5,317.3,198.4,317.2z"/>
	<path class="st0" d="M211.3,348.6l0-1.7c0-0.5,0-1,0-1.7c0-0.3,0-0.6,0-0.8l0-0.8c0-0.3-0.1-0.7-0.2-1.1c0-2.1-0.2-5.9-0.5-11.5
		c-0.3-5.4-0.5-9.1-0.5-11c-1.9,0-3.2,0-3.8-0.1c-0.6-0.2-0.9-0.4-0.9-0.7c0.2-0.3,0.4-0.5,0.9-0.5c0.9,0,2.3,0.1,4,0.2
		c1.6,0.2,2.9,0.2,4,0.2h1l1,0c0.6,0,0.8,0.2,0.8,0.6c0,0.2-0.1,0.3-0.3,0.4c-0.2,0.1-0.4,0.2-0.7,0.2c-0.6,0-1.3,0-1.9-0.1l-2-0.1
		c-0.1,0-0.2,0-0.2,0.1c0,0.1,0,0.4,0,0.9c0,3,0.2,7.5,0.6,13.5c0.3,6.3,0.5,10.7,0.5,13.5c0,0.2-0.1,0.4-0.4,0.6
		c-0.3,0.2-0.5,0.3-0.8,0.3L211.3,348.6z"/>
</g>
</svg>
