<?xml version="1.0" encoding="utf-8"?>
<!-- Generator: Adobe Illustrator 23.0.1, SVG Export Plug-In . SVG Version: 6.00 Build 0)  -->
<svg version="1.1" id="Vrstva_1" xmlns="http://www.w3.org/2000/svg" xmlns:xlink="http://www.w3.org/1999/xlink" x="0px" y="0px"
	 viewBox="0 0 283.5 283.5" style="enable-background:new 0 0 283.5 283.5;" xml:space="preserve">
<style type="text/css">
	.st0{fill:#404041;}
	.st1{fill:#FFFFFF;}
</style>
<g>
	<path class="st0" d="M119.2,197.3l-1,68.8c0,0-19.5,0.3-19.4,9.8c0.1,9.5,28.1,4.1,36.1,3.9c8-0.2,2.8-74,2.8-74L119.2,197.3z"/>
	<path class="st0" d="M172.8,192.2l-0.5,74.4c0,0-19.5,0.5-19.3,9.9c0.2,9.5,28.2,3.8,36.2,3.6c8-0.2,2.1-91,2.1-91L172.8,192.2z"/>
	<path class="st0" d="M224.7,99.8L92.3,99.3c0,0-6.2,127.7,59.7,127.8C241.7,227.2,224.7,99.8,224.7,99.8"/>
	<path class="st1" d="M155.8,126.3c-3.7-1.6-8.9-2.6-13.1-3.1c-7.3-0.9-12.5,0.8-18.2,3.5c-5.2,2.4-15.7,5.7-10.3,10.9
		c4.6,4.4,11.8,7.6,19,9c6.6,1.3,11.3,0.5,17.3-1.4c5.7-1.9,11.4-4,14.4-8.3C168.7,131.4,161.7,128.8,155.8,126.3"/>
	<path class="st0" d="M119.1,128c0,6,5.6,10.9,12.4,10.9c6.9,0,12.4-4.9,12.4-10.9c0-6-5.6-10.8-12.4-10.8
		C124.6,117.2,119.1,122,119.1,128"/>
	<path class="st0" d="M153,88.8c0,0-3.9-4-2.4-39c1.7-40.2-33.8-53.9-67.6-46.4c-36.1,8.1-38.3,56.1-17.4,74.5
		c20.8,18.4,64.4,2,86.8,11.1"/>
	<path class="st1" d="M87,60c-0.1,0-0.1,0-0.1-0.1l0.2-1.3c0-0.3,0.3-0.5,0.8-0.7l1.7-0.3c1.1-0.1,1.5-0.4,1.5-1.2V31.5L87.4,31
		c0,0-0.1-0.1-0.1-0.1c0-0.6,0-2,0.7-2h12.1c8.8,0,11.3,3.5,11.3,7.5c0,3.3-2.3,5.4-6.4,6.7c5.4,0.7,8.3,3.8,8.3,7.9
		c0,4.9-4.3,8.9-13.7,8.9H87z M98,42.7c6.6,0,8.3-1.7,8.3-5.8c0-3.3-2.1-5.4-6.6-5.4c-2.7,0-3.6,0.5-3.7,1.3c-0.1,2.2-0.1,5-0.2,9.8
		H98z M99.6,44.9c-1.5,0-2.7,0.1-3.8,0.2v12.2h3c6,0,9.2-1.2,9.2-5.6C108,47.3,105.7,44.9,99.6,44.9"/>
</g>
</svg>
