<?xml version="1.0" encoding="utf-8"?>
<!-- Generator: Adobe Illustrator 23.0.1, SVG Export Plug-In . SVG Version: 6.00 Build 0)  -->
<svg version="1.1" id="Vrstva_1" xmlns="http://www.w3.org/2000/svg" xmlns:xlink="http://www.w3.org/1999/xlink" x="0px" y="0px"
	 viewBox="0 0 283.5 368.5" style="enable-background:new 0 0 283.5 368.5;" xml:space="preserve">
<style type="text/css">
	.st0{fill:#404041;}
	.st1{fill:#FFFFFF;}
</style>
<path class="st0" d="M117.2,212.9l-1,68.8c0,0-19.5,0.3-19.4,9.8s28.1,4.1,36.1,3.9s2.8-74,2.8-74L117.2,212.9z"/>
<path class="st0" d="M170.8,207.8l-0.5,74.4c0,0-19.5,0.5-19.3,9.9c0.2,9.5,28.2,3.8,36.2,3.6c8-0.2,2.1-91,2.1-91L170.8,207.8z"/>
<path class="st0" d="M222.7,115.4l-132.4-0.5c0,0-6.2,127.7,59.7,127.8C239.7,242.8,222.7,115.4,222.7,115.4"/>
<path class="st1" d="M153.8,141.9c-3.7-1.6-8.9-2.6-13.1-3.1c-7.3-0.9-12.5,0.8-18.2,3.5c-5.2,2.4-15.7,5.7-10.3,10.9
	c4.6,4.4,11.8,7.6,19,9c6.6,1.3,11.3,0.5,17.3-1.4c5.7-1.9,11.4-4,14.4-8.3C166.7,147,159.7,144.4,153.8,141.9"/>
<path class="st0" d="M117.1,143.6c0,6,5.6,10.9,12.4,10.9c6.9,0,12.4-4.9,12.4-10.9s-5.6-10.8-12.4-10.8
	C122.6,132.8,117.1,137.6,117.1,143.6"/>
<path class="st0" d="M151,104.4c0,0-3.9-4-2.4-39C150.3,25.2,114.8,11.5,81,19c-36.1,8.1-38.3,56.1-17.4,74.5
	c20.8,18.4,64.4,2,86.8,11.1"/>
<path class="st1" d="M85,75.6c-0.1,0-0.1,0-0.1-0.1l0.2-1.3c0-0.3,0.3-0.5,0.8-0.7l1.7-0.3c1.1-0.1,1.5-0.4,1.5-1.2V47.1l-3.7-0.5
	l-0.1-0.1c0-0.6,0-2,0.7-2h12.1c8.8,0,11.3,3.5,11.3,7.5c0,3.3-2.3,5.4-6.4,6.7c5.4,0.7,8.3,3.8,8.3,7.9c0,4.9-4.3,8.9-13.7,8.9H85
	V75.6z M96,58.3c6.6,0,8.3-1.7,8.3-5.8c0-3.3-2.1-5.4-6.6-5.4c-2.7,0-3.6,0.5-3.7,1.3c-0.1,2.2-0.1,5-0.2,9.8H96V58.3z M97.6,60.5
	c-1.5,0-2.7,0.1-3.8,0.2v12.2h3c6,0,9.2-1.2,9.2-5.6C106,62.9,103.7,60.5,97.6,60.5"/>
<g>
	<path class="st0" d="M70.7,349c-1-0.7-1.6-1.4-2-2.3c-0.4-0.8-0.7-3.3-1.1-7.6c-0.4-4.3-0.6-7.4-0.6-9.5v-2.4c0-0.7,0-1.5,0-2.3
		c0-1.6,0.1-3.2,0.3-4.7c0.1-0.8,0.3-1.4,0.5-2c0.2-0.6,0.5-1.1,0.9-1.6c0.7-1,1.7-1.7,3-2.1c0.7-0.2,1.5-0.3,2.3-0.3
		c0.6,0,1.2,0.2,1.8,0.5c0.6,0.3,0.9,0.7,0.9,1.2c0,0.3-0.2,0.5-0.7,0.5c-0.2,0-0.5-0.1-1.1-0.3c-0.5-0.2-0.9-0.3-1.2-0.3
		c-0.9,0-1.6,0.2-2.3,0.5s-1.2,0.8-1.6,1.4c-0.3,0.5-0.6,1.2-0.9,2c-0.2,0.9-0.4,1.7-0.5,2.6c-0.1,0.8-0.1,1.7-0.1,2.8l0,2.6
		c0,0.7,0,1.5,0,2.4c0,2.1,0.2,5.2,0.6,9.3c0.4,4.1,0.8,6.5,1.2,7.1c0.4,0.6,0.9,1,1.6,1.3c0.7,0.3,1.5,0.5,2.3,0.5
		c1.4,0,2.5-0.4,3.2-1.3c0.3-0.4,0.6-0.6,0.9-0.6c0.3,0,0.4,0.2,0.4,0.6c0,0.6-0.2,1-0.5,1.4c-0.3,0.4-0.8,0.7-1.4,0.9
		c-1,0.4-2.1,0.6-3.2,0.6C72.6,350,71.7,349.6,70.7,349z"/>
	<path class="st0" d="M90.4,349.3c-0.2-5.7-0.2-9.8-0.2-12.3l-0.1-0.2l0.2-0.4c0-0.6-0.1-1.1-0.2-1.7l-0.7-0.2
		c-0.3,0.1-0.6,0.1-0.9,0.1c-0.2,0-0.8-0.1-1.5-0.2c-0.5-0.2-1-0.2-1.4-0.2l-0.5,0.2c0,1.1,0,2,0,2.9c0,0.9,0,1.8,0,2.9l0.1,0.2
		c0,0.9,0,2.1,0.1,3.9c0.1,1.7,0.1,3,0.1,3.8c0,0.3-0.1,0.6-0.2,0.9c-0.1,0.2-0.3,0.3-0.6,0.3c-0.7,0-1-0.9-1-2.8c0-1.6,0-3,0-4.2
		l0-4.2c0-2.8,0-4.3-0.1-4.5c0.2-0.3,0.2-1.3,0.2-3c0-1.5-0.1-3.3-0.2-5.4l-0.1-1.8l-0.1-3.6c0-0.2,0.1-0.4,0.2-0.6
		c0.2-0.2,0.3-0.3,0.6-0.3c0.6,0,0.9,0.9,0.9,2.7c0,2.1,0,4,0,5.7c-0.1,1.7-0.1,3.5-0.1,5.6c0,0.4,1.2,0.6,3.5,0.6h0.2
		c0.6,0,1-0.1,1.3-0.3c0.3-0.2,0.4-0.6,0.4-1.2c0-1.6-0.1-3.7-0.3-6.3c-0.2-2.8-0.3-4.9-0.3-6.3c0-0.2,0.1-0.3,0.2-0.5
		c0.2-0.1,0.3-0.2,0.6-0.2l0.4,0.1c0.2,0,0.4,0.1,0.4,0.1c0,2.4,0.1,6,0.3,10.7c0.2,4.8,0.3,8.4,0.3,10.8c0,3.6,0.1,6.7,0.3,9.1
		l-0.3,0.5C91.8,349.4,91.3,349.3,90.4,349.3z M88.9,332.6L88.9,332.6L88.9,332.6L88.9,332.6z"/>
	<path class="st0" d="M101.8,349.6c-0.6-0.2-1.1-0.4-1.5-0.8c-0.4-0.3-0.8-0.8-1.2-1.5c-0.6-1.2-1-3-1.1-5.3c-0.1-1-0.1-2-0.1-2.8
		V334c0-2,0.1-3.9,0.2-5.8c0.1-1.4,0.2-2.5,0.4-3.5c0.2-1,0.5-1.9,0.9-2.9c0.4-1,0.9-1.7,1.4-2.1c0.2-0.2,0.6-0.4,1.2-0.6
		c0.4-0.2,0.8-0.3,1.2-0.5h1.8h0.1c0,0,0.1,0,0.1,0l0.2,0l0.2,0.1c0.1,0.1,0.1,0.2,0.1,0.2c0,0.1,0,0.2,0,0.3l-0.6,0.7h-1.9
		c-0.6,0-1.1,0.3-1.6,0.9c-0.5,0.6-0.8,1.3-1.1,2.1c-0.2,0.8-0.4,1.7-0.6,2.7c-0.2,1-0.2,1.9-0.3,2.7c-0.1,1-0.1,1.7-0.1,2l-0.1,0.2
		c0,1.7,0,3.3-0.1,4.6l-0.1,4.6c0,1.3,0.1,2.6,0.3,3.7c0.2,1.2,0.6,2.3,1.3,3.3c0.7,1,1.8,1.5,3.3,1.5c0.5,0,0.8-0.1,1.1-0.4
		c0.5,0,0.7,0.2,0.7,0.5c0,0.2-0.2,0.5-0.6,0.8c-0.4,0.3-0.8,0.5-1.2,0.7h-1.5L101.8,349.6z"/>
	<path class="st0" d="M113.9,348.8c-0.2,0-0.3,0-0.4,0h-0.4c-0.7,0-1.1-0.2-1.3-0.5c0-0.2,0.1-0.4,0.4-0.6l0.2-0.2h1.3l0.2-0.2
		l0.1-0.4l0-0.6c0-1.9,0-3.5-0.1-5l-0.1-1.7l-0.1-3.4c0-1.2,0-3,0.1-5.4l0.1-5.3c0-2.3-0.1-4.1-0.2-5.3c-0.3-0.1-0.7-0.1-1.4-0.1
		l-0.5,0c-0.2,0-0.4,0-0.6,0c-0.6,0-0.9-0.3-0.9-0.8c0-0.1,0.1-0.2,0.4-0.4c0.3-0.1,0.5-0.2,0.7-0.2c1.2,0,2.3,0.1,3.5,0.2
		c0.7,0,1.4,0.2,2.1,0.4c0.6,0.2,0.8,0.4,0.8,0.8c0,0.1,0,0.2-0.1,0.4l-1.1,0.1c-0.2-0.2-0.7-0.3-1.3-0.3l-0.2,0.1
		c0.1,0.3,0.1,1.1,0.1,2.4c0,2,0,3.8,0,5.5l-0.1,5.5c0,1.4,0.1,3.1,0.2,5c0.1,2.2,0.1,3.9,0.1,5.1v0.6c0,0.2,0,0.5,0,0.8
		c0,0.7,0,1.1,0.1,1.3l0,0.1c0,0.3,0.3,0.5,1,0.5c0.3,0,0.5,0,0.7,0h0.7c0.9,0,1.3,0.2,1.3,0.6c0,0.3-0.1,0.5-0.3,0.7
		c-0.2,0.2-0.4,0.3-0.7,0.3c-0.3,0-0.5,0-0.7-0.1c-0.2,0-0.5,0-0.8,0c-0.2,0-0.5,0.1-0.8,0.2c-0.4,0.2-0.6,0.3-0.8,0.3
		C114.4,349.2,114,349.1,113.9,348.8z"/>
	<path class="st0" d="M132.3,349.4c-0.3-0.2-0.5-0.4-0.5-0.7l0.2-0.4c0.1,0,0.4,0,0.8,0.1c0.3,0.1,0.6,0.2,0.8,0.2
		c0.7,0,1.3-0.3,1.8-0.8c0.5-0.5,0.9-1.2,1.2-2.1c0.4-1.6,0.6-3.1,0.6-4.5c0-2.1-0.6-4.4-1.9-6.8c-0.8-1.4-1.4-2.5-1.8-3.4
		c-0.4-0.8-0.8-1.8-1.2-2.9c-0.4-1.3-0.6-2.5-0.6-3.6c0-1.1,0.3-2.4,0.8-3.9c0.3-0.7,0.7-1.3,1.2-1.7c0.5-0.4,1-0.7,1.6-0.7
		c0.4,0,0.8,0.1,1.2,0.4c0.4,0.3,0.6,0.6,0.6,0.9c0,0.2-0.2,0.4-0.6,0.4c-0.1,0-0.3,0-0.5-0.1c-0.2-0.1-0.4-0.1-0.5-0.1
		c-0.5,0-0.9,0.2-1.2,0.6c-0.4,0.4-0.6,0.8-0.8,1.4c-0.4,1.1-0.6,2.2-0.6,3.1c0,0.6,0.1,1.2,0.2,1.8c0,0.2,0.1,0.3,0.1,0.5
		c0,0.1,0,0.2,0,0.3l0.3,0.9l0.2,0.8l0.4,0.8c0.1,0.2,0.2,0.4,0.3,0.6c0.1,0.2,0.2,0.3,0.3,0.5l0.6,1c0.1,0.2,0.4,0.6,0.8,1.3
		c0.4,0.7,0.8,1.4,1.1,2.2c0.3,0.6,0.5,1.3,0.7,1.8c0.2,0.6,0.3,1.3,0.4,2c0.1,0.8,0.1,1.6,0.1,2.5c0,1.5-0.2,2.9-0.6,4.1
		c-0.6,1.5-1.3,2.6-2.4,3.2c-0.6,0.4-1.3,0.6-2,0.6l-0.2,0.1C132.9,349.7,132.6,349.6,132.3,349.4z M137,319.8
		C137,319.8,136.9,319.8,137,319.8L137,319.8L137,319.8z"/>
	<path class="st0" d="M144.1,348.9v-0.6c0-0.2,0-0.3,0-0.6l-0.2-0.2c0.2-0.6,0.4-1.3,0.4-1.9c0-0.7,0-1.7-0.1-3l-0.1-3
		c0-1.5,0-3.8,0.1-6.9c0.1-2.7,0.2-5,0.2-6.9l-0.1-2.8c-0.1-0.8-0.1-1.7-0.1-2.8c0-0.5,0.1-0.8,0.3-1c0.2-0.2,0.6-0.3,1-0.3
		c0.3,0,0.6,0.1,0.7,0.3c0.1,0,0.5,0.1,1.3,0.2c0.8,0.1,1.4,0.2,2,0.4c0.6,0.2,0.9,0.4,0.9,0.7c0,0.3-0.3,0.6-0.9,0.9
		c-1.7-0.6-3-0.9-3.7-0.9l-0.2,0.3c0,0.3,0,0.9,0,2c0,1.3,0,2.5-0.1,3.5c0,1.1,0,2.3,0,3.6c0,0.9,0.2,1.3,0.6,1.3l0.7,0
		c0.2,0,0.5,0,0.8,0c1.2,0,1.8,0.3,1.8,0.8c0,0.3-0.1,0.6-0.2,0.9c-0.2,0.2-0.4,0.3-0.7,0.3c-0.5,0-0.8-0.1-1.1-0.4l-1.5-0.2h-0.2
		l-0.2,0.2v0.1c0.1,0.5,0.1,1.7,0.1,3.6c0,1.2,0,2.3,0,3.3l0,3.3c0,1.2,0,2.4,0.1,3.7c0,0.7,0.2,1.2,0.5,1.4
		c0.3,0.2,0.8,0.3,1.5,0.3l0.8,0c0.3,0,0.6,0,0.9,0c0.9,0,1.3,0.2,1.3,0.6c0,0.6-0.7,0.8-2,0.8H145
		C144.5,349.8,144.2,349.5,144.1,348.9z"/>
	<path class="st0" d="M168.4,349.4c-0.6-0.3-1-0.7-1.4-1.1c-0.4-0.6-0.8-2.1-1-4.6c-0.2-2.5-0.4-5.5-0.5-8.7c0-0.7,0-1.3,0-1.7
		c-0.1-7.7-0.2-12.3-0.4-13.7l0.3-0.6c0.7,0.1,1.1,0.9,1.1,2.5l0.1,12.2c0,0.9,0.1,2.5,0.2,4.9c0.2,2.1,0.3,3.8,0.3,4.9
		c0,3.5,1.2,5.2,3.5,5.2c1.4,0,2.3-3.2,2.7-9.7l0-0.9c0.2-8.4,0.3-14.7,0.3-18.7l0-0.4c0-0.1,0-0.3,0-0.4c0-0.3,0.3-0.5,0.8-0.5
		c0.4,0,0.6,0.1,0.7,0.3c0.1,0.3,0.1,0.8,0.1,1.6c0,2.3-0.1,3.9-0.3,4.7l0,0.3c0,0.4,0,1-0.1,1.8l-0.1,1.8v0.5c0,0.1,0,0.3,0,0.5
		c-0.1,0.7-0.1,1.4-0.1,2.1c0,0.2,0,0.6,0,1c-0.1,2.9-0.1,5.4-0.2,7.6c-0.1,2.7-0.5,4.9-1.1,6.8c-0.7,2-1.8,2.9-3.3,2.9
		C169.5,349.9,169,349.8,168.4,349.4z"/>
	<path class="st0" d="M183.5,316.5c-0.6-1.1-1.2-2.3-1.7-3.5s-0.8-2.2-0.8-2.6l0.9-0.6l0.8,1.1c0,0.2,0.1,0.8,0.4,1.6
		c0.3,0.9,0.6,1.7,0.9,2.6c0.3,0.9,0.5,1.5,0.7,1.8c0.7-2.7,1.1-5,1.3-6.9l0.6-0.4c0.6,0.1,0.8,0.3,0.8,0.6c0,0-0.1,0.2-0.2,0.5
		l0,0.2l-0.4,0.7l0,0.3l-0.5,1.7c-0.6,1.5-0.8,2.7-0.8,3.7c0,0.6-0.2,1-0.7,1C184.5,318.1,184.1,317.6,183.5,316.5z M184.9,349.6
		c-0.6-0.2-1.1-0.4-1.5-0.8c-0.4-0.3-0.8-0.8-1.2-1.5c-0.6-1.2-1-3-1.1-5.3c-0.1-1-0.1-2-0.1-2.8V334c0-2,0.1-3.9,0.2-5.8
		c0.1-1.4,0.2-2.5,0.4-3.5c0.2-1,0.5-1.9,0.9-2.9c0.4-1,0.9-1.7,1.4-2.1c0.2-0.2,0.6-0.4,1.2-0.6c0.4-0.2,0.8-0.3,1.2-0.5h1.8h0.1
		c0,0,0.1,0,0.1,0l0.2,0l0.2,0.1c0.1,0.1,0.1,0.2,0.1,0.2c0,0.1,0,0.2,0,0.3l-0.6,0.7h-1.9c-0.6,0-1.1,0.3-1.6,0.9
		c-0.5,0.6-0.8,1.3-1.1,2.1c-0.2,0.8-0.4,1.7-0.6,2.7c-0.2,1-0.2,1.9-0.3,2.7c-0.1,1-0.1,1.7-0.1,2l-0.1,0.2c0,1.7,0,3.3-0.1,4.6
		l-0.1,4.6c0,1.3,0.1,2.6,0.3,3.7c0.2,1.2,0.6,2.3,1.3,3.3c0.7,1,1.8,1.5,3.3,1.5c0.5,0,0.8-0.1,1.2-0.4c0.5,0,0.7,0.2,0.7,0.5
		c0,0.2-0.2,0.5-0.6,0.8c-0.4,0.3-0.8,0.5-1.2,0.7H186L184.9,349.6z"/>
	<path class="st0" d="M197.1,348.8c-0.2,0-0.3,0-0.4,0h-0.4c-0.7,0-1.1-0.2-1.3-0.5c0-0.2,0.1-0.4,0.4-0.6l0.2-0.2h1.3l0.2-0.2
		l0.1-0.4l0-0.6c0-1.9,0-3.5-0.1-5l-0.1-1.7l-0.1-3.4c0-1.2,0-3,0.1-5.4l0.1-5.3c0-2.3-0.1-4.1-0.2-5.3c-0.3-0.1-0.7-0.1-1.4-0.1
		l-0.5,0c-0.2,0-0.4,0-0.6,0c-0.6,0-0.9-0.3-0.9-0.8c0-0.1,0.1-0.2,0.4-0.4c0.3-0.1,0.5-0.2,0.7-0.2c1.2,0,2.3,0.1,3.5,0.2
		c0.7,0,1.4,0.2,2.1,0.4c0.6,0.2,0.8,0.4,0.8,0.8c0,0.1,0,0.2-0.1,0.4l-1.1,0.1c-0.2-0.2-0.7-0.3-1.3-0.3l-0.2,0.1
		c0.1,0.3,0.1,1.1,0.1,2.4c0,2,0,3.8,0,5.5l-0.1,5.5c0,1.4,0.1,3.1,0.2,5c0.1,2.2,0.1,3.9,0.1,5.1v0.6c0,0.2,0,0.5,0,0.8
		c0,0.7,0,1.1,0.1,1.3l0,0.1c0,0.3,0.3,0.5,1,0.5c0.3,0,0.5,0,0.7,0h0.7c0.9,0,1.3,0.2,1.3,0.6c0,0.3-0.1,0.5-0.3,0.7
		c-0.2,0.2-0.4,0.3-0.7,0.3c-0.3,0-0.5,0-0.7-0.1c-0.2,0-0.5,0-0.8,0c-0.2,0-0.5,0.1-0.8,0.2c-0.4,0.2-0.6,0.3-0.8,0.3
		C197.7,349.2,197.3,349.1,197.1,348.8z"/>
	<path class="st0" d="M211.3,348.6l0-1.7c0-0.5,0-1,0-1.7c0-0.3,0-0.6,0-0.8l0-0.8c0-0.3-0.1-0.7-0.2-1.1c0-2.1-0.2-5.9-0.5-11.5
		c-0.3-5.4-0.5-9.1-0.5-11c-1.9,0-3.2,0-3.8-0.1c-0.6-0.2-0.9-0.4-0.9-0.7c0.2-0.3,0.4-0.5,0.9-0.5c0.9,0,2.3,0.1,4,0.2
		c1.6,0.2,2.9,0.2,4,0.2h1l1,0c0.6,0,0.8,0.2,0.8,0.6c0,0.2-0.1,0.3-0.3,0.4c-0.2,0.1-0.4,0.2-0.7,0.2c-0.6,0-1.3,0-1.9-0.1l-2-0.1
		c-0.1,0-0.2,0-0.2,0.1c0,0.1,0,0.4,0,0.9c0,3,0.2,7.5,0.6,13.5c0.3,6.3,0.5,10.7,0.5,13.5c0,0.2-0.1,0.4-0.4,0.6
		c-0.3,0.2-0.5,0.3-0.8,0.3L211.3,348.6z"/>
</g>
</svg>
