<?xml version="1.0" encoding="utf-8"?>
<!-- Generator: Adobe Illustrator 23.0.1, SVG Export Plug-In . SVG Version: 6.00 Build 0)  -->
<svg version="1.1" id="Vrstva_1" xmlns="http://www.w3.org/2000/svg" xmlns:xlink="http://www.w3.org/1999/xlink" x="0px" y="0px"
	 viewBox="0 0 283.5 283.5" style="enable-background:new 0 0 283.5 283.5;" xml:space="preserve">
<style type="text/css">
	.st0{fill:#404041;}
	.st1{fill:#FFFFFF;}
</style>
<path class="st0" d="M150.1,199l41.6,53.6c0,0,15.6-11.4,21.1-3.8c5.5,7.5-19.8,19.9-26.2,24.5c-6.4,4.6-46.1-56.7-46.1-56.7
	L150.1,199z"/>
<path class="st0" d="M104.4,193.4l0.5,73.4c0,0,19.3,0.4,19.1,9.8c-0.2,9.3-27.8,3.8-35.7,3.6c-7.9-0.2-2.1-89.8-2.1-89.8
	L104.4,193.4z"/>
<path class="st0" d="M53.2,98.5L183.8,98c0,0,6.1,126-58.9,126.1C36.4,224.2,53.2,98.5,53.2,98.5"/>
<path class="st1" d="M121.2,124.7c3.7-1.6,8.8-2.5,12.9-3.1c7.2-0.9,12.3,0.7,18,3.4c5.1,2.4,15.5,5.6,10.1,10.8
	c-4.5,4.3-11.7,7.5-18.7,8.9c-6.5,1.2-11.1,0.5-17-1.4c-5.6-1.8-11.3-3.9-14.2-8.2C108.5,129.7,115.3,127.2,121.2,124.7"/>
<path class="st0" d="M162,139.3c0,5.9-5.5,10.7-12.3,10.7c-6.8,0-12.3-4.8-12.3-10.7c0-5.9,5.5-10.7,12.3-10.7
	C156.5,128.6,162,133.4,162,139.3"/>
<path class="st0" d="M214.2,244.4c0.1,0,0.2,0.2,0.2,0.2c0,0.8,0,2.4-0.8,2.5l-11.4,0.7c-0.1,0-0.2,0-0.2-0.2l0.1-1.7
	c0-0.3,0.4-0.7,0.8-0.9l1.3-0.2c1.1-0.2,1.7-1.1,2-2c2.1-7.1,8.2-26.3,11.3-34.9c0.3-0.9,2.1-1.1,3.2-1.1c0.1,0,0.2,0,0.2,0.1
	c3.1,7.7,12.4,27.7,16.4,35.7l3.7,0.4c0.1,0,0.2,0.1,0.2,0.2c0,0.8,0,2.4-0.8,2.4l-14.1,0.8c-0.2,0-0.2,0-0.2-0.2l0.1-1.7
	c0-0.4,0.3-0.8,0.7-0.9l1.3-0.4c1.3-0.4,1.8-0.6,1.4-1.5l-3.6-8.5l-13.2,0.8c-1.4,4.9-2.2,8.1-2.6,10.1L214.2,244.4z M213.8,231.1
	l11.1-0.6c-2.5-5.6-5.1-11.5-6.5-15C217.3,218.8,215.5,224.9,213.8,231.1"/>
<polygon class="st0" points="51.9,85.7 112.4,16 178.6,85.7 "/>
<polygon class="st0" points="115.3,1.4 117.4,6.9 123,5.2 120.1,10.3 125,13.6 119.1,14.5 119.6,20.3 115.3,16.3 110.9,20.3 
	111.4,14.5 105.6,13.6 110.4,10.3 107.5,5.2 113.1,6.9 "/>
</svg>
