<?xml version="1.0" encoding="utf-8"?>
<!-- Generator: Adobe Illustrator 23.0.1, SVG Export Plug-In . SVG Version: 6.00 Build 0)  -->
<svg version="1.1" id="Vrstva_1" xmlns="http://www.w3.org/2000/svg" xmlns:xlink="http://www.w3.org/1999/xlink" x="0px" y="0px"
	 viewBox="0 0 283.5 368.5" style="enable-background:new 0 0 283.5 368.5;" xml:space="preserve">
<style type="text/css">
	.st0{fill:#454544;}
	.st1{fill:#FFFFFF;}
	.st2{enable-background:new    ;}
	.st3{fill:#404041;}
</style>
<g>
	<g>
		<path class="st0" d="M254.1,111.1c-9.2-0.2-9.7,18.7-9.7,18.7l-53.6,0.1c22.9-35.8,19.7-101.5,19.7-101.5L81.8,28.8
			c0,0-8.5,63.6,18.8,99.6l-48.9-0.1c0,0-0.5-19-9.7-18.7c-9.2,0.2-3.6,27.4-3.3,35.1c0.3,6.8,67.5,3,84.5,1.9
			c8.1,3.7,17.8,5.8,29.2,5.8c7.3,0,13.6-1.6,19.2-4.4c14.6,0.9,85.5,5.2,85.8-1.8C257.7,138.5,263.3,111.3,254.1,111.1z
			 M153.9,72.9c-5.5-1.8-11.1-3.9-13.9-8c-3.7-5.4,3-7.8,8.8-10.2c3.6-1.5,8.6-2.5,12.7-3h0c-0.8,1.4-1.2,3-1.2,4.6
			c0,5.8,5.4,10.5,12.1,10.5c6.3,0,11.4-4.2,12-9.5c4.4,2.1,8.5,4.7,4.7,8.3c-4.4,4.2-11.5,7.4-18.5,8.7
			C164.3,75.6,159.7,74.9,153.9,72.9z"/>
		<path class="st1" d="M189.1,65.6c3.7-3.6-0.3-6.2-4.7-8.3c-0.6,5.3-5.8,9.5-12,9.5c-6.7,0-12.1-4.7-12.1-10.5
			c0-1.7,0.4-3.2,1.2-4.6h0c-4,0.5-9.1,1.5-12.7,3c-5.8,2.4-12.5,4.9-8.8,10.2c2.9,4.2,8.5,6.2,13.9,8c5.8,1.9,10.4,2.7,16.8,1.4
			C177.6,73,184.7,69.9,189.1,65.6z"/>
	</g>
	<g>
		<path class="st0" d="M96.6,217.5H52.8c-2.9,0-5.3-2.4-5.3-5.3v-43.9c0-2.9,2.4-5.3,5.3-5.3h43.9c2.9,0,5.3,2.4,5.3,5.3v43.9
			C101.9,215.2,99.6,217.5,96.6,217.5z"/>
		<path class="st0" d="M163.8,217.5h-43.9c-2.9,0-5.3-2.4-5.3-5.3v-43.9c0-2.9,2.4-5.3,5.3-5.3h43.9c2.9,0,5.3,2.4,5.3,5.3v43.9
			C169.1,215.2,166.7,217.5,163.8,217.5z"/>
		<path class="st0" d="M232.7,217.5h-43.9c-2.9,0-5.3-2.4-5.3-5.3v-43.9c0-2.9,2.4-5.3,5.3-5.3h43.9c2.9,0,5.3,2.4,5.3,5.3v43.9
			C238,215.2,235.6,217.5,232.7,217.5z"/>
		<path class="st0" d="M96.6,284.2H52.8c-2.9,0-5.3-2.4-5.3-5.3v-43.9c0-2.9,2.4-5.3,5.3-5.3h43.9c2.9,0,5.3,2.4,5.3,5.3V279
			C101.9,281.9,99.6,284.2,96.6,284.2z"/>
		<path class="st0" d="M163.8,284.2h-43.9c-2.9,0-5.3-2.4-5.3-5.3v-43.9c0-2.9,2.4-5.3,5.3-5.3h43.9c2.9,0,5.3,2.4,5.3,5.3V279
			C169.1,281.9,166.7,284.2,163.8,284.2z"/>
		<path class="st0" d="M232.7,284.2h-43.9c-2.9,0-5.3-2.4-5.3-5.3v-43.9c0-2.9,2.4-5.3,5.3-5.3h43.9c2.9,0,5.3,2.4,5.3,5.3V279
			C238,281.9,235.6,284.2,232.7,284.2z"/>
		<g class="st2">
			<path class="st1" d="M143.9,188.6l0.3-0.5c0.7-0.9,1.2-1.8,1.5-2.5c0.4-0.8,0.6-1.5,0.8-2.4c0.1-0.9,0.3-1.8,0.3-3
				c0-2.3-0.4-4.1-1.3-5.3s-2.2-1.8-3.9-1.8c-1.2,0-2.3,0.2-3.4,0.6c-1.1,0.4-2.1,1-3,1.8c-0.5,0.4-0.7,0.9-0.7,1.3
				c0,0.3,0.1,0.5,0.3,0.6c0.2,0.1,0.6,0.2,1.1,0.3c0.6,0.1,1.1,0.2,1.5,0.4c0.6,0.3,1.1,0.7,1.4,1.2s0.5,1.1,0.5,1.8
				c0,1-0.4,1.9-1.1,2.6c-0.7,0.7-1.6,1-2.7,1s-2-0.4-2.7-1.3c-0.7-0.8-1.1-1.9-1.1-3.1c0-1.3,0.4-2.5,1.1-3.6
				c0.7-1.1,1.7-2.1,3-2.9c1.8-1,3.9-1.6,6.4-1.6c1.8,0,3.4,0.2,4.9,0.6c1.5,0.4,2.7,1,3.8,1.7c1.1,0.7,1.9,1.6,2.5,2.6
				c0.6,1,0.9,2.1,0.9,3.3c0,1.6-0.5,3-1.5,4.2c-1,1.2-2.7,2.3-5.1,3.3c-1.2,0.5-2.1,1-2.7,1.4c-0.6,0.4-1,0.9-1.3,1.4
				c-0.3,0.5-0.4,1.2-0.5,2.1l-0.9,0c0.1-1,0.3-1.8,0.5-2.4C143,190,143.4,189.3,143.9,188.6z M142.6,197.8c1.1,0,2,0.4,2.7,1.1
				c0.8,0.7,1.1,1.6,1.1,2.7c0,1-0.4,1.9-1.1,2.7c-0.8,0.7-1.6,1.1-2.6,1.1s-1.9-0.4-2.7-1.1c-0.8-0.8-1.1-1.6-1.1-2.6
				c0-0.7,0.2-1.3,0.5-1.9c0.3-0.6,0.8-1,1.3-1.4C141.3,197.9,141.9,197.8,142.6,197.8z"/>
		</g>
	</g>
</g>
<g>
	<path class="st3" d="M105.5,347.9c0-1.5,0-2.9,0-4.1l-0.1-4.1v-3.7c0-1.1,0-2.3,0-3.7c0-4.1-0.1-7.9-0.2-11.4l0-1.7
		c-0.1-1.8-0.1-3.3-0.1-4.4l0.1-0.2c0-0.1,0.1-0.1,0.2-0.2c0-0.1,0.1-0.2,0.2-0.2c0.1,0,0.2,0,0.3,0c1.1,0,2.1,0.2,3,0.7
		c0.9,0.5,1.6,1.2,2.2,2c1.1,1.7,1.6,3.6,1.6,5.8c0,1.4-0.2,2.8-0.7,4.2c-0.5,1.4-1.1,2.7-2.1,3.9c-0.9,1.3-2,2-3.2,2.2l0.1,5.1
		l0.1,2.5c0.1,2.9,0.2,5.5,0.2,7.5c0,0.5-0.1,0.9-0.2,1.1c-0.1,0.2-0.4,0.3-0.8,0.3C105.7,349.5,105.5,349,105.5,347.9z
		 M107.1,331.2c0,0,0.1-0.1,0.4-0.3c0.1,0,0.2-0.2,0.3-0.4l0.3-0.3c2-2,3.1-4.5,3.1-7.5c0-1.7-0.3-3.3-1-4.8
		c-0.4-0.8-0.9-1.4-1.6-1.8c-0.7-0.4-1.6-0.7-2.5-0.7c0,1.7,0.1,4.4,0.3,7.9c0.2,3.5,0.3,6.1,0.3,7.9l0.1,0.1
		C107,331.2,107.1,331.2,107.1,331.2z"/>
	<path class="st3" d="M118.3,348.9v-0.6c0-0.2,0-0.3,0-0.6l-0.2-0.2c0.3-0.6,0.4-1.3,0.4-1.9c0-0.7,0-1.7-0.1-3l-0.1-3
		c0-1.5,0-3.8,0.1-6.9c0.1-2.7,0.2-5,0.2-6.9l-0.1-2.8c-0.1-0.8-0.1-1.7-0.1-2.8c0-0.5,0.1-0.8,0.3-1c0.2-0.2,0.6-0.3,1-0.3
		c0.3,0,0.6,0.1,0.8,0.3c0.1,0,0.5,0.1,1.4,0.2c0.8,0.1,1.5,0.2,2,0.4c0.6,0.2,0.9,0.4,0.9,0.7c0,0.3-0.3,0.6-0.9,0.9
		c-1.8-0.6-3.1-0.9-3.8-0.9l-0.2,0.3c0,0.3,0,0.9,0,2c0,1.3,0,2.5-0.1,3.5c0,1.1,0,2.3,0,3.6c0,0.9,0.2,1.3,0.7,1.3l0.8,0
		c0.3,0,0.5,0,0.8,0c1.2,0,1.8,0.3,1.8,0.8c0,0.3-0.1,0.6-0.2,0.9c-0.2,0.2-0.4,0.3-0.7,0.3c-0.5,0-0.8-0.1-1.1-0.4l-1.5-0.2h-0.2
		l-0.2,0.2v0.1c0.1,0.5,0.1,1.7,0.1,3.6c0,1.2,0,2.3,0,3.3l0,3.3c0,1.2,0,2.4,0.1,3.7c0,0.7,0.2,1.2,0.5,1.4
		c0.3,0.2,0.8,0.3,1.6,0.3l0.8,0c0.3,0,0.6,0,0.9,0c0.9,0,1.4,0.2,1.4,0.6c0,0.6-0.7,0.8-2.1,0.8h-3.9
		C118.7,349.8,118.4,349.5,118.3,348.9z"/>
	<path class="st3" d="M130.5,349.4c0,0,0-0.2,0-0.6c0-1.5,0.4-3.9,1.3-7.2c0.9-3.2,1.3-5.6,1.3-7.2c0-0.9-0.4-3.2-1.3-7
		s-1.4-5.9-1.7-6.2V321c0,0,0-0.1,0-0.1c0-0.2-0.1-0.4-0.2-0.6l-0.2-0.6c0-0.1,0.1-0.2,0.3-0.3c0.2-0.1,0.4-0.1,0.5-0.1
		c0.3,0,0.5,0.2,0.6,0.6c0.2,0.4,0.3,0.8,0.4,1.2l0,1.1c0.4,1.3,0.8,2.8,1.2,4.6c0.4,2,0.7,3.5,1,4.3c0.2-0.4,0.4-1.6,0.7-3.6
		c0.3-2,0.5-3.5,0.6-4.6c0.2-2.5,0.4-3.8,0.6-3.8l0.4-0.1l0.4,0l0.4,0.6c-0.5,0.7-0.8,2.1-0.8,4v0.3l0,0.3l0,0
		c-0.1,1.1-0.4,2.8-0.9,5.1c-0.5,2.5-0.8,4.4-0.8,5.7c0,0.5,0.4,2.5,1.2,6.1c0.8,3.6,1.4,5.7,1.6,6.3c0,0,0.1,0.2,0.2,0.4
		c0.2,0.4,0.3,0.7,0.3,1c0,0.2-0.1,0.3-0.2,0.5c-0.1,0.1-0.3,0.2-0.5,0.2c-0.2,0-0.4,0-0.6-0.1l-0.8-3.5c-0.8-2.8-1.4-5.3-1.8-7.7
		c-0.4,0.6-0.7,2.1-1,4.8c-0.3,2.7-0.6,4.4-0.8,5.1c0.1,0.1,0.1,0.3,0.1,0.6c0,0.3-0.1,0.6-0.2,0.8c-0.1,0.2-0.3,0.3-0.5,0.3
		C130.8,349.4,130.5,349.4,130.5,349.4z"/>
	<path class="st3" d="M143.3,348.9v-0.6c0-0.2,0-0.3,0-0.6l-0.2-0.2c0.3-0.6,0.4-1.3,0.4-1.9c0-0.7,0-1.7-0.1-3l-0.1-3
		c0-1.5,0-3.8,0.1-6.9c0.1-2.7,0.2-5,0.2-6.9l-0.1-2.8c-0.1-0.8-0.1-1.7-0.1-2.8c0-0.5,0.1-0.8,0.3-1c0.2-0.2,0.6-0.3,1-0.3
		c0.3,0,0.6,0.1,0.8,0.3c0.1,0,0.5,0.1,1.4,0.2c0.8,0.1,1.5,0.2,2,0.4c0.6,0.2,0.9,0.4,0.9,0.7c0,0.3-0.3,0.6-0.9,0.9
		c-1.8-0.6-3.1-0.9-3.8-0.9l-0.2,0.3c0,0.3,0,0.9,0,2c0,1.3,0,2.5-0.1,3.5c0,1.1,0,2.3,0,3.6c0,0.9,0.2,1.3,0.7,1.3l0.8,0
		c0.3,0,0.5,0,0.8,0c1.2,0,1.8,0.3,1.8,0.8c0,0.3-0.1,0.6-0.2,0.9c-0.2,0.2-0.4,0.3-0.7,0.3c-0.5,0-0.8-0.1-1.1-0.4l-1.5-0.2h-0.2
		l-0.2,0.2v0.1c0.1,0.5,0.1,1.7,0.1,3.6c0,1.2,0,2.3,0,3.3l0,3.3c0,1.2,0,2.4,0.1,3.7c0,0.7,0.2,1.2,0.5,1.4
		c0.3,0.2,0.8,0.3,1.6,0.3l0.8,0c0.3,0,0.6,0,0.9,0c0.9,0,1.4,0.2,1.4,0.6c0,0.6-0.7,0.8-2.1,0.8h-3.9
		C143.7,349.8,143.4,349.5,143.3,348.9z"/>
	<path class="st3" d="M155.7,349.4c-0.3-0.2-0.5-0.4-0.5-0.7l0.2-0.4c0.1,0,0.4,0,0.8,0.1c0.3,0.1,0.6,0.2,0.8,0.2
		c0.7,0,1.3-0.3,1.8-0.8c0.5-0.5,0.9-1.2,1.2-2.1c0.4-1.6,0.7-3.1,0.7-4.5c0-2.1-0.7-4.4-2-6.8c-0.8-1.4-1.4-2.5-1.9-3.4
		c-0.4-0.8-0.8-1.8-1.2-2.9c-0.4-1.3-0.6-2.5-0.6-3.6c0-1.1,0.3-2.4,0.8-3.9c0.3-0.7,0.7-1.3,1.2-1.7c0.5-0.4,1.1-0.7,1.7-0.7
		c0.4,0,0.8,0.1,1.2,0.4c0.4,0.3,0.6,0.6,0.6,0.9c0,0.2-0.2,0.4-0.6,0.4c-0.1,0-0.3,0-0.5-0.1c-0.2-0.1-0.4-0.1-0.5-0.1
		c-0.5,0-0.9,0.2-1.3,0.6c-0.4,0.4-0.7,0.8-0.8,1.4c-0.4,1.1-0.6,2.2-0.6,3.1c0,0.6,0.1,1.2,0.2,1.8c0,0.2,0.1,0.3,0.1,0.5
		c0,0.1,0,0.2,0,0.3l0.3,0.9l0.2,0.8l0.4,0.8c0.1,0.2,0.2,0.4,0.3,0.6c0.1,0.2,0.2,0.3,0.3,0.5l0.6,1c0.1,0.2,0.4,0.6,0.8,1.3
		c0.4,0.7,0.8,1.4,1.1,2.2c0.3,0.6,0.5,1.3,0.7,1.8c0.2,0.6,0.3,1.3,0.4,2c0.1,0.8,0.1,1.6,0.1,2.5c0,1.5-0.2,2.9-0.6,4.1
		c-0.6,1.5-1.4,2.6-2.5,3.2c-0.6,0.4-1.3,0.6-2.1,0.6l-0.2,0.1C156.3,349.7,156,349.6,155.7,349.4z M160.5,319.8
		C160.5,319.8,160.4,319.8,160.5,319.8L160.5,319.8L160.5,319.8z"/>
	<path class="st3" d="M167.3,333.2v-1.6c0-8.6,1.1-12.8,3.4-12.8c0.2,0,0.4,0,0.7,0.1c1,0.3,2,0.6,3,0.6c0.6,0.1,1.2,0.7,1.8,1.8
		c0.7,1.1,1.2,2.6,1.5,4.4c0.3,1.8,0.5,3.7,0.5,5.6l-0.1,0.2c0,1,0,1.9,0,2.7l0,2.8c0,1.6-0.1,3-0.2,4.2c-0.2,1.9-0.5,3.5-0.9,4.9
		c-0.3,0.8-0.6,1.5-1,2.1c-0.4,0.6-0.8,1-1.3,1.4c-0.5,0.4-1.1,0.6-1.8,0.6C169.2,350.1,167.3,344.5,167.3,333.2z M175.4,346.2
		c0.6-1.7,1-3.5,1.1-5.2c0.1-1.8,0.2-3.3,0.2-4.4c0-1.2-0.1-3-0.3-5.4c-0.2-2.7-0.2-4.5-0.2-5.4l-0.2-0.4l0.1-0.2
		c0-1.3-0.4-2.5-1.2-3.5c-0.8-1-1.7-1.5-2.8-1.5c-1.4,0-2.3,0.7-2.6,2c-0.1,0.5-0.1,1.1-0.2,2c0,2.3-0.1,3.8-0.3,4.6
		c0,0.5,0,1.2-0.1,2.2l-0.1,2.2c0,0.7,0,1.3,0,1.8l0,1.8c0,1.4,0.1,3.1,0.4,5c0.2,1.4,0.4,2.5,0.7,3.5c0.3,1,0.6,1.8,1.1,2.4
		c0.5,0.7,1,1.1,1.6,1.1C173.9,348.8,174.8,347.9,175.4,346.2z"/>
</g>
</svg>
