<?xml version="1.0" encoding="utf-8"?>
<!-- Generator: Adobe Illustrator 25.0.1, SVG Export Plug-In . SVG Version: 6.00 Build 0)  -->
<svg version="1.1" id="Vrstva_1" xmlns="http://www.w3.org/2000/svg" xmlns:xlink="http://www.w3.org/1999/xlink" x="0px" y="0px"
	 viewBox="0 0 800 800" style="enable-background:new 0 0 800 800;" xml:space="preserve">
<style type="text/css">
	.st0{fill:#454544;}
	.st1{fill:#FFFFFF;}
	.st2{enable-background:new    ;}
</style>
<g>
	<path class="st0" d="M705.8,277.8c-25.7-0.6-27.2,52.2-27.2,52.2L529,330.2C593,230.3,584,47,584,47l-358.8,1.3
		c0,0-23.7,177.5,52.5,277.9L141.3,326c0,0-1.5-52.9-27.2-52.2c-25.6,0.6-10.1,76.4-9.3,98c0.7,18.9,188.4,8.3,235.8,5.3
		c22.7,10.3,49.6,16.3,81.6,16.2c20.3,0,38-4.5,53.6-12.4c40.8,2.6,238.6,14.4,239.3-5.1C715.9,354.2,731.5,278.5,705.8,277.8z
		 M426.3,171.3c-15.4-5-30.9-10.8-38.9-22.4c-10.3-15,8.5-21.8,24.6-28.6c10.1-4.3,24.1-7,35.4-8.4c0,0,0.1,0,0.1,0
		c-2.2,3.9-3.4,8.3-3.4,12.9c0,16.3,15.1,29.4,33.7,29.4c17.5,0,31.9-11.6,33.6-26.5c12.4,5.8,23.6,13.1,13.2,23.1
		c-12.3,11.8-32.1,20.6-51.5,24.3C455.3,178.7,442.6,176.7,426.3,171.3z"/>
	<path class="st1" d="M524.5,150.9c10.4-10-0.8-17.3-13.2-23.1c-1.7,14.9-16.1,26.5-33.6,26.5c-18.6,0-33.7-13.1-33.7-29.4
		c0-4.7,1.2-9,3.4-12.9c0,0-0.1,0-0.1,0c-11.2,1.4-25.3,4.1-35.4,8.4c-16.1,6.8-34.9,13.7-24.6,28.6c8,11.6,23.6,17.4,38.9,22.4
		c16.3,5.3,29,7.4,46.8,3.9C492.4,171.5,512.2,162.8,524.5,150.9z"/>
</g>
<g>
	<path class="st0" d="M266.5,574.9H144.2c-8.1,0-14.7-6.6-14.7-14.7V437.7c0-8.1,6.6-14.7,14.7-14.7h122.4c8.1,0,14.7,6.6,14.7,14.7
		v122.4C281.3,568.3,274.7,574.9,266.5,574.9z"/>
	<path class="st0" d="M453.9,574.9H331.5c-8.1,0-14.7-6.6-14.7-14.7V437.7c0-8.1,6.6-14.7,14.7-14.7h122.4c8.1,0,14.7,6.6,14.7,14.7
		v122.4C468.6,568.3,462,574.9,453.9,574.9z"/>
	<path class="st0" d="M646.2,574.9H523.8c-8.1,0-14.7-6.6-14.7-14.7V437.7c0-8.1,6.6-14.7,14.7-14.7h122.4c8.1,0,14.7,6.6,14.7,14.7
		v122.4C660.9,568.3,654.3,574.9,646.2,574.9z"/>
	<path class="st0" d="M266.5,761H144.2c-8.1,0-14.7-6.6-14.7-14.7V623.9c0-8.1,6.6-14.7,14.7-14.7h122.4c8.1,0,14.7,6.6,14.7,14.7
		v122.4C281.3,754.4,274.7,761,266.5,761z"/>
	<path class="st0" d="M453.9,761H331.5c-8.1,0-14.7-6.6-14.7-14.7V623.9c0-8.1,6.6-14.7,14.7-14.7h122.4c8.1,0,14.7,6.6,14.7,14.7
		v122.4C468.6,754.4,462,761,453.9,761z"/>
	<path class="st0" d="M646.2,761H523.8c-8.1,0-14.7-6.6-14.7-14.7V623.9c0-8.1,6.6-14.7,14.7-14.7h122.4c8.1,0,14.7,6.6,14.7,14.7
		v122.4C660.9,754.4,654.3,761,646.2,761z"/>
	<g class="st2">
		<path class="st1" d="M398.5,494.1l0.9-1.4c1.9-2.5,3.3-4.9,4.3-7c1-2.1,1.7-4.3,2.2-6.7c0.4-2.4,0.7-5.1,0.7-8.3
			c0-6.5-1.2-11.4-3.7-14.8c-2.5-3.4-6.1-5-10.9-5c-3.3,0-6.4,0.6-9.5,1.8c-3.1,1.2-5.8,2.9-8.3,5c-1.3,1.2-2,2.4-2,3.6
			c0,0.8,0.3,1.3,0.9,1.7c0.6,0.3,1.6,0.6,3.1,0.8c1.7,0.2,3.1,0.6,4.3,1.1c1.7,0.8,3.1,1.9,4,3.4c0.9,1.5,1.4,3.2,1.4,5
			c0,2.9-1,5.3-3,7.2s-4.5,2.9-7.5,2.9c-3,0-5.6-1.2-7.6-3.5c-2-2.3-3-5.2-3-8.7c0-3.5,1-6.9,3-10.1c2-3.2,4.8-5.9,8.3-8.1
			c5-2.9,10.9-4.4,17.8-4.4c5,0,9.5,0.6,13.6,1.7c4.1,1.1,7.6,2.7,10.6,4.7s5.3,4.4,6.9,7.2c1.6,2.8,2.4,5.9,2.4,9.1
			c0,4.5-1.4,8.4-4.3,11.7c-2.9,3.3-7.6,6.4-14.2,9.3c-3.4,1.4-5.9,2.8-7.6,3.9c-1.7,1.2-2.9,2.5-3.6,3.9c-0.7,1.4-1.2,3.4-1.4,5.9
			l-2.5,0.1c0.4-2.8,0.9-5,1.5-6.6C395.8,498,396.9,496.2,398.5,494.1z M394.7,519.7c3,0,5.5,1,7.6,3c2.1,2,3.1,4.5,3.1,7.5
			c0,2.9-1,5.3-3.1,7.4c-2.1,2-4.5,3-7.3,3c-2.8,0-5.3-1-7.4-3.1c-2.1-2.1-3.1-4.5-3.1-7.3c0-1.9,0.5-3.6,1.4-5.2
			c0.9-1.6,2.2-2.9,3.7-3.9C391.1,520.2,392.8,519.7,394.7,519.7z"/>
	</g>
</g>
</svg>
