<?xml version="1.0" encoding="utf-8"?>
<!-- Generator: Adobe Illustrator 25.0.1, SVG Export Plug-In . SVG Version: 6.00 Build 0)  -->
<svg version="1.1" id="Vrstva_1" xmlns="http://www.w3.org/2000/svg" xmlns:xlink="http://www.w3.org/1999/xlink" x="0px" y="0px"
	 viewBox="0 0 800 800" style="enable-background:new 0 0 800 800;" xml:space="preserve">
<style type="text/css">
	.st0{fill:none;stroke:#454544;stroke-width:27.5472;stroke-linecap:round;stroke-miterlimit:10;}
	.st1{fill:#454544;}
	.st2{fill:#FFFFFF;}
	.st3{fill:#33304C;}
	.st4{fill:#33304D;}
	.st5{fill:#454061;}
	.st6{fill:#6B687E;}
	.st7{fill:#3C3859;}
	.st8{fill:#383556;}
	.st9{fill:#66647A;}
	.st10{fill:#363353;}
	.st11{fill:#3F3B5D;}
	.st12{fill:#636178;}
	.st13{fill:#514E6B;}
	.st14{fill:#5E5C75;}
	.st15{fill:#585570;}
	.st16{fill:#706F81;}
	.st17{fill:#54516D;}
	.st18{fill:#494564;}
	.st19{fill:#7A7988;}
	.st20{fill:#4D4968;}
	.st21{fill:#848591;}
	.st22{fill:#3D395C;}
	.st23{fill:#353251;}
	.st24{fill:#4F4E52;}
	.st25{fill:#3E3A57;}
	.st26{fill:#69656C;}
	.st27{fill:#C76F34;}
	.st28{fill:#F5E629;}
	.st29{fill:#2C2C27;}
	.st30{fill:#69B6D4;}
	.st31{fill:#B3D0D7;}
	.st32{fill:none;stroke:#454544;stroke-width:1.1231;stroke-miterlimit:10;}
	.st33{fill:#454544;stroke:#FFFFFF;stroke-width:1.1231;stroke-miterlimit:10;}
	.st34{font-family:'EngraversMT';}
	.st35{font-size:130px;}
</style>
<g>
	<path class="st1" d="M705.81,277.82c-25.68-0.65-27.18,52.23-27.18,52.23l-149.67,0.19C592.95,230.34,584,47,584,47l-358.78,1.31
		c0,0-23.73,177.53,52.49,277.91l-136.41-0.17c0,0-1.5-52.88-27.18-52.23c-25.64,0.65-10.05,76.4-9.27,98.04
		c0.65,18.94,188.4,8.29,235.81,5.3c22.72,10.32,49.65,16.26,81.59,16.23c20.27-0.02,38.02-4.51,53.57-12.44
		c40.8,2.63,238.6,14.36,239.27-5.08C715.86,354.22,731.45,278.47,705.81,277.82z M426.29,171.33
		c-15.35-5.04-30.92-10.8-38.91-22.39c-10.31-14.96,8.51-21.84,24.57-28.61c10.09-4.26,24.14-6.98,35.39-8.38
		c0.05-0.01,0.09-0.01,0.14-0.01c-2.2,3.91-3.44,8.3-3.44,12.95c0,16.27,15.09,29.42,33.72,29.42c17.49,0,31.86-11.59,33.56-26.47
		c12.39,5.79,23.58,13.13,13.18,23.09c-12.35,11.84-32.09,20.61-51.45,24.33C455.27,178.69,442.56,176.67,426.29,171.33z"/>
	<path class="st2" d="M524.5,150.92c10.4-9.96-0.79-17.3-13.18-23.09c-1.69,14.88-16.07,26.47-33.56,26.47
		c-18.63,0-33.72-13.15-33.72-29.42c0-4.65,1.24-9.04,3.44-12.95c-0.05,0.01-0.09,0.01-0.14,0.01c-11.25,1.4-25.3,4.12-35.39,8.38
		c-16.06,6.77-34.88,13.65-24.57,28.61c7.99,11.59,23.56,17.35,38.91,22.39c16.27,5.33,28.98,7.35,46.77,3.92
		C492.41,171.53,512.16,162.76,524.5,150.92z"/>
</g>
<g>
	<path class="st1" d="M266.54,574.86H144.16c-8.14,0-14.73-6.6-14.73-14.73V437.73c0-8.14,6.6-14.73,14.73-14.73h122.39
		c8.14,0,14.73,6.6,14.73,14.73v122.39C281.28,568.26,274.68,574.86,266.54,574.86z"/>
	<path class="st1" d="M453.91,574.86H331.52c-8.14,0-14.73-6.6-14.73-14.73V437.73c0-8.14,6.6-14.73,14.73-14.73h122.39
		c8.14,0,14.73,6.6,14.73,14.73v122.39C468.64,568.26,462.05,574.86,453.91,574.86z"/>
	<path class="st1" d="M646.18,574.86H523.79c-8.14,0-14.73-6.6-14.73-14.73V437.73c0-8.14,6.6-14.73,14.73-14.73h122.39
		c8.14,0,14.73,6.6,14.73,14.73v122.39C660.91,568.26,654.32,574.86,646.18,574.86z"/>
	<path class="st1" d="M266.54,761H144.16c-8.14,0-14.73-6.6-14.73-14.73V623.88c0-8.14,6.6-14.73,14.73-14.73h122.39
		c8.14,0,14.73,6.6,14.73,14.73v122.39C281.28,754.4,274.68,761,266.54,761z"/>
	<path class="st1" d="M453.91,761H331.52c-8.14,0-14.73-6.6-14.73-14.73V623.88c0-8.14,6.6-14.73,14.73-14.73h122.39
		c8.14,0,14.73,6.6,14.73,14.73v122.39C468.64,754.4,462.05,761,453.91,761z"/>
	<path class="st1" d="M646.18,761H523.79c-8.14,0-14.73-6.6-14.73-14.73V623.88c0-8.14,6.6-14.73,14.73-14.73h122.39
		c8.14,0,14.73,6.6,14.73,14.73v122.39C660.91,754.4,654.32,761,646.18,761z"/>
</g>
<text transform="matrix(1 0 0 1 347.3613 543.1914)" class="st2 st34 st35">?</text>
</svg>
