<?xml version="1.0" encoding="utf-8"?>
<!-- Generator: Adobe Illustrator 25.0.1, SVG Export Plug-In . SVG Version: 6.00 Build 0)  -->
<svg version="1.1" id="Vrstva_1" xmlns="http://www.w3.org/2000/svg" xmlns:xlink="http://www.w3.org/1999/xlink" x="0px" y="0px"
	 viewBox="0 0 800 800" style="enable-background:new 0 0 800 800;" xml:space="preserve">
<style type="text/css">
	.st0{fill:none;stroke:#454544;stroke-width:27.5472;stroke-linecap:round;stroke-miterlimit:10;}
	.st1{fill:#454544;}
	.st2{fill:#FFFFFF;}
	.st3{fill:#33304C;}
	.st4{fill:#33304D;}
	.st5{fill:#454061;}
	.st6{fill:#6B687E;}
	.st7{fill:#3C3859;}
	.st8{fill:#383556;}
	.st9{fill:#66647A;}
	.st10{fill:#363353;}
	.st11{fill:#3F3B5D;}
	.st12{fill:#636178;}
	.st13{fill:#514E6B;}
	.st14{fill:#5E5C75;}
	.st15{fill:#585570;}
	.st16{fill:#706F81;}
	.st17{fill:#54516D;}
	.st18{fill:#494564;}
	.st19{fill:#7A7988;}
	.st20{fill:#4D4968;}
	.st21{fill:#848591;}
	.st22{fill:#3D395C;}
	.st23{fill:#353251;}
	.st24{fill:#4F4E52;}
	.st25{fill:#3E3A57;}
	.st26{fill:#69656C;}
	.st27{fill:#C76F34;}
	.st28{fill:#F5E629;}
	.st29{fill:#2C2C27;}
	.st30{fill:#69B6D4;}
	.st31{fill:#B3D0D7;}
	.st32{fill:none;stroke:#454544;stroke-width:1.1231;stroke-miterlimit:10;}
	.st33{fill:#454544;stroke:#FFFFFF;stroke-width:1.1231;stroke-miterlimit:10;}
</style>
<path class="st1" d="M404.55,554.63L292.06,699.37c0,0-42.02-30.69-56.99-10.32c-14.94,20.33,53.36,53.83,70.65,66.25
	C323,767.75,430.37,602.08,430.37,602.08L404.55,554.63z"/>
<path class="st1" d="M527.97,539.64l-1.24,198.33c0,0-52.02,1.21-51.51,26.48c0.51,25.22,75.09,10.26,96.38,9.6
	c21.32-0.63,5.73-242.5,5.73-242.5L527.97,539.64z"/>
<path class="st1" d="M666.24,283.16l-352.88-1.29c0,0-16.61,340.47,159.1,340.68C711.65,622.77,666.24,283.16,666.24,283.16z"/>
<path class="st2" d="M482.58,354c-9.92-4.19-23.74-6.87-34.81-8.24c-19.39-2.4-33.29,2-48.54,9.23
	c-13.75,6.52-41.83,15.23-27.35,29.09c12.14,11.65,31.56,20.27,50.6,23.93c17.49,3.38,30,1.39,46-3.86
	c15.09-4.95,30.41-10.62,38.27-22.02C516.89,367.43,498.38,360.66,482.58,354z"/>
<path class="st1" d="M372.41,393.52c0,16,14.85,28.93,33.17,28.93c18.32,0,33.17-12.93,33.17-28.93c0-15.99-14.85-28.92-33.17-28.92
	C387.25,364.6,372.41,377.53,372.41,393.52z"/>
<g>
	<path class="st1" d="M430.12,741.25c0.15-0.01,0.48,0.43,0.49,0.58c0.12,2.12,0.07,6.53-2.05,6.65l-30.88,1.78
		c-0.3,0.02-0.46-0.13-0.48-0.43l0.34-4.58c0.11-0.77,1.11-1.89,2.29-2.41l3.62-0.51c3.01-0.48,4.55-2.84,5.46-5.48
		c5.58-19.16,22.05-70.99,30.43-94.25c0.93-2.33,5.76-2.91,8.63-3.08c0.15-0.01,0.46,0.13,0.47,0.28
		c8.48,20.78,33.47,74.94,44.28,96.49l9.94,1.1c0.15-0.01,0.62,0.27,0.63,0.42c0.12,2.12-0.09,6.38-2.21,6.51l-38.15,2.19
		c-0.45,0.03-0.46-0.13-0.48-0.43l0.35-4.58c0.09-1.07,0.79-2.17,1.99-2.39l3.58-1.12c3.59-0.97,4.92-1.65,3.87-4.02l-9.82-22.83
		l-35.73,2.05c-3.8,13.13-5.88,21.91-6.94,27.28L430.12,741.25z M428.96,705.32l29.98-1.72c-6.8-15.25-13.79-31.11-17.52-40.46
		C438.46,672.27,433.63,688.65,428.96,705.32z"/>
</g>
<polygon class="st1" points="661.11,262.02 497.58,73.89 318.77,262.02 "/>
<polygon class="st1" points="498.63,20.95 492.79,35.72 477.61,31.07 485.52,44.84 472.42,53.81 488.12,56.21 486.96,72.04 
	498.63,61.27 510.29,72.04 509.13,56.21 524.83,53.81 511.73,44.84 519.64,31.07 504.46,35.72 "/>
<g>
	<path class="st32" d="M164.61,678.29c0.8,1.68,2.6,1.35,3.76,1.81c1.45-4.22-0.18-8.29-0.57-12.43c-0.53,1.79-0.09,3.81-2.35,5.07
		C163.29,673.95,164.16,676.31,164.61,678.29z"/>
	<path class="st1" d="M172.49,687.53l132.68-8.03c2.17-0.13,3.83-2,3.7-4.17l-2.94-48.67c-0.13-2.17-2-3.83-4.17-3.7l-121.91,7.38
		c-8.12,0.49-14.31,7.48-13.82,15.6l2.29,37.89C168.45,686.01,170.32,687.67,172.49,687.53z"/>
	<circle class="st33" cx="287.98" cy="680.18" r="11.35"/>
	<circle class="st33" cx="204.94" cy="685.81" r="11.35"/>
	<path class="st2" d="M268.03,635.78c-0.57-5.57-0.89-5.83-9.13-5.04c-2.35,0.22-4.73,0.32-7.06,0.69
		c-2.94,0.48-4.09,1.91-3.93,4.86c0.48,8.33,1.04,16.65,1.57,24.97c0.28,4.4,0.62,8.8,0.84,13.2c0.1,2.02,0.98,2.78,2.98,2.62
		c5.02-0.4,10.05-0.73,15.08-1.02c1.63-0.09,2.21-0.84,2.07-2.41c-0.08-0.93,0.09-1.89,0.02-2.83
		C269.73,659.99,268.96,649.15,268.03,635.78z"/>
	<path class="st2" d="M184.51,681.97c6.21-0.57,6.07-0.56,5.65-6.7c-0.76-11.15-1.33-22.32-2-33.47c-0.07-1.1-0.18-2.2-0.31-3.3
		c-0.46-3.87-0.98-4.2-4.79-3.09c-5.63,1.63-8.52,5.15-8.43,11.05c0.11,6.61,0.59,13.21,0.95,19.82c0.25,4.56,0.61,9.11,0.82,13.68
		c0.09,1.98,0.83,2.87,2.92,2.52C181.03,682.18,182.78,682.13,184.51,681.97z"/>
	<path class="st2" d="M195.01,649.68c0.37,2.06,0.02,5.48,1.55,6.91c1.26,1.18,4.73-0.01,7.22-0.14c3.29-0.18,6.59-0.37,9.88-0.55
		c1.54-0.08,2.19-0.76,2.05-2.41c-0.41-4.86-0.6-9.73-1.07-14.58c-0.37-3.84-1.98-5.21-5.93-5.03c-3.46,0.15-6.91,0.53-10.34,1
		c-2.99,0.42-3.75,1.31-3.75,4.38C194.61,642.55,194.85,645.85,195.01,649.68z"/>
	<path class="st2" d="M233.65,655.06c2.2-0.08,4.4-0.21,6.6-0.22c1.65-0.01,2.25-0.81,2.14-2.36c-0.34-5.03-0.56-10.07-1.04-15.08
		c-0.34-3.54-1.8-4.67-5.27-4.54c-2.99,0.11-5.97,0.27-8.96,0.46c-4.65,0.3-5.86,1.53-5.67,6.12c0.19,4.56,0.66,9.11,0.83,13.67
		c0.08,2.06,0.91,2.73,2.89,2.58c2.82-0.21,5.66-0.26,8.49-0.38C233.65,655.22,233.65,655.14,233.65,655.06z"/>
	<path class="st2" d="M295,637.73c-0.14-1.57-0.19-3.15-0.42-4.7c-0.48-3.21-1.75-4.46-5.01-4.38c-3.76,0.09-7.53,0.42-11.28,0.86
		c-2.3,0.27-3.76,2.08-3.67,4.76c0.16,5.18,0.62,10.34,0.93,15.52c0.09,1.5,0.67,2.25,2.35,2.11c5.01-0.43,10.02-0.84,15.04-1.05
		c2.36-0.1,2.86-1.09,2.67-3.25c-0.3-3.28-0.29-6.58-0.41-9.87C295.13,637.73,295.07,637.73,295,637.73z"/>
	<path class="st2" d="M209.77,685.31c-0.84-2.22-1.87-4.22-4.7-4.29c-2.66-0.07-4.3,1.24-5.16,3.68c0.3,2.12,0.2,4.37,2.74,5.43
		C206.06,691.55,208.32,690.08,209.77,685.31z"/>
	<g>
		<path class="st2" d="M293.06,680.35c-0.26-0.73-0.4-1.53-0.8-2.18c-2.45-3.98-5.98-3.73-8.99,0.61c-0.09,0.69-0.17,1.37-0.26,2.06
			c0.81,2.37,2.07,4.22,4.93,4.14C290.98,684.9,292.29,682.92,293.06,680.35z"/>
	</g>
</g>
</svg>
