<?xml version="1.0" encoding="utf-8"?>
<!-- Generator: Adobe Illustrator 23.0.1, SVG Export Plug-In . SVG Version: 6.00 Build 0)  -->
<svg version="1.1" id="Vrstva_1" xmlns="http://www.w3.org/2000/svg" xmlns:xlink="http://www.w3.org/1999/xlink" x="0px" y="0px"
	 viewBox="0 0 283.5 368.5" style="enable-background:new 0 0 283.5 368.5;" xml:space="preserve">
<style type="text/css">
	.st0{fill:#454544;}
	.st1{fill:#FFFFFF;}
	.st2{fill:none;stroke:#454544;stroke-width:1.1231;stroke-miterlimit:10;}
	.st3{fill:#454544;stroke:#FFFFFF;stroke-width:1.1231;stroke-miterlimit:10;}
	.st4{fill:#404041;}
</style>
<path class="st0" d="M137,214.6L94,268.1c0,0-16.1-11.4-21.8-3.8c-5.7,7.5,20.4,19.9,27,24.5c6.6,4.6,47.7-56.7,47.7-56.7L137,214.6
	z"/>
<path class="st0" d="M184.3,209l-0.5,73.4c0,0-19.9,0.4-19.7,9.8c0.2,9.3,28.7,3.8,36.9,3.6c8.2-0.2,2.2-89.8,2.2-89.8L184.3,209z"
	/>
<path class="st0" d="M237.2,114.1l-135.1-0.5c0,0-6.4,126,60.9,126.1C254.6,239.8,237.2,114.1,237.2,114.1z"/>
<path class="st1" d="M166.9,140.3c-3.8-1.6-9.1-2.5-13.3-3c-7.4-0.9-12.7,0.7-18.6,3.4c-5.3,2.4-16,5.6-10.5,10.8
	c4.6,4.3,12.1,7.5,19.4,8.9c6.7,1.3,11.5,0.5,17.6-1.4c5.8-1.8,11.6-3.9,14.7-8.2C180,145.3,172.9,142.8,166.9,140.3z"/>
<path class="st0" d="M124.7,154.9c0,5.9,5.7,10.7,12.7,10.7c7,0,12.7-4.8,12.7-10.7c0-5.9-5.7-10.7-12.7-10.7
	C130.4,144.2,124.7,149,124.7,154.9z"/>
<g>
	<path class="st0" d="M146.8,283.6c0.1,0,0.2,0.2,0.2,0.2c0,0.8,0,2.4-0.8,2.5l-11.8,0.7c-0.1,0-0.2,0-0.2-0.2l0.1-1.7
		c0-0.3,0.4-0.7,0.9-0.9l1.4-0.2c1.2-0.2,1.7-1.1,2.1-2c2.1-7.1,8.4-26.3,11.6-34.9c0.4-0.9,2.2-1.1,3.3-1.1c0.1,0,0.2,0,0.2,0.1
		c3.2,7.7,12.8,27.7,17,35.7l3.8,0.4c0.1,0,0.2,0.1,0.2,0.2c0,0.8,0,2.4-0.8,2.4l-14.6,0.8c-0.2,0-0.2,0-0.2-0.2l0.1-1.7
		c0-0.4,0.3-0.8,0.8-0.9l1.4-0.4c1.4-0.4,1.9-0.6,1.5-1.5l-3.8-8.5l-13.7,0.8c-1.5,4.9-2.3,8.1-2.7,10.1L146.8,283.6z M146.4,270.3
		l11.5-0.6c-2.6-5.6-5.3-11.5-6.7-15C150,258.1,148.2,264.2,146.4,270.3z"/>
</g>
<polygon class="st0" points="235.2,106.3 172.6,36.6 104.2,106.3 "/>
<polygon class="st0" points="173,17 170.8,22.5 165,20.8 168,25.9 163,29.2 169,30.1 168.6,36 173,32 177.5,36 177.1,30.1 
	183.1,29.2 178,25.9 181.1,20.8 175.3,22.5 "/>
<g>
	<path class="st2" d="M45.2,260.3c0.3,0.6,1,0.5,1.4,0.7c0.6-1.6-0.1-3.1-0.2-4.6c-0.2,0.7,0,1.4-0.9,1.9
		C44.7,258.7,45,259.6,45.2,260.3z"/>
	<path class="st0" d="M48.2,263.8l50.8-3c0.8,0,1.5-0.7,1.4-1.5l-1.1-18c0-0.8-0.8-1.4-1.6-1.4L51,242.6c-3.1,0.2-5.5,2.8-5.3,5.8
		l0.9,14C46.6,263.2,47.4,263.8,48.2,263.8z"/>
	<ellipse class="st3" cx="92.4" cy="261" rx="4.3" ry="4.2"/>
	<ellipse class="st3" cx="60.6" cy="263.1" rx="4.3" ry="4.2"/>
	<path class="st1" d="M84.8,244.6c-0.2-2.1-0.3-2.2-3.5-1.9c-0.9,0.1-1.8,0.1-2.7,0.3c-1.1,0.2-1.6,0.7-1.5,1.8
		c0.2,3.1,0.4,6.2,0.6,9.2c0.1,1.6,0.2,3.3,0.3,4.9c0,0.7,0.4,1,1.1,1c1.9-0.1,3.8-0.3,5.8-0.4c0.6,0,0.8-0.3,0.8-0.9
		c0-0.3,0-0.7,0-1C85.4,253.6,85.1,249.6,84.8,244.6z"/>
	<path class="st1" d="M52.8,261.7c2.4-0.2,2.3-0.2,2.2-2.5c-0.3-4.1-0.5-8.3-0.8-12.4c0-0.4-0.1-0.8-0.1-1.2
		c-0.2-1.4-0.4-1.6-1.8-1.1c-2.2,0.6-3.3,1.9-3.2,4.1c0,2.4,0.2,4.9,0.4,7.3c0.1,1.7,0.2,3.4,0.3,5.1c0,0.7,0.3,1.1,1.1,0.9
		C51.5,261.8,52.1,261.8,52.8,261.7z"/>
	<path class="st1" d="M56.8,249.8c0.1,0.8,0,2,0.6,2.6c0.5,0.4,1.8,0,2.8-0.1c1.3-0.1,2.5-0.1,3.8-0.2c0.6,0,0.8-0.3,0.8-0.9
		c-0.2-1.8-0.2-3.6-0.4-5.4c-0.1-1.4-0.8-1.9-2.3-1.9c-1.3,0.1-2.6,0.2-4,0.4c-1.1,0.2-1.4,0.5-1.4,1.6
		C56.7,247.1,56.7,248.3,56.8,249.8z"/>
	<path class="st1" d="M71.6,251.7c0.8,0,1.7-0.1,2.5-0.1c0.6,0,0.9-0.3,0.8-0.9c-0.1-1.9-0.2-3.7-0.4-5.6c-0.1-1.3-0.7-1.7-2-1.7
		c-1.1,0-2.3,0.1-3.4,0.2c-1.8,0.1-2.2,0.6-2.2,2.3c0.1,1.7,0.3,3.4,0.3,5.1c0,0.8,0.3,1,1.1,1C69.4,251.9,70.5,251.9,71.6,251.7
		C71.6,251.8,71.6,251.8,71.6,251.7z"/>
	<path class="st1" d="M95.1,245.3c-0.1-0.6-0.1-1.2-0.2-1.7c-0.2-1.2-0.7-1.7-1.9-1.6c-1.4,0-2.9,0.2-4.3,0.3
		c-0.9,0.1-1.4,0.8-1.4,1.8c0.1,1.9,0.2,3.8,0.4,5.7c0,0.6,0.3,0.8,0.9,0.8c1.9-0.2,3.8-0.3,5.8-0.4c0.9,0,1.1-0.4,1-1.2
		C95.2,247.8,95.2,246.5,95.1,245.3C95.1,245.3,95.1,245.3,95.1,245.3z"/>
	<path class="st1" d="M62.5,262.9c-0.3-0.8-0.7-1.6-1.8-1.6c-1,0-1.6,0.5-2,1.4c0.1,0.8,0.1,1.6,1,2C61,265.3,61.9,264.7,62.5,262.9
		z"/>
	<g>
		<path class="st1" d="M94.3,261.1c-0.1-0.3-0.2-0.6-0.3-0.8c-0.9-1.5-2.3-1.4-3.4,0.2c0,0.3-0.1,0.5-0.1,0.8
			c0.3,0.9,0.8,1.6,1.9,1.5C93.5,262.8,94,262.1,94.3,261.1z"/>
	</g>
</g>
<g>
	<path class="st4" d="M51.3,349.4c-0.2-0.2-0.3-0.5-0.4-0.7l-0.1-0.9c-0.1-0.4-0.1-0.6-0.1-0.7c-3.4-12.3-5.3-19.2-5.7-20.7
		c-0.3-1.1-0.9-4.2-1.9-9.2c0,0.2,0,0.8,0,1.9v16.7l0.1,6.6l0.1,6.5l-0.3,0.4h-1.1l-0.1-0.4c0.1-0.3,0.1-0.9,0.1-1.8l0-8l-0.1-8v-6
		v-4.4c0-1.3,0-2.7,0-4.3c0-0.2,0-0.4,0-0.5v-0.5c0-0.4,0.1-0.6,0.3-0.8c0.2-0.1,0.5-0.2,0.9-0.2c0.2,0,0.4,0.1,0.6,0.3
		c0.2,0.2,0.4,0.4,0.4,0.6l1,4.5c0.4,2.1,0.8,3.8,1.1,4.9c0.6,2.5,1.7,6.7,3.3,12.5c0.9,3.8,1.7,6.7,2.4,8.7
		c0.2-0.5,0.3-1.2,0.3-2.2c0-3,0-5.6,0.1-8l0.1-8c0-1.3,0-2.5,0-3.6v-3.5l0-6.5c0.2-0.4,0.5-0.6,1-0.6c0.2,0,0.4,0.4,0.4,1.3
		c0,0.4,0,0.7,0,1c0,0.2,0,0.4,0,0.5c0,0.1,0,0.2,0,0.2v2.9c0,4.1,0,7.7,0,10.9c0,3.2,0,6.8,0,10.9c0,0.8,0,2-0.1,3.6l-0.1,3.6
		c0,0.9-0.4,1.3-1.2,1.3C51.7,349.7,51.5,349.6,51.3,349.4z"/>
	<path class="st4" d="M68.7,349.7c0,0-0.1-0.1-0.2-0.2c-0.1-0.1-0.2-0.4-0.3-0.9c-0.3-2.2-0.4-3.6-0.5-4.2l-0.2-1.8
		c-0.7-0.2-1.4-0.2-2.3-0.2l-1.7-0.1c-0.7-0.1-1.3-0.1-1.6-0.1c-0.2,0-0.3,0.1-0.3,0.2c0,0.1,0,0.1,0,0.1l-0.1,0.9
		c0,0.6-0.2,1.7-0.5,3.3c-0.2,0.8-0.3,1.5-0.6,1.9c-0.2,0.5-0.5,0.8-0.7,0.8c-0.2,0-0.4-0.1-0.6-0.3c-0.2-0.2-0.3-0.3-0.3-0.5l0-0.1
		l0-0.1c0.6-2.2,1-4.3,1.4-6.5l0.6-2.9l0.6-3.5l0.5-3c0.2-0.8,0.4-2.2,0.8-4c0.4-2.1,0.7-3.5,0.8-4.3c0-0.1,0.1-0.7,0.2-1.7
		c0.1-1.2,0.2-2,0.3-2.6c0.1-0.8,0.2-1.3,0.3-1.4h0.3c0.1,0,0.2,0,0.3,0c0.4,0,0.6-0.1,0.8-0.3c0.2,0,0.4,0.1,0.6,0.2
		c0.2,0.1,0.3,0.3,0.3,0.5c0,1.5,0.1,3.2,0.3,5.1c0.1,1,0.2,1.8,0.3,2.4c0.3,4,1.2,11.4,2.6,22.3v0.1c0,0.3-0.1,0.5-0.4,0.7
		C68.9,349.7,68.7,349.7,68.7,349.7z M67.2,341.4c-0.3-4.4-0.9-10.9-1.7-19.5L63,334.1c-0.7,3.5-1.1,5.8-1.1,6.7
		c0,0.2,0.6,0.3,1.7,0.4c1.2,0.1,2.2,0.2,3.1,0.2H67.2z"/>
	<path class="st4" d="M71.5,353.8L71.5,353.8l0-0.2c0-0.1,0.3-0.3,0.8-0.6c0.5-0.4,1-0.7,1.7-1.1c0.7-0.5,1-0.7,1.1-0.8
		c0.5-0.5,0.8-1.3,1.1-2.5c0.3-1.1,0.4-2.2,0.4-3.3c0-3.3-0.1-7.4-0.2-12.2c-0.2-4.5-0.2-8.6-0.2-12.2l-0.3-0.5
		c-0.2-0.1-0.6-0.1-1.1-0.2c-0.6,0-1.1-0.2-1.6-0.4c-0.5-0.2-0.7-0.4-0.7-0.6c0-0.1,0.1-0.2,0.4-0.4c0.2-0.1,0.4-0.2,0.6-0.2
		c0.6,0,1.5,0.1,2.8,0.3c1.3,0.2,2.4,0.5,3.4,0.8c1,0.3,1.5,0.6,1.5,0.8c0,0.2-0.1,0.3-0.2,0.4c-0.1,0.1-0.3,0.2-0.5,0.2
		c-0.2,0-0.6-0.1-1.2-0.2c-0.5-0.2-0.9-0.2-1.2-0.2c-0.3,0-0.4,0.3-0.4,0.9c0,1.7,0.1,4.9,0.2,9.6c0.2,3.5,0.2,6.7,0.2,9.5v5.1
		c-0.2,0.4-0.3,1-0.3,1.9c0,1.3-0.4,2.7-1.1,4.4c-0.4,0.8-0.9,1.5-1.5,2c-0.6,0.5-1.3,0.8-2,0.8h-0.3L71.5,353.8z"/>
	<path class="st4" d="M86.7,348.2c-0.1-2.1-0.2-4.8-0.2-8c0-2,0-3.8,0-5.4l0-5.4c0-2.3-0.1-5.2-0.2-8.6c-0.3-0.2-0.4-0.6-0.4-0.9
		c0-0.2,0.1-0.4,0.4-0.7c0.3-0.2,0.5-0.3,0.7-0.3c0.2,0,0.5,0.1,0.7,0.4l0.5,0.4c0.2,0.1,0.5,0.2,1.1,0.3c0.5,0.1,0.9,0.2,1.1,0.3
		c0.5,0.2,1.1,0.7,1.8,1.4c0.7,0.7,1.2,1.2,1.5,1.4l0,0.1c0,0.2,0.3,0.6,0.7,1.2c0.3,0.5,0.6,0.9,0.8,1.3c0.5,1.4,0.7,3.2,0.7,5.5
		c0,0.4,0,0.8,0,1.1v1.1v0.4l0,0.5c0,0.6,0.1,1,0.3,1.4c-0.2,1-0.4,2.8-0.7,5.6c-0.1,0.8-0.2,1.6-0.5,2.5c-0.2,0.9-0.5,1.6-0.8,2.2
		c-0.8,1.5-2.1,2.8-4,3.8H87C86.8,349.5,86.7,349.1,86.7,348.2z M90.1,348.1c0.2-0.2,0.4-0.4,0.6-0.6l0.3-0.2l0.4-0.3
		c2.1-1.9,3.2-5.6,3.2-11v-0.9c0-0.2,0-0.5,0-0.8l-0.2-4.6c-0.1-1.8-0.6-3.6-1.6-5.5c-0.5-1-1.1-1.7-1.9-2.3
		c-0.8-0.6-1.6-0.9-2.5-0.9c-0.4,0-0.6,2.8-0.6,8.5c0,6.6,0.2,12.3,0.6,17.2l0,0.9l0.2,0.1l0.1,0.6H90.1z"/>
	<path class="st4" d="M102.6,348.8c-0.2,0-0.3,0-0.4,0h-0.4c-0.7,0-1.1-0.2-1.3-0.5c0-0.2,0.1-0.4,0.4-0.6l0.2-0.2h1.3l0.2-0.2
		l0.1-0.4l0-0.6c0-1.9,0-3.5-0.1-5l-0.1-1.7l-0.1-3.4c0-1.2,0-3,0.1-5.4l0.1-5.3c0-2.3-0.1-4.1-0.2-5.3c-0.3-0.1-0.7-0.1-1.4-0.1
		l-0.5,0c-0.2,0-0.4,0-0.6,0c-0.6,0-0.9-0.3-0.9-0.8c0-0.1,0.1-0.2,0.4-0.4c0.3-0.1,0.5-0.2,0.7-0.2c1.2,0,2.3,0.1,3.5,0.2
		c0.7,0,1.4,0.2,2.1,0.4c0.6,0.2,0.8,0.4,0.8,0.8c0,0.1,0,0.2-0.1,0.4l-1.1,0.1c-0.2-0.2-0.7-0.3-1.3-0.3l-0.2,0.1
		c0.1,0.3,0.1,1.1,0.1,2.4c0,2,0,3.8,0,5.5l-0.1,5.5c0,1.4,0.1,3.1,0.2,5c0.1,2.2,0.1,3.9,0.1,5.1v0.6c0,0.2,0,0.5,0,0.8
		c0,0.7,0,1.1,0.1,1.3l0,0.1c0,0.3,0.3,0.5,1,0.5c0.3,0,0.5,0,0.7,0h0.7c0.9,0,1.3,0.2,1.3,0.6c0,0.3-0.1,0.5-0.3,0.7
		c-0.2,0.2-0.4,0.3-0.7,0.3c-0.3,0-0.5,0-0.7-0.1c-0.2,0-0.5,0-0.8,0c-0.2,0-0.5,0.1-0.8,0.2c-0.4,0.2-0.6,0.3-0.8,0.3
		C103.1,349.2,102.7,349.1,102.6,348.8z"/>
	<path class="st4" d="M122.2,349.8c-0.3-1.9-0.5-4.1-0.5-6.6c0-1,0-2.4,0.1-4.3l0.1-4.3c-0.2-0.4-0.3-0.8-0.3-1.1
		c0.3-0.5,0.5-1.9,0.5-4.2c0-5.6-0.1-8.6-0.2-8.9c0.3-0.8,0.5-1.2,0.6-1.2h2c0.3,0,0.8,0.2,1.4,0.5c0.6,0.3,1.2,0.7,1.6,1
		c0.8,0.7,1.1,2.5,1.1,5.4c0,1.6,0,2.8-0.1,3.6c-0.1,0.6-0.2,1-0.3,1.4c-0.1,0.3-0.3,0.7-0.6,1.2c-0.5,0.7-1.2,1.3-2.3,1.8
		c-0.5,0.2-1.1,0.5-1.9,0.7v5.5c0,0.8,0.1,2.3,0.2,4.5l0.1,1.5l0.1,3c0,0.6-0.3,0.8-0.9,0.8L122.2,349.8z M125.9,332.1
		c0.2-0.3,0.4-0.7,0.6-1.2c0.2-0.5,0.3-1,0.4-1.5c0.2-0.9,0.3-1.9,0.3-3.1V325c0-0.4,0-0.8,0-1.2c0-0.4-0.1-0.8-0.2-1.1
		c-0.1-0.4-0.3-0.7-0.5-1c-0.2-0.3-0.5-0.5-0.8-0.7c-0.4-0.2-0.8-0.3-1.3-0.3c-0.4,0-0.6,0.1-0.8,0.3c-0.2,0.2-0.2,0.5-0.2,1
		c0,0.7,0,1.8,0.1,3.3l0.1,3.3c0,0.8,0,1.5-0.1,2.2l-0.1,2.2l0.3,0.5C124.5,333.3,125.3,332.9,125.9,332.1z"/>
	<path class="st4" d="M135.7,348.8c-0.2,0-0.3,0-0.4,0h-0.4c-0.7,0-1.1-0.2-1.3-0.5c0-0.2,0.1-0.4,0.4-0.6l0.2-0.2h1.3l0.2-0.2
		l0.1-0.4l0-0.6c0-1.9,0-3.5-0.1-5l-0.1-1.7l-0.1-3.4c0-1.2,0-3,0.1-5.4l0.1-5.3c0-2.3-0.1-4.1-0.2-5.3c-0.3-0.1-0.7-0.1-1.4-0.1
		l-0.5,0c-0.2,0-0.4,0-0.6,0c-0.6,0-0.9-0.3-0.9-0.8c0-0.1,0.1-0.2,0.4-0.4c0.3-0.1,0.5-0.2,0.7-0.2c1.2,0,2.3,0.1,3.5,0.2
		c0.7,0,1.4,0.2,2.1,0.4c0.6,0.2,0.8,0.4,0.8,0.8c0,0.1,0,0.2-0.1,0.4l-1.1,0.1c-0.2-0.2-0.7-0.3-1.3-0.3l-0.2,0.1
		c0.1,0.3,0.1,1.1,0.1,2.4c0,2,0,3.8,0,5.5L137,334c0,1.4,0.1,3.1,0.2,5c0.1,2.2,0.1,3.9,0.1,5.1v0.6c0,0.2,0,0.5,0,0.8
		c0,0.7,0,1.1,0.1,1.3l0,0.1c0,0.3,0.3,0.5,1,0.5c0.3,0,0.5,0,0.7,0h0.7c0.9,0,1.3,0.2,1.3,0.6c0,0.3-0.1,0.5-0.3,0.7
		c-0.2,0.2-0.4,0.3-0.7,0.3c-0.3,0-0.5,0-0.7-0.1c-0.2,0-0.5,0-0.8,0c-0.2,0-0.5,0.1-0.8,0.2c-0.4,0.2-0.6,0.3-0.8,0.3
		C136.2,349.2,135.8,349.1,135.7,348.8z M136.2,317.6c-0.2-0.1-0.3-0.3-0.3-0.5c0-0.1,0.4-0.5,1.3-1.2l1.5-1.2l1.2-1
		c1-0.8,1.6-1.2,1.7-1.3c0.7,0,1,0.2,1,0.7l-0.1,0.7c-1.6,0.7-3.5,2-5.8,3.9C136.6,317.8,136.4,317.7,136.2,317.6z"/>
	<path class="st4" d="M146.1,349.4c-0.3-0.2-0.5-0.4-0.5-0.7l0.2-0.4c0.1,0,0.4,0,0.8,0.1c0.3,0.1,0.6,0.2,0.8,0.2
		c0.7,0,1.3-0.3,1.8-0.8c0.5-0.5,0.9-1.2,1.2-2.1c0.4-1.6,0.6-3.1,0.6-4.5c0-2.1-0.6-4.4-1.9-6.8c-0.8-1.4-1.4-2.5-1.8-3.4
		c-0.4-0.8-0.8-1.8-1.2-2.9c-0.4-1.3-0.6-2.5-0.6-3.6c0-1.1,0.3-2.4,0.8-3.9c0.3-0.7,0.7-1.3,1.2-1.7c0.5-0.4,1-0.7,1.6-0.7
		c0.4,0,0.8,0.1,1.2,0.4c0.4,0.3,0.6,0.6,0.6,0.9c0,0.2-0.2,0.4-0.6,0.4c-0.1,0-0.3,0-0.5-0.1c-0.2-0.1-0.4-0.1-0.5-0.1
		c-0.5,0-0.9,0.2-1.2,0.6c-0.4,0.4-0.6,0.8-0.8,1.4c-0.4,1.1-0.6,2.2-0.6,3.1c0,0.6,0.1,1.2,0.2,1.8c0,0.2,0.1,0.3,0.1,0.5
		c0,0.1,0,0.2,0,0.3l0.3,0.9l0.2,0.8l0.4,0.8c0.1,0.2,0.2,0.4,0.3,0.6c0.1,0.2,0.2,0.3,0.3,0.5l0.6,1c0.1,0.2,0.4,0.6,0.8,1.3
		c0.4,0.7,0.8,1.4,1.1,2.2c0.3,0.6,0.5,1.3,0.7,1.8c0.2,0.6,0.3,1.3,0.4,2c0.1,0.8,0.1,1.6,0.1,2.5c0,1.5-0.2,2.9-0.6,4.1
		c-0.6,1.5-1.3,2.6-2.4,3.2c-0.6,0.4-1.3,0.6-2,0.6l-0.2,0.1C146.7,349.7,146.4,349.6,146.1,349.4z M150.7,319.8
		C150.7,319.8,150.7,319.8,150.7,319.8L150.7,319.8L150.7,319.8z"/>
	<path class="st4" d="M175,348.7v-3c0-4.4-0.1-7.9-0.3-10.4l-0.1-1.7c-0.1-0.8-0.2-1.4-0.2-2c0-1,0-2,0.1-2.9l0.1-2.9
		c0-1-0.1-1.7-0.2-2.2c-0.6,0.4-2.5,6.9-5.6,19.4l0,0.7c-0.1,0.8-0.2,1.4-0.4,1.8c-0.1,0.3-0.2,0.6-0.4,0.8
		c-0.2,0.2-0.4,0.3-0.6,0.3c-0.5,0-0.8-0.1-1.1-0.4c-0.2-0.2-0.3-0.6-0.3-1.1c0-0.8-0.4-3-1.2-6.4c-0.8-3.5-1.6-6.8-2.5-10
		c-0.9-3.2-1.5-5-1.9-5.3c0,1.1-0.2,3.6-0.4,7.6c-0.4,7.1-0.6,12.6-0.6,16.7l0,1.8c-0.1,0.4-0.4,0.6-1,0.6c-0.1,0-0.2-0.1-0.5-0.3
		c-0.2-0.2-0.3-0.3-0.3-0.4c0-2.8,0.2-7.6,0.7-14.5c0.5-6.4,0.7-11.3,0.7-14.5c0-0.2,0-0.3-0.1-0.5c-0.1-0.2-0.1-0.3-0.1-0.4
		c0-0.5,0.4-0.7,1.2-0.7c0.5,0,0.8,0.2,0.9,0.7c0.1,0.6,0.2,1.1,0.2,1.4l0,0.6c0.2,0.8,0.6,2,1.3,3.7c0.6,1.3,1,2.5,1.3,3.4
		c0.2,0.7,0.4,1.3,0.5,1.8c0.5,1.8,0.8,3.1,1,4l0.6,1.2c0.1,0.5,0.3,1.2,0.6,2.3c0.3,1.2,0.5,2.1,0.6,2.9c0.1,0.7,0.2,1.4,0.2,2.1
		c0.3-0.5,1.3-3.7,2.9-9.4c1.6-5.8,2.5-9.4,2.8-11c0-0.1,0.1-0.1,0.1-0.3c0-0.1,0-0.3,0.1-0.4c0.1-0.4,0.2-1,0.4-1.8
		c0.2-0.6,0.6-0.9,1.1-0.9c0.2,0,0.5,0.1,0.7,0.3c0.3,0.2,0.4,0.4,0.4,0.6c0,12.8,0.2,19.6,0.6,20.3v2.4c0,0.7,0,1.5,0,2.4
		c0,2,0.1,3.4,0.3,4.4c0,0,0.1,0.1,0.1,0.1c0,0.1,0,0.1,0.1,0.2c0,0.1,0,0.3,0,0.4c0,0.3-0.1,0.7-0.3,1c-0.2,0.3-0.4,0.5-0.7,0.5
		C175.3,351.6,175,350.6,175,348.7z M174.4,323.4L174.4,323.4l-0.1,0L174.4,323.4L174.4,323.4z"/>
	<path class="st4" d="M183.1,348.9v-0.6c0-0.2,0-0.3,0-0.6l-0.2-0.2c0.2-0.6,0.4-1.3,0.4-1.9c0-0.7,0-1.7-0.1-3l-0.1-3
		c0-1.5,0-3.8,0.1-6.9c0.1-2.7,0.2-5,0.2-6.9l-0.1-2.8c-0.1-0.8-0.1-1.7-0.1-2.8c0-0.5,0.1-0.8,0.3-1s0.6-0.3,1-0.3
		c0.3,0,0.6,0.1,0.7,0.3c0.1,0,0.5,0.1,1.3,0.2c0.8,0.1,1.4,0.2,2,0.4c0.6,0.2,0.9,0.4,0.9,0.7c0,0.3-0.3,0.6-0.9,0.9
		c-1.7-0.6-3-0.9-3.7-0.9l-0.2,0.3c0,0.3,0,0.9,0,2c0,1.3,0,2.5-0.1,3.5c0,1.1,0,2.3,0,3.6c0,0.9,0.2,1.3,0.6,1.3l0.7,0
		c0.2,0,0.5,0,0.8,0c1.2,0,1.8,0.3,1.8,0.8c0,0.3-0.1,0.6-0.2,0.9c-0.2,0.2-0.4,0.3-0.7,0.3c-0.5,0-0.8-0.1-1.1-0.4l-1.5-0.2h-0.2
		l-0.2,0.2v0.1c0.1,0.5,0.1,1.7,0.1,3.6c0,1.2,0,2.3,0,3.3l0,3.3c0,1.2,0,2.4,0.1,3.7c0,0.7,0.2,1.2,0.5,1.4
		c0.3,0.2,0.8,0.3,1.5,0.3l0.8,0c0.3,0,0.6,0,0.9,0c0.9,0,1.3,0.2,1.3,0.6c0,0.6-0.7,0.8-2,0.8H184
		C183.5,349.8,183.2,349.5,183.1,348.9z"/>
	<path class="st4" d="M206.3,349.4c0,0-0.1-0.1-0.2-0.3c-0.1-0.2-0.2-0.5-0.3-0.8c0-0.2-0.1-0.5-0.2-0.6l0-0.1
		c-0.2-1.4-0.8-3.2-1.6-5.3l-0.8-2.4c-0.1-0.1-0.4-0.8-0.9-2.3l-0.4-1.1c-2.8-8.5-4.5-13.1-5.2-13.8c-0.2,0.8-0.4,1.9-0.4,3.2
		c0,0.7,0,1.3,0,1.8l0,1.8l0,1.1c0,0.3,0,0.7,0,1.1c0,0.7,0,1.3,0.1,1.7l0.1,1.5h-0.1c0,5.1,0.1,7.9,0.3,8.5v4.1
		c0.1,0.2,0.2,0.6,0.2,1c0,0.2-0.1,0.5-0.3,0.6c-0.2,0.2-0.4,0.3-0.6,0.3c-0.6,0-1-0.8-1-2.5l0.1-1.5c0.1-0.5,0.1-1,0.1-1.5
		c0-1.5,0-3.7-0.1-6.6s-0.1-5.2-0.1-6.6c0-0.9,0-2.3,0.1-4.1c0.1-1.8,0.1-3.2,0.1-4v-0.6c0-1.5,0.3-2.5,0.8-2.9l0.1,0.1l0.5-0.1
		c0.1,0,0.3,0.1,0.4,0.3c0.1,0.1,0.2,0.3,0.2,0.4l0.1,0.3c0,0.1,0,0.1,0,0.2c0.5,2.2,1.6,5.2,3.3,9.2c1.7,4.1,2.8,6.9,3.3,8.2
		c0.3,1.1,0.6,2,0.7,2.9c0.6,2.6,1.3,4.6,2.1,6l0.1-0.1c0.7-6.8,1.1-15.2,1.1-25.1l0-0.6c0-0.2,0-0.4,0-0.6c0-0.6,0.2-1,0.6-1
		c0.3,0,0.5,0.1,0.7,0.4c0.2,0.3,0.3,0.6,0.3,0.9v3.1l-0.2,0.4c0,2.9-0.2,7.7-0.5,14.4c-0.3,6.7-0.7,10.3-1,10.9l-0.8,0.2v0l0,0
		l-0.5,0.1C206.5,349.4,206.3,349.4,206.3,349.4z"/>
	<path class="st4" d="M223.1,345.9c-1-2.5-1.8-5.3-2.5-8.3s-1.1-5.1-1.1-6.3l-0.1-0.2l-0.7,1.5c-0.3,0.6-0.6,1.2-0.8,1.6
		c-0.2,0.4-0.3,0.9-0.5,1.5c-0.2,0.6-0.3,1.2-0.3,1.8s0,1.2-0.1,1.7l-0.1,1.7v5.9c0,0.3,0,0.7,0.1,1.3c0.1,0.6,0.1,1,0.1,1.3
		c0,0.2-0.1,0.3-0.2,0.4c-0.2,0.1-0.3,0.2-0.5,0.2c-0.4,0-0.7-0.1-0.8-0.2c-0.1-0.1-0.2-0.4-0.2-0.8v-8.6c0-0.5,0.1-1.5,0.2-2.9
		c0.2-1.4,0.2-2.4,0.2-2.9c0-1.3,0.1-2.8,0.2-4.5c0.1-1.7,0.2-3.2,0.2-4.4v-6.4c0.2-0.3,0.5-0.5,0.9-0.5c0.2,0,0.5,0.1,0.6,0.3
		c0.2,0.2,0.3,0.4,0.3,0.6c-0.2,0.6-0.4,1.3-0.4,2.2l-0.1,4.8c-0.1,1.5-0.1,3.1-0.1,4.9c0.3-0.1,1.5-2.2,3.6-6.3
		c2.1-4.1,3.2-6.2,3.4-6.2c0.8,0,1.2,0.3,1.2,0.8c-2,2.9-3.6,5.8-4.9,8.5l0,1.5c0,0.4,0,0.9,0,1.5c0,1.4,0.5,3.9,1.6,7.6
		s1.9,6.3,2.7,7.7c0.3,0.5,0.5,0.7,0.6,0.8c0.3,0.4,0.5,0.8,0.7,1.1c0.1,0.3,0.2,0.6,0.2,0.9c0,0.2-0.1,0.4-0.2,0.5
		c-0.2,0.1-0.3,0.2-0.6,0.2C225,350.1,224.1,348.7,223.1,345.9z"/>
	<path class="st4" d="M230.2,333.2v-1.6c0-8.6,1.1-12.8,3.3-12.8c0.2,0,0.4,0,0.6,0.1c1,0.3,1.9,0.6,2.9,0.6
		c0.6,0.1,1.2,0.7,1.7,1.8c0.6,1.1,1.1,2.6,1.4,4.4s0.5,3.7,0.5,5.6l-0.1,0.2c0,1,0,1.9,0,2.7l0,2.8c0,1.6-0.1,3-0.2,4.2
		c-0.2,1.9-0.5,3.5-0.9,4.9c-0.3,0.8-0.6,1.5-0.9,2.1c-0.4,0.6-0.8,1-1.3,1.4c-0.5,0.4-1.1,0.6-1.8,0.6
		C232,350.1,230.2,344.5,230.2,333.2z M238.1,346.2c0.6-1.7,0.9-3.5,1.1-5.2c0.1-1.8,0.2-3.3,0.2-4.4c0-1.2-0.1-3-0.3-5.4
		c-0.2-2.7-0.2-4.5-0.2-5.4l-0.2-0.4l0.1-0.2c0-1.3-0.4-2.5-1.1-3.5c-0.8-1-1.7-1.5-2.7-1.5c-1.4,0-2.3,0.7-2.5,2
		c-0.1,0.5-0.1,1.1-0.2,2c0,2.3-0.1,3.8-0.3,4.6c0,0.5,0,1.2-0.1,2.2l-0.1,2.2c0,0.7,0,1.3,0,1.8l0,1.8c0,1.4,0.1,3.1,0.4,5
		c0.2,1.4,0.4,2.5,0.6,3.5c0.2,1,0.6,1.8,1.1,2.4c0.5,0.7,1,1.1,1.6,1.1C236.6,348.8,237.5,347.9,238.1,346.2z"/>
</g>
</svg>
